<svg width="42" height="42" viewBox="0 0 42 42" fill="none" xmlns="http://www.w3.org/2000/svg">
<mask id="path-1-outside-1_8273_121" maskUnits="userSpaceOnUse" x="-1.00323" y="-0.997559" width="44" height="44" fill="black">
<rect fill="white" x="-1.00323" y="-0.997559" width="44" height="44"/>
<path d="M14.2058 0.99476C19.7154 -0.129423 23.9254 -0.71634 28.74 1.56214C29.6652 0.904955 30.7139 0.441987 31.823 0.201791C32.9321 -0.0384046 34.0789 -0.0508592 35.1931 0.164682C36.3071 0.380256 37.366 0.819276 38.3054 1.4557C39.2449 2.09221 40.0456 2.913 40.6589 3.86781C41.2722 4.82258 41.6856 5.89231 41.8738 7.01136C42.0619 8.13033 42.0209 9.27578 41.7536 10.3785C41.4864 11.4814 40.9986 12.5186 40.3191 13.4274C39.6395 14.3362 38.7819 15.0985 37.7995 15.6666C37.8694 21.5603 34.4218 23.3064 32.9343 26.6803C32.0924 28.6118 31.7782 30.7323 32.0242 32.8248C32.3091 35.1705 32.8393 37.8139 34.1384 39.7907C34.2762 40.0029 34.3551 40.2487 34.366 40.5016C34.3767 40.7545 34.3192 41.0059 34.1999 41.2291C34.0807 41.4524 33.9035 41.6394 33.6872 41.7711C33.4709 41.9028 33.2227 41.9747 32.9695 41.9782H17.1394C16.8428 41.9826 16.5528 41.8909 16.3122 41.7174C16.0716 41.5439 15.8929 41.2971 15.8035 41.0143C15.5527 40.1991 14.6459 37.575 13.114 36.6705C11.1831 37.3671 9.21495 37.9568 7.21947 38.4381C6.57221 38.5784 5.89589 38.4655 5.32982 38.1217C4.76362 37.7777 4.35032 37.2288 4.1765 36.5895C3.53358 34.7435 4.28958 33.958 4.12474 33.3043C4.03794 32.9578 3.50371 32.7955 3.00951 32.442C2.77073 32.2344 2.61959 31.944 2.5847 31.6295C2.54985 31.3151 2.63453 30.9986 2.82201 30.7438C1.84691 29.9927 1.49695 29.7508 2.21165 28.4782C2.50339 28.1163 2.63995 27.6539 2.59447 27.192C2.54037 26.9093 1.51617 26.5434 1.0222 26.1754C-0.192847 25.2725 -0.458786 24.5122 0.941146 22.8043C2.19679 21.1763 3.25973 19.4081 4.10911 17.5358C4.11172 17.015 2.7014 16.4529 2.52708 15.235C2.37169 14.1501 3.39599 12.9337 3.76146 11.3239C3.92472 10.525 4.13934 9.73669 4.40404 8.96546C5.02184 7.26537 5.97687 5.70724 7.21165 4.38538C8.77055 2.73147 11.056 1.62472 14.2058 0.99476ZM27.571 2.5641C23.2836 0.742045 19.3432 1.37568 14.4812 2.36683C11.6658 2.92823 9.56273 3.93092 8.22923 5.34632C7.12331 6.53078 6.26819 7.92649 5.71556 9.44984C5.45751 10.2232 5.24721 11.0121 5.08568 11.8112C4.79615 12.747 4.4411 13.6615 4.02318 14.5475C3.84328 15.0277 3.78397 15.1105 4.49095 15.7643C4.77393 15.9666 5.01098 16.2265 5.18626 16.527C5.36156 16.8276 5.4718 17.1624 5.50853 17.5084C5.49894 17.8437 5.40568 18.1716 5.23704 18.4616C4.3692 20.3081 3.2983 22.0522 2.04564 23.6627C1.51304 24.3143 1.40017 24.5729 1.40013 24.6793C1.52926 24.8036 1.6686 24.9175 1.81615 25.0192C2.39669 25.4509 3.7549 25.7852 3.97044 26.9323C4.07996 27.7941 3.84742 28.6645 3.32298 29.3571C4.18468 30.0445 4.40009 30.0913 4.45189 30.484C4.50566 30.8961 4.24624 31.0069 4.03978 31.4401C4.69901 31.8271 5.27436 32.1427 5.48021 32.9586C5.80151 34.2368 4.95711 34.5785 5.49681 36.1276C5.5687 36.4389 5.75858 36.7106 6.02611 36.8854C6.29362 37.0601 6.61838 37.1243 6.93236 37.0651C9.60888 36.5135 14.6779 34.6094 15.8874 34.2262C18.7833 33.3078 19.371 32.2558 19.3542 31.5348C19.35 31.3494 19.4196 31.17 19.5476 31.0358C19.6758 30.9014 19.8522 30.8233 20.0378 30.819C20.2234 30.8146 20.4035 30.8842 20.5378 31.0123C20.672 31.1405 20.7503 31.317 20.7546 31.5026C20.7957 33.2524 19.3008 34.6144 16.3113 35.5621C16.1125 35.6258 14.8684 36.0618 14.6794 36.1276C15.8414 37.3996 16.6847 38.9299 17.1404 40.5914H32.9695C32.6006 39.7927 31.284 38.326 30.6365 32.9928C30.3618 30.6521 30.7138 28.28 31.656 26.1198C33.1799 22.6529 36.2138 21.1339 36.3904 16.3141C35.231 16.7303 33.9929 16.882 32.7673 16.7584C32.1463 17.6411 31.2967 18.3382 30.3103 18.776C29.8315 19.0027 29.4262 19.3606 29.1413 19.8073C28.8566 20.2539 28.7034 20.7718 28.6999 21.3014V22.3297C28.7092 23.1651 28.3866 23.9707 27.8025 24.568C27.2183 25.1653 26.4201 25.506 25.5847 25.5153C24.7493 25.5245 23.9447 25.201 23.3474 24.6168C22.7502 24.0327 22.4094 23.2354 22.4001 22.4C22.3986 21.8425 22.1758 21.3083 21.781 20.9147C21.386 20.521 20.8504 20.3001 20.2927 20.3004C14.4442 20.3004 7.69993 19.5489 7.69993 13.65C7.70008 7.05819 17.0573 0.83223 26.0515 4.7389C26.4402 3.9385 26.9531 3.2043 27.571 2.5641ZM25.5417 6.04554C17.4562 2.49616 9.10047 7.98926 9.10033 13.65C9.10033 18.4912 15.3724 18.9 20.2927 18.9C21.2216 18.9002 22.1128 19.2693 22.7702 19.9254C23.4275 20.5815 23.7975 21.4714 23.7995 22.4C23.799 22.6611 23.8571 22.9192 23.9695 23.1549C24.0818 23.3906 24.2458 23.5984 24.449 23.7623C24.6521 23.9263 24.8902 24.0422 25.1443 24.1022C25.3983 24.1621 25.6627 24.1647 25.9177 24.109C26.3176 24.0169 26.6737 23.7894 26.9255 23.4655C27.1773 23.1415 27.309 22.7399 27.2995 22.3297V21.3014C27.303 20.5071 27.5312 19.7299 27.9568 19.0592C28.3824 18.3886 28.9886 17.8517 29.7058 17.5104C30.2703 17.2514 30.7829 16.8916 31.2195 16.4498C26.7832 15.1393 24.2435 10.4854 25.5417 6.04554ZM19.6003 6.99964C19.9714 6.99972 20.3271 7.14746 20.5896 7.4098C20.8521 7.67235 20.9997 8.02873 20.9997 8.40003V9.79945H22.4001C22.7714 9.79948 23.1278 9.94708 23.3904 10.2096C23.6529 10.4721 23.7995 10.8286 23.7995 11.1998V12.6002C23.7994 12.9712 23.6526 13.3271 23.3904 13.5895C23.1278 13.852 22.7714 13.9996 22.4001 13.9996H20.9997V15.4C20.9997 15.7712 20.8521 16.1268 20.5896 16.3893C20.3271 16.6518 19.9715 16.7994 19.6003 16.7994H18.1999C17.8287 16.7994 17.4722 16.6518 17.2097 16.3893C16.9475 16.1268 16.7996 15.7711 16.7995 15.4V13.9996H15.4001C15.0288 13.9996 14.6724 13.852 14.4099 13.5895C14.1476 13.3271 13.9999 12.9713 13.9997 12.6002V11.1998C13.9997 10.8285 14.1473 10.4722 14.4099 10.2096C14.6724 9.94707 15.0288 9.79945 15.4001 9.79945H16.7995V8.40003C16.7995 8.02881 16.9473 7.67233 17.2097 7.4098C17.4722 7.14727 17.8287 6.99967 18.1999 6.99964H19.6003ZM18.1999 8.40003V10.15C18.1999 10.4284 18.0892 10.6954 17.8923 10.8922C17.6954 11.0891 17.4285 11.1998 17.1501 11.1998H15.4001V12.6002H17.1501C17.4284 12.6003 17.6955 12.7102 17.8923 12.9069C18.0892 13.1038 18.1999 13.3716 18.1999 13.65V15.4H19.6003V13.65C19.6003 13.3716 19.711 13.1038 19.9079 12.9069C20.1048 12.7102 20.3719 12.6002 20.6501 12.6002H22.4001V11.1998H20.6501C20.3717 11.1998 20.1048 11.089 19.9079 10.8922C19.7111 10.6954 19.6004 10.4284 19.6003 10.15V8.40003H18.1999ZM33.6003 1.40003C29.7343 1.40003 26.6004 4.534 26.6003 8.40003C26.6003 12.2661 29.7342 15.4 33.6003 15.4C37.4641 15.3956 40.5961 12.2639 40.6003 8.40003C40.6002 4.53415 37.4662 1.40027 33.6003 1.40003ZM36.3015 4.90687C36.4852 4.88066 36.6716 4.92835 36.8201 5.03968C36.9686 5.15107 37.0672 5.31683 37.0935 5.50062C37.1197 5.6842 37.0718 5.87076 36.9607 6.01917L32.7605 11.6198C32.6953 11.7066 32.6106 11.7772 32.5134 11.8258C32.4162 11.8744 32.3086 11.8991 32.1999 11.8991C31.823 11.899 31.8308 11.82 30.3054 10.2946C30.178 10.1626 30.1076 9.98577 30.1091 9.80238C30.1107 9.61884 30.1844 9.4429 30.3142 9.31312C30.4439 9.18349 30.6191 9.10973 30.8025 9.10804C30.986 9.10645 31.1636 9.17682 31.2956 9.30433L32.1247 10.1344L35.8406 5.17933C35.952 5.03092 36.1178 4.93311 36.3015 4.90687Z"/>
</mask>
<path d="M14.2058 0.99476C19.7154 -0.129423 23.9254 -0.71634 28.74 1.56214C29.6652 0.904955 30.7139 0.441987 31.823 0.201791C32.9321 -0.0384046 34.0789 -0.0508592 35.1931 0.164682C36.3071 0.380256 37.366 0.819276 38.3054 1.4557C39.2449 2.09221 40.0456 2.913 40.6589 3.86781C41.2722 4.82258 41.6856 5.89231 41.8738 7.01136C42.0619 8.13033 42.0209 9.27578 41.7536 10.3785C41.4864 11.4814 40.9986 12.5186 40.3191 13.4274C39.6395 14.3362 38.7819 15.0985 37.7995 15.6666C37.8694 21.5603 34.4218 23.3064 32.9343 26.6803C32.0924 28.6118 31.7782 30.7323 32.0242 32.8248C32.3091 35.1705 32.8393 37.8139 34.1384 39.7907C34.2762 40.0029 34.3551 40.2487 34.366 40.5016C34.3767 40.7545 34.3192 41.0059 34.1999 41.2291C34.0807 41.4524 33.9035 41.6394 33.6872 41.7711C33.4709 41.9028 33.2227 41.9747 32.9695 41.9782H17.1394C16.8428 41.9826 16.5528 41.8909 16.3122 41.7174C16.0716 41.5439 15.8929 41.2971 15.8035 41.0143C15.5527 40.1991 14.6459 37.575 13.114 36.6705C11.1831 37.3671 9.21495 37.9568 7.21947 38.4381C6.57221 38.5784 5.89589 38.4655 5.32982 38.1217C4.76362 37.7777 4.35032 37.2288 4.1765 36.5895C3.53358 34.7435 4.28958 33.958 4.12474 33.3043C4.03794 32.9578 3.50371 32.7955 3.00951 32.442C2.77073 32.2344 2.61959 31.944 2.5847 31.6295C2.54985 31.3151 2.63453 30.9986 2.82201 30.7438C1.84691 29.9927 1.49695 29.7508 2.21165 28.4782C2.50339 28.1163 2.63995 27.6539 2.59447 27.192C2.54037 26.9093 1.51617 26.5434 1.0222 26.1754C-0.192847 25.2725 -0.458786 24.5122 0.941146 22.8043C2.19679 21.1763 3.25973 19.4081 4.10911 17.5358C4.11172 17.015 2.7014 16.4529 2.52708 15.235C2.37169 14.1501 3.39599 12.9337 3.76146 11.3239C3.92472 10.525 4.13934 9.73669 4.40404 8.96546C5.02184 7.26537 5.97687 5.70724 7.21165 4.38538C8.77055 2.73147 11.056 1.62472 14.2058 0.99476ZM27.571 2.5641C23.2836 0.742045 19.3432 1.37568 14.4812 2.36683C11.6658 2.92823 9.56273 3.93092 8.22923 5.34632C7.12331 6.53078 6.26819 7.92649 5.71556 9.44984C5.45751 10.2232 5.24721 11.0121 5.08568 11.8112C4.79615 12.747 4.4411 13.6615 4.02318 14.5475C3.84328 15.0277 3.78397 15.1105 4.49095 15.7643C4.77393 15.9666 5.01098 16.2265 5.18626 16.527C5.36156 16.8276 5.4718 17.1624 5.50853 17.5084C5.49894 17.8437 5.40568 18.1716 5.23704 18.4616C4.3692 20.3081 3.2983 22.0522 2.04564 23.6627C1.51304 24.3143 1.40017 24.5729 1.40013 24.6793C1.52926 24.8036 1.6686 24.9175 1.81615 25.0192C2.39669 25.4509 3.7549 25.7852 3.97044 26.9323C4.07996 27.7941 3.84742 28.6645 3.32298 29.3571C4.18468 30.0445 4.40009 30.0913 4.45189 30.484C4.50566 30.8961 4.24624 31.0069 4.03978 31.4401C4.69901 31.8271 5.27436 32.1427 5.48021 32.9586C5.80151 34.2368 4.95711 34.5785 5.49681 36.1276C5.5687 36.4389 5.75858 36.7106 6.02611 36.8854C6.29362 37.0601 6.61838 37.1243 6.93236 37.0651C9.60888 36.5135 14.6779 34.6094 15.8874 34.2262C18.7833 33.3078 19.371 32.2558 19.3542 31.5348C19.35 31.3494 19.4196 31.17 19.5476 31.0358C19.6758 30.9014 19.8522 30.8233 20.0378 30.819C20.2234 30.8146 20.4035 30.8842 20.5378 31.0123C20.672 31.1405 20.7503 31.317 20.7546 31.5026C20.7957 33.2524 19.3008 34.6144 16.3113 35.5621C16.1125 35.6258 14.8684 36.0618 14.6794 36.1276C15.8414 37.3996 16.6847 38.9299 17.1404 40.5914H32.9695C32.6006 39.7927 31.284 38.326 30.6365 32.9928C30.3618 30.6521 30.7138 28.28 31.656 26.1198C33.1799 22.6529 36.2138 21.1339 36.3904 16.3141C35.231 16.7303 33.9929 16.882 32.7673 16.7584C32.1463 17.6411 31.2967 18.3382 30.3103 18.776C29.8315 19.0027 29.4262 19.3606 29.1413 19.8073C28.8566 20.2539 28.7034 20.7718 28.6999 21.3014V22.3297C28.7092 23.1651 28.3866 23.9707 27.8025 24.568C27.2183 25.1653 26.4201 25.506 25.5847 25.5153C24.7493 25.5245 23.9447 25.201 23.3474 24.6168C22.7502 24.0327 22.4094 23.2354 22.4001 22.4C22.3986 21.8425 22.1758 21.3083 21.781 20.9147C21.386 20.521 20.8504 20.3001 20.2927 20.3004C14.4442 20.3004 7.69993 19.5489 7.69993 13.65C7.70008 7.05819 17.0573 0.83223 26.0515 4.7389C26.4402 3.9385 26.9531 3.2043 27.571 2.5641ZM25.5417 6.04554C17.4562 2.49616 9.10047 7.98926 9.10033 13.65C9.10033 18.4912 15.3724 18.9 20.2927 18.9C21.2216 18.9002 22.1128 19.2693 22.7702 19.9254C23.4275 20.5815 23.7975 21.4714 23.7995 22.4C23.799 22.6611 23.8571 22.9192 23.9695 23.1549C24.0818 23.3906 24.2458 23.5984 24.449 23.7623C24.6521 23.9263 24.8902 24.0422 25.1443 24.1022C25.3983 24.1621 25.6627 24.1647 25.9177 24.109C26.3176 24.0169 26.6737 23.7894 26.9255 23.4655C27.1773 23.1415 27.309 22.7399 27.2995 22.3297V21.3014C27.303 20.5071 27.5312 19.7299 27.9568 19.0592C28.3824 18.3886 28.9886 17.8517 29.7058 17.5104C30.2703 17.2514 30.7829 16.8916 31.2195 16.4498C26.7832 15.1393 24.2435 10.4854 25.5417 6.04554ZM19.6003 6.99964C19.9714 6.99972 20.3271 7.14746 20.5896 7.4098C20.8521 7.67235 20.9997 8.02873 20.9997 8.40003V9.79945H22.4001C22.7714 9.79948 23.1278 9.94708 23.3904 10.2096C23.6529 10.4721 23.7995 10.8286 23.7995 11.1998V12.6002C23.7994 12.9712 23.6526 13.3271 23.3904 13.5895C23.1278 13.852 22.7714 13.9996 22.4001 13.9996H20.9997V15.4C20.9997 15.7712 20.8521 16.1268 20.5896 16.3893C20.3271 16.6518 19.9715 16.7994 19.6003 16.7994H18.1999C17.8287 16.7994 17.4722 16.6518 17.2097 16.3893C16.9475 16.1268 16.7996 15.7711 16.7995 15.4V13.9996H15.4001C15.0288 13.9996 14.6724 13.852 14.4099 13.5895C14.1476 13.3271 13.9999 12.9713 13.9997 12.6002V11.1998C13.9997 10.8285 14.1473 10.4722 14.4099 10.2096C14.6724 9.94707 15.0288 9.79945 15.4001 9.79945H16.7995V8.40003C16.7995 8.02881 16.9473 7.67233 17.2097 7.4098C17.4722 7.14727 17.8287 6.99967 18.1999 6.99964H19.6003ZM18.1999 8.40003V10.15C18.1999 10.4284 18.0892 10.6954 17.8923 10.8922C17.6954 11.0891 17.4285 11.1998 17.1501 11.1998H15.4001V12.6002H17.1501C17.4284 12.6003 17.6955 12.7102 17.8923 12.9069C18.0892 13.1038 18.1999 13.3716 18.1999 13.65V15.4H19.6003V13.65C19.6003 13.3716 19.711 13.1038 19.9079 12.9069C20.1048 12.7102 20.3719 12.6002 20.6501 12.6002H22.4001V11.1998H20.6501C20.3717 11.1998 20.1048 11.089 19.9079 10.8922C19.7111 10.6954 19.6004 10.4284 19.6003 10.15V8.40003H18.1999ZM33.6003 1.40003C29.7343 1.40003 26.6004 4.534 26.6003 8.40003C26.6003 12.2661 29.7342 15.4 33.6003 15.4C37.4641 15.3956 40.5961 12.2639 40.6003 8.40003C40.6002 4.53415 37.4662 1.40027 33.6003 1.40003ZM36.3015 4.90687C36.4852 4.88066 36.6716 4.92835 36.8201 5.03968C36.9686 5.15107 37.0672 5.31683 37.0935 5.50062C37.1197 5.6842 37.0718 5.87076 36.9607 6.01917L32.7605 11.6198C32.6953 11.7066 32.6106 11.7772 32.5134 11.8258C32.4162 11.8744 32.3086 11.8991 32.1999 11.8991C31.823 11.899 31.8308 11.82 30.3054 10.2946C30.178 10.1626 30.1076 9.98577 30.1091 9.80238C30.1107 9.61884 30.1844 9.4429 30.3142 9.31312C30.4439 9.18349 30.6191 9.10973 30.8025 9.10804C30.986 9.10645 31.1636 9.17682 31.2956 9.30433L32.1247 10.1344L35.8406 5.17933C35.952 5.03092 36.1178 4.93311 36.3015 4.90687Z" fill="url(#paint0_linear_8273_121)"/>
<path d="M14.2058 0.99476L14.2254 1.09282L14.2258 1.09274L14.2058 0.99476ZM28.74 1.56214L28.6972 1.65253L28.7501 1.67758L28.7979 1.64367L28.74 1.56214ZM31.823 0.201791L31.8018 0.104057V0.104057L31.823 0.201791ZM35.1931 0.164682L35.2121 0.066503L35.2121 0.0665019L35.1931 0.164682ZM38.3054 1.4557L38.3615 1.37291V1.37291L38.3054 1.4557ZM40.6589 3.86781L40.7431 3.81376V3.81376L40.6589 3.86781ZM41.8738 7.01136L41.9724 6.99478V6.99478L41.8738 7.01136ZM41.7536 10.3785L41.8508 10.4021V10.4021L41.7536 10.3785ZM40.3191 13.4274L40.3992 13.4873V13.4873L40.3191 13.4274ZM37.7995 15.6666L37.7495 15.5801L37.6989 15.6093L37.6996 15.6678L37.7995 15.6666ZM32.9343 26.6803L32.8428 26.64L32.8426 26.6403L32.9343 26.6803ZM32.0242 32.8248L31.9248 32.8365L31.9249 32.8369L32.0242 32.8248ZM34.1384 39.7907L34.2223 39.7362L34.222 39.7357L34.1384 39.7907ZM34.366 40.5016L34.4659 40.4973V40.4973L34.366 40.5016ZM34.1999 41.2291L34.2881 41.2763L34.2881 41.2762L34.1999 41.2291ZM33.6872 41.7711L33.7392 41.8565L33.7393 41.8565L33.6872 41.7711ZM32.9695 41.9782V42.0782L32.9708 42.0781L32.9695 41.9782ZM17.1394 41.9782V41.8781L17.1379 41.8782L17.1394 41.9782ZM16.3122 41.7174L16.2537 41.7985L16.2538 41.7985L16.3122 41.7174ZM15.8035 41.0143L15.7079 41.0437L15.7081 41.0444L15.8035 41.0143ZM13.114 36.6705L13.1648 36.5844L13.1243 36.5605L13.0801 36.5765L13.114 36.6705ZM7.21947 38.4381L7.24065 38.5359L7.24291 38.5353L7.21947 38.4381ZM5.32982 38.1217L5.27789 38.2072L5.27791 38.2072L5.32982 38.1217ZM4.1765 36.5895L4.27323 36.5632L4.27093 36.5566L4.1765 36.5895ZM4.12474 33.3043L4.02774 33.3286L4.02778 33.3288L4.12474 33.3043ZM3.00951 32.442L2.9436 32.5178L2.95133 32.5234L3.00951 32.442ZM2.5847 31.6295L2.48531 31.6405L2.48531 31.6406L2.5847 31.6295ZM2.82201 30.7438L2.90256 30.803L2.96052 30.7242L2.88303 30.6646L2.82201 30.7438ZM2.21165 28.4782L2.1338 28.4154L2.12856 28.4219L2.12446 28.4292L2.21165 28.4782ZM2.59447 27.192L2.6944 27.1822L2.69268 27.1732L2.59447 27.192ZM1.0222 26.1754L1.08195 26.0952L1.08185 26.0952L1.0222 26.1754ZM0.941146 22.8043L1.01852 22.8678L1.02033 22.8654L0.941146 22.8043ZM4.10911 17.5358L4.20018 17.5771L4.20901 17.5576L4.20911 17.5363L4.10911 17.5358ZM2.52708 15.235L2.62607 15.2208L2.62607 15.2208L2.52708 15.235ZM3.76146 11.3239L3.859 11.346L3.85943 11.3439L3.76146 11.3239ZM4.40404 8.96546L4.31003 8.9313L4.30945 8.933L4.40404 8.96546ZM7.21165 4.38538L7.13888 4.31679L7.13858 4.31712L7.21165 4.38538ZM27.571 2.5641L27.643 2.63355L27.744 2.52893L27.6101 2.47206L27.571 2.5641ZM14.4812 2.36683L14.5007 2.4649L14.5012 2.46481L14.4812 2.36683ZM8.22923 5.34632L8.15645 5.27775L8.15614 5.27808L8.22923 5.34632ZM5.71556 9.44984L5.62152 9.41572L5.6207 9.41819L5.71556 9.44984ZM5.08568 11.8112L5.18169 11.8409L5.18369 11.831L5.08568 11.8112ZM4.02318 14.5475L3.93243 14.5047L3.92953 14.5124L4.02318 14.5475ZM4.49095 15.7643L4.42252 15.8383L4.43279 15.8456L4.49095 15.7643ZM5.18626 16.527L5.27265 16.4766L5.27264 16.4766L5.18626 16.527ZM5.50853 17.5084L5.6094 17.5113L5.60797 17.4979L5.50853 17.5084ZM5.23704 18.4616L5.15027 18.4111L5.14654 18.419L5.23704 18.4616ZM2.04564 23.6627L2.12309 23.726L2.12457 23.7241L2.04564 23.6627ZM1.40013 24.6793L1.30013 24.6793L1.30012 24.7219L1.3308 24.7514L1.40013 24.6793ZM1.81615 25.0192L1.87586 24.9389L1.87289 24.9368L1.81615 25.0192ZM3.97044 26.9323L4.06982 26.9196L4.06872 26.9138L3.97044 26.9323ZM3.32298 29.3571L3.24326 29.2967L3.1844 29.3744L3.26062 29.4352L3.32298 29.3571ZM4.45189 30.484L4.55105 30.4711L4.55103 30.4709L4.45189 30.484ZM4.03978 31.4401L3.94951 31.3971L3.91004 31.4799L3.98915 31.5263L4.03978 31.4401ZM5.48021 32.9586L5.57719 32.9342L5.57717 32.9342L5.48021 32.9586ZM5.49681 36.1276L5.59482 36.1049L5.59124 36.0947L5.49681 36.1276ZM6.02611 36.8854L5.97141 36.9691L5.97142 36.9691L6.02611 36.8854ZM6.93236 37.0651L6.9509 37.1634L6.95254 37.163L6.93236 37.0651ZM15.8874 34.2262L15.9176 34.3215L15.9177 34.3215L15.8874 34.2262ZM19.3542 31.5348L19.2543 31.5371V31.5371L19.3542 31.5348ZM19.5476 31.0358L19.4752 30.9667L19.4752 30.9668L19.5476 31.0358ZM20.0378 30.819L20.0355 30.719H20.0355L20.0378 30.819ZM20.5378 31.0123L20.6069 30.94L20.6069 30.94L20.5378 31.0123ZM20.7546 31.5026L20.8546 31.5002L20.7546 31.5026ZM16.3113 35.5621L16.281 35.4668L16.2807 35.4669L16.3113 35.5621ZM14.6794 36.1276L14.6465 36.0331L14.5033 36.083L14.6056 36.195L14.6794 36.1276ZM17.1404 40.5914L17.0439 40.6179L17.0641 40.6914H17.1404V40.5914ZM32.9695 40.5914V40.6914H33.1258L33.0602 40.5495L32.9695 40.5914ZM30.6365 32.9928L30.5371 33.0045L30.5372 33.0049L30.6365 32.9928ZM31.656 26.1198L31.5644 26.0795L31.5643 26.0798L31.656 26.1198ZM36.3904 16.3141L36.4903 16.3178L36.4957 16.17L36.3566 16.22L36.3904 16.3141ZM32.7673 16.7584L32.7774 16.6589L32.7192 16.6531L32.6855 16.7009L32.7673 16.7584ZM30.3103 18.776L30.2697 18.6846L30.2675 18.6856L30.3103 18.776ZM29.1413 19.8073L29.057 19.7535L29.057 19.7535L29.1413 19.8073ZM28.6999 21.3014L28.5999 21.3007V21.3014H28.6999ZM28.6999 22.3297H28.5999L28.5999 22.3308L28.6999 22.3297ZM27.8025 24.568L27.874 24.6379L27.874 24.6379L27.8025 24.568ZM25.5847 25.5153L25.5858 25.6153H25.5858L25.5847 25.5153ZM23.3474 24.6168L23.2775 24.6883L23.2775 24.6883L23.3474 24.6168ZM22.4001 22.4L22.3001 22.4003L22.3001 22.4011L22.4001 22.4ZM21.781 20.9147L21.8516 20.8439L21.8516 20.8439L21.781 20.9147ZM20.2927 20.3004L20.2927 20.4004H20.2928L20.2927 20.3004ZM7.69993 13.65L7.59994 13.65V13.65H7.69993ZM26.0515 4.7389L26.0117 4.83062L26.0996 4.86881L26.1415 4.78259L26.0515 4.7389ZM25.5417 6.04554L25.6377 6.07361L25.6624 5.98929L25.5819 5.95398L25.5417 6.04554ZM9.10033 13.65L9.00033 13.65V13.65H9.10033ZM20.2927 18.9L20.2927 18.8H20.2927V18.9ZM22.7702 19.9254L22.8409 19.8547L22.8409 19.8546L22.7702 19.9254ZM23.7995 22.4L23.8995 22.4003L23.8995 22.3998L23.7995 22.4ZM23.9695 23.1549L23.8792 23.1979L23.8792 23.1979L23.9695 23.1549ZM24.449 23.7623L24.3862 23.8402L24.3862 23.8402L24.449 23.7623ZM25.1443 24.1022L25.1213 24.1995L25.1213 24.1995L25.1443 24.1022ZM25.9177 24.109L25.9391 24.2067L25.9402 24.2065L25.9177 24.109ZM26.9255 23.4655L27.0045 23.5268L27.0045 23.5268L26.9255 23.4655ZM27.2995 22.3297H27.1995L27.1996 22.332L27.2995 22.3297ZM27.2995 21.3014L27.1995 21.301V21.3014H27.2995ZM27.9568 19.0592L27.8723 19.0056L27.8723 19.0056L27.9568 19.0592ZM29.7058 17.5104L29.6641 17.4195L29.6628 17.4201L29.7058 17.5104ZM31.2195 16.4498L31.2906 16.5201L31.408 16.4013L31.2478 16.3539L31.2195 16.4498ZM19.6003 6.99964L19.6003 6.89964H19.6003V6.99964ZM20.5896 7.4098L20.6603 7.33909L20.6603 7.33907L20.5896 7.4098ZM20.9997 9.79945H20.8997V9.89945H20.9997V9.79945ZM22.4001 9.79945L22.4001 9.69945H22.4001V9.79945ZM23.3904 10.2096L23.4611 10.1389L23.4611 10.1389L23.3904 10.2096ZM23.7995 12.6002L23.8995 12.6003V12.6002H23.7995ZM23.3904 13.5895L23.4611 13.6602L23.4611 13.6602L23.3904 13.5895ZM22.4001 13.9996V14.0996H22.4001L22.4001 13.9996ZM20.9997 13.9996V13.8996H20.8997V13.9996H20.9997ZM20.9997 15.4L21.0997 15.4001V15.4H20.9997ZM20.5896 16.3893L20.6603 16.46L20.6603 16.46L20.5896 16.3893ZM19.6003 16.7994V16.8994H19.6003L19.6003 16.7994ZM18.1999 16.7994L18.1999 16.8994H18.1999V16.7994ZM17.2097 16.3893L17.139 16.46L17.139 16.46L17.2097 16.3893ZM16.7995 15.4H16.6995V15.4001L16.7995 15.4ZM16.7995 13.9996H16.8995V13.8996H16.7995V13.9996ZM14.4099 13.5895L14.3392 13.6602L14.3392 13.6602L14.4099 13.5895ZM13.9997 12.6002H13.8997V12.6003L13.9997 12.6002ZM14.4099 10.2096L14.3392 10.1389L14.3392 10.1389L14.4099 10.2096ZM16.7995 9.79945V9.89945H16.8995V9.79945H16.7995ZM17.2097 7.4098L17.139 7.33909L17.139 7.3391L17.2097 7.4098ZM18.1999 6.99964V6.89964H18.1999L18.1999 6.99964ZM18.1999 8.40003V8.30003H18.0999V8.40003H18.1999ZM18.1999 10.15L18.2999 10.1501V10.15H18.1999ZM17.8923 10.8922L17.963 10.9629L17.963 10.9629L17.8923 10.8922ZM17.1501 11.1998V11.2998H17.1501L17.1501 11.1998ZM15.4001 11.1998V11.0998H15.3001V11.1998H15.4001ZM15.4001 12.6002H15.3001V12.7002H15.4001V12.6002ZM17.1501 12.6002L17.1501 12.5002H17.1501V12.6002ZM17.8923 12.9069L17.963 12.8362L17.963 12.8361L17.8923 12.9069ZM18.1999 15.4H18.0999V15.5H18.1999V15.4ZM19.6003 15.4V15.5H19.7003V15.4H19.6003ZM19.9079 12.9069L19.8373 12.8361L19.8372 12.8362L19.9079 12.9069ZM22.4001 12.6002V12.7002H22.5001V12.6002H22.4001ZM22.4001 11.1998H22.5001V11.0998H22.4001V11.1998ZM20.6501 11.1998V11.2998V11.1998ZM19.9079 10.8922L19.8372 10.9629L19.8372 10.9629L19.9079 10.8922ZM19.6003 10.15H19.5003V10.1501L19.6003 10.15ZM19.6003 8.40003H19.7003V8.30003H19.6003V8.40003ZM33.6003 1.40003L33.6003 1.30003H33.6003V1.40003ZM26.6003 8.40003L26.5003 8.40003V8.40003H26.6003ZM33.6003 15.4V15.5H33.6004L33.6003 15.4ZM40.6003 8.40003L40.7003 8.40014V8.40003L40.6003 8.40003ZM36.3015 4.90687L36.2874 4.80787L36.2874 4.80787L36.3015 4.90687ZM36.8201 5.03968L36.8801 4.95968L36.88 4.95968L36.8201 5.03968ZM37.0935 5.50062L37.1925 5.4865L37.1925 5.48648L37.0935 5.50062ZM36.9607 6.01917L37.0407 6.07917L37.0407 6.07912L36.9607 6.01917ZM32.7605 11.6198L32.8405 11.6798L32.8405 11.6798L32.7605 11.6198ZM32.5134 11.8258L32.5581 11.9153L32.5581 11.9153L32.5134 11.8258ZM32.1999 11.8991L32.1999 11.9991H32.1999V11.8991ZM30.3054 10.2946L30.2335 10.364L30.2347 10.3653L30.3054 10.2946ZM30.1091 9.80238L30.0091 9.80151L30.0091 9.80157L30.1091 9.80238ZM30.3142 9.31312L30.2435 9.24239L30.2435 9.24241L30.3142 9.31312ZM30.8025 9.10804L30.8016 9.00805H30.8016L30.8025 9.10804ZM31.2956 9.30433L31.3664 9.23365L31.3651 9.2324L31.2956 9.30433ZM32.1247 10.1344L32.054 10.2051L32.1355 10.2867L32.2047 10.1944L32.1247 10.1344ZM35.8406 5.17933L35.7606 5.1193L35.7606 5.11934L35.8406 5.17933ZM14.2058 0.99476L14.2258 1.09274C19.7339 -0.0311411 23.9148 -0.610745 28.6972 1.65253L28.74 1.56214L28.7828 1.47175C23.9361 -0.821934 19.6969 -0.227705 14.1858 0.896779L14.2058 0.99476ZM28.74 1.56214L28.7979 1.64367C29.7121 0.994301 30.7483 0.536854 31.8441 0.299525L31.823 0.201791L31.8018 0.104057C30.6794 0.347119 29.6183 0.815609 28.6821 1.48062L28.74 1.56214ZM31.823 0.201791L31.8441 0.299525C32.94 0.0621957 34.0732 0.0498863 35.1741 0.262861L35.1931 0.164682L35.2121 0.0665019C34.0846 -0.151605 32.9242 -0.139005 31.8018 0.104057L31.823 0.201791ZM35.1931 0.164682L35.1741 0.26286C36.2749 0.475869 37.3211 0.90966 38.2493 1.53849L38.3054 1.4557L38.3615 1.37291C37.4109 0.728891 36.3394 0.284643 35.2121 0.066503L35.1931 0.164682ZM38.3054 1.4557L38.2493 1.53849C39.1776 2.1674 39.9688 2.97842 40.5748 3.92185L40.6589 3.86781L40.7431 3.81376C40.1224 2.84759 39.3122 2.01701 38.3615 1.37291L38.3054 1.4557ZM40.6589 3.86781L40.5748 3.92185C41.1807 4.86524 41.5892 5.92222 41.7751 7.02795L41.8738 7.01136L41.9724 6.99478C41.7819 5.86239 41.3636 4.77992 40.7431 3.81376L40.6589 3.86781ZM41.8738 7.01136L41.7751 7.02794C41.961 8.13356 41.9205 9.26536 41.6565 10.355L41.7536 10.3785L41.8508 10.4021C42.1212 9.28621 42.1628 8.1271 41.9724 6.99478L41.8738 7.01136ZM41.7536 10.3785L41.6565 10.355C41.3924 11.4447 40.9104 12.4696 40.239 13.3675L40.3191 13.4274L40.3992 13.4873C41.0868 12.5676 41.5804 11.518 41.8508 10.4021L41.7536 10.3785ZM40.3191 13.4274L40.239 13.3675C39.5675 14.2655 38.7201 15.0187 37.7495 15.5801L37.7995 15.6666L37.8496 15.7532C38.8437 15.1783 39.7114 14.4069 40.3992 13.4873L40.3191 13.4274ZM37.7995 15.6666L37.6996 15.6678C37.7342 18.591 36.8977 20.4819 35.8671 22.0638C35.3494 22.8585 34.7854 23.5715 34.251 24.306C33.7184 25.038 33.219 25.7866 32.8428 26.64L32.9343 26.6803L33.0258 26.7206C33.3933 25.887 33.8827 25.1521 34.4127 24.4237C34.9409 23.6977 35.5133 22.9732 36.0347 22.173C37.0823 20.5649 37.9347 18.6359 37.8995 15.6655L37.7995 15.6666ZM32.9343 26.6803L32.8426 26.6403C31.9937 28.588 31.6768 30.7264 31.9248 32.8365L32.0242 32.8248L32.1235 32.8132C31.8795 30.7382 32.1912 28.6355 33.026 26.7203L32.9343 26.6803ZM32.0242 32.8248L31.9249 32.8369C32.21 35.1846 32.7421 37.8482 34.0548 39.8456L34.1384 39.7907L34.222 39.7357C32.9364 37.7797 32.4081 35.1563 32.1234 32.8128L32.0242 32.8248ZM34.1384 39.7907L34.0545 39.8451C34.1827 40.0425 34.256 40.2709 34.266 40.5059L34.366 40.5016L34.4659 40.4973C34.4543 40.2265 34.3698 39.9634 34.2223 39.7362L34.1384 39.7907ZM34.366 40.5016L34.266 40.5058C34.276 40.7408 34.2226 40.9745 34.1117 41.182L34.1999 41.2291L34.2881 41.2762C34.4158 41.0373 34.4774 40.7682 34.4659 40.4973L34.366 40.5016ZM34.1999 41.2291L34.1117 41.182C34.0009 41.3895 33.8362 41.5633 33.6352 41.6857L33.6872 41.7711L33.7393 41.8565C33.9707 41.7156 34.1604 41.5154 34.2881 41.2763L34.1999 41.2291ZM33.6872 41.7711L33.6352 41.6857C33.4341 41.8082 33.2034 41.875 32.9681 41.8782L32.9695 41.9782L32.9708 42.0781C33.2421 42.0745 33.5077 41.9975 33.7392 41.8565L33.6872 41.7711ZM32.9695 41.9782V41.8782H17.1394V41.9782V42.0782H32.9695V41.9782ZM17.1394 41.9782L17.1379 41.8782C16.863 41.8823 16.5939 41.7972 16.3707 41.6363L16.3122 41.7174L16.2538 41.7985C16.5117 41.9845 16.8227 42.0829 17.1409 42.0781L17.1394 41.9782ZM16.3122 41.7174L16.3707 41.6363C16.1475 41.4753 15.9817 41.2464 15.8988 40.9841L15.8035 41.0143L15.7081 41.0444C15.804 41.3479 15.9957 41.6125 16.2537 41.7985L16.3122 41.7174ZM15.8035 41.0143L15.899 40.9849C15.7728 40.5745 15.4814 39.7084 15.028 38.83C14.5764 37.955 13.956 37.0515 13.1648 36.5844L13.114 36.6705L13.0632 36.7567C13.8039 37.194 14.4028 38.0548 14.8503 38.9218C15.296 39.7853 15.5834 40.6389 15.7079 41.0437L15.8035 41.0143ZM13.114 36.6705L13.0801 36.5765C11.1526 37.2718 9.18798 37.8604 7.19602 38.3409L7.21947 38.4381L7.24291 38.5353C9.24193 38.0532 11.2136 37.4625 13.1479 36.7646L13.114 36.6705ZM7.21947 38.4381L7.19829 38.3404C6.57601 38.4752 5.92585 38.3667 5.38172 38.0362L5.32982 38.1217L5.27791 38.2072C5.86592 38.5643 6.56841 38.6815 7.24064 38.5359L7.21947 38.4381ZM5.32982 38.1217L5.38174 38.0363C4.83742 37.7056 4.44009 37.1778 4.27299 36.5632L4.1765 36.5895L4.08 36.6157C4.26055 37.2798 4.68981 37.8499 5.27789 38.2072L5.32982 38.1217ZM4.1765 36.5895L4.27093 36.5566C3.95583 35.6519 3.98431 35.0114 4.06988 34.5168C4.09144 34.3922 4.11672 34.2763 4.14158 34.1664C4.16624 34.0572 4.19092 33.952 4.21013 33.8528C4.24849 33.6548 4.26846 33.4653 4.2217 33.2799L4.12474 33.3043L4.02778 33.3288C4.06344 33.4702 4.05072 33.6241 4.01378 33.8148C3.99534 33.91 3.97172 34.0106 3.9465 34.1223C3.92146 34.2331 3.89526 34.353 3.8728 34.4828C3.78231 35.0058 3.75425 35.6812 4.08206 36.6224L4.1765 36.5895ZM4.12474 33.3043L4.22174 33.28C4.16758 33.0638 3.97774 32.9182 3.77266 32.7909C3.55475 32.6555 3.31266 32.5359 3.06768 32.3607L3.00951 32.442L2.95133 32.5234C3.20055 32.7016 3.47268 32.84 3.66713 32.9607C3.87443 33.0895 3.9951 33.1983 4.02774 33.3286L4.12474 33.3043ZM3.00951 32.442L3.07512 32.3666C2.85546 32.1756 2.71623 31.9082 2.68409 31.6185L2.5847 31.6295L2.48531 31.6406C2.52294 31.9798 2.686 32.2933 2.94389 32.5175L3.00951 32.442ZM2.5847 31.6295L2.68409 31.6185C2.652 31.329 2.72998 31.0376 2.90256 30.803L2.82201 30.7438L2.74145 30.6845C2.53908 30.9596 2.4477 31.3012 2.48531 31.6405L2.5847 31.6295ZM2.82201 30.7438L2.88303 30.6646C2.63754 30.4755 2.43745 30.3229 2.283 30.1788C2.12903 30.0351 2.02871 29.907 1.97654 29.7708C1.87436 29.504 1.94182 29.1628 2.29884 28.5271L2.21165 28.4782L2.12446 28.4292C1.76679 29.0661 1.65187 29.4822 1.78977 29.8423C1.85764 30.0195 1.98296 30.1723 2.14653 30.325C2.3096 30.4772 2.51892 30.6365 2.76098 30.823L2.82201 30.7438ZM2.21165 28.4782L2.2895 28.5409C2.59782 28.1585 2.74202 27.67 2.69398 27.1822L2.59447 27.192L2.49495 27.2018C2.53789 27.6378 2.40895 28.0741 2.1338 28.4154L2.21165 28.4782ZM2.59447 27.192L2.69268 27.1732C2.68103 27.1123 2.64578 27.0594 2.60583 27.0152C2.56502 26.9701 2.51236 26.9264 2.4537 26.8844C2.33646 26.8003 2.18272 26.7139 2.02028 26.6274C1.68885 26.451 1.32089 26.2733 1.08195 26.0952L1.0222 26.1754L0.962455 26.2556C1.21747 26.4456 1.6086 26.6348 1.92629 26.804C2.08841 26.8903 2.23174 26.9713 2.33718 27.0469C2.38987 27.0847 2.42996 27.1189 2.45745 27.1493C2.48579 27.1807 2.49438 27.201 2.49625 27.2108L2.59447 27.192ZM1.0222 26.1754L1.08185 26.0952C0.476818 25.6455 0.140149 25.253 0.100705 24.7834C0.0608798 24.3092 0.320344 23.7195 1.01849 22.8677L0.941146 22.8043L0.863807 22.7409C0.162017 23.5971 -0.145516 24.2414 -0.0985932 24.8001C-0.0512888 25.3633 0.352535 25.8024 0.962554 26.2557L1.0222 26.1754ZM0.941146 22.8043L1.02033 22.8654C2.28069 21.2313 3.34761 19.4564 4.20018 17.5771L4.10911 17.5358L4.01805 17.4945C3.17184 19.3598 2.11289 21.1214 0.861962 22.7433L0.941146 22.8043ZM4.10911 17.5358L4.20911 17.5363C4.20998 17.3635 4.09562 17.205 3.96082 17.0598C3.82382 16.9122 3.63497 16.7481 3.45357 16.5746C3.08152 16.2186 2.7081 15.7939 2.62607 15.2208L2.52708 15.235L2.42809 15.2492C2.52038 15.894 2.93928 16.3593 3.31531 16.7191C3.50796 16.9034 3.6821 17.0535 3.81425 17.1959C3.9486 17.3406 4.00955 17.4477 4.00912 17.5353L4.10911 17.5358ZM2.52708 15.235L2.62607 15.2208C2.55301 14.7107 2.75669 14.1608 3.04046 13.5166C3.32056 12.8807 3.67354 12.1628 3.85898 11.346L3.76146 11.3239L3.66394 11.3017C3.48391 12.0947 3.14201 12.7899 2.85743 13.436C2.57654 14.0736 2.34577 14.6744 2.42809 15.2492L2.52708 15.235ZM3.76146 11.3239L3.85943 11.3439C4.02183 10.5492 4.23533 9.76506 4.49862 8.99793L4.40404 8.96546L4.30945 8.933C4.04335 9.70831 3.8276 10.5008 3.66348 11.3038L3.76146 11.3239ZM4.40404 8.96546L4.49802 8.99962C5.11123 7.31218 6.05915 5.76565 7.28473 4.45365L7.21165 4.38538L7.13858 4.31712C5.89459 5.64883 4.93245 7.21856 4.31005 8.93131L4.40404 8.96546ZM7.21165 4.38538L7.28442 4.45397C8.82427 2.82027 11.0878 1.72034 14.2254 1.09282L14.2058 0.99476L14.1862 0.896702C11.0242 1.52909 8.71682 2.64268 7.13888 4.3168L7.21165 4.38538ZM27.571 2.5641L27.6101 2.47206C23.2912 0.63662 19.3224 1.27786 14.4612 2.26885L14.4812 2.36683L14.5012 2.46481C19.364 1.47349 23.276 0.847471 27.5319 2.65613L27.571 2.5641ZM14.4812 2.36683L14.4616 2.26876C11.6351 2.83239 9.50951 3.84159 8.15645 5.27775L8.22923 5.34632L8.30202 5.4149C9.61596 4.02026 11.6965 3.02407 14.5007 2.4649L14.4812 2.36683ZM8.22923 5.34632L8.15614 5.27808C7.04103 6.47239 6.17878 7.8797 5.62155 9.41574L5.71556 9.44984L5.80957 9.48394C6.35759 7.97327 7.2056 6.58918 8.30232 5.41457L8.22923 5.34632ZM5.71556 9.44984L5.6207 9.41819C5.36135 10.1954 5.15 10.9882 4.98766 11.7914L5.08568 11.8112L5.18369 11.831C5.34442 11.0359 5.55367 10.251 5.81042 9.48149L5.71556 9.44984ZM5.08568 11.8112L4.99014 11.7816C4.702 12.713 4.34865 13.6231 3.93273 14.5048L4.02318 14.5475L4.11362 14.5902C4.53355 13.6999 4.89029 12.781 5.18121 11.8407L5.08568 11.8112ZM4.02318 14.5475L3.92953 14.5124C3.84451 14.7394 3.76538 14.9181 3.82908 15.1208C3.86035 15.2203 3.92314 15.3188 4.01808 15.4306C4.1132 15.5426 4.24571 15.6737 4.42306 15.8377L4.49095 15.7643L4.55885 15.6909C4.3827 15.528 4.2575 15.4036 4.17053 15.3011C4.08337 15.1985 4.03967 15.1238 4.01988 15.0608C3.98148 14.9386 4.02195 14.8358 4.11682 14.5826L4.02318 14.5475ZM4.49095 15.7643L4.43279 15.8456C4.70431 16.0398 4.93173 16.2891 5.09989 16.5774L5.18626 16.527L5.27264 16.4766C5.09023 16.1639 4.84356 15.8935 4.54911 15.6829L4.49095 15.7643ZM5.18626 16.527L5.09987 16.5774C5.2681 16.8659 5.37386 17.1871 5.40909 17.519L5.50853 17.5084L5.60797 17.4979C5.56974 17.1377 5.45501 16.7894 5.27265 16.4766L5.18626 16.527ZM5.50853 17.5084L5.40857 17.5056C5.39946 17.8242 5.31083 18.1358 5.1506 18.4113L5.23704 18.4616L5.32348 18.5118C5.50054 18.2074 5.59842 17.8632 5.60849 17.5113L5.50853 17.5084ZM5.23704 18.4616L5.14654 18.419C4.28186 20.2589 3.21484 21.9966 1.9667 23.6013L2.04564 23.6627L2.12457 23.7241C3.38175 22.1078 4.45654 20.3574 5.32755 18.5041L5.23704 18.4616ZM2.04564 23.6627L1.96821 23.5994C1.70047 23.927 1.53563 24.1589 1.43722 24.3243C1.34131 24.4856 1.30016 24.5971 1.30013 24.6793L1.40013 24.6793L1.50013 24.6794C1.50014 24.6552 1.51544 24.5841 1.60912 24.4266C1.70031 24.2733 1.85821 24.05 2.12306 23.726L2.04564 23.6627ZM1.40013 24.6793L1.3308 24.7514C1.4638 24.8793 1.60735 24.9967 1.75941 25.1015L1.81615 25.0192L1.87289 24.9368C1.72985 24.8383 1.59471 24.7278 1.46946 24.6073L1.40013 24.6793ZM1.81615 25.0192L1.75647 25.0994C1.90935 25.2131 2.11083 25.3187 2.32137 25.4277C2.53476 25.5383 2.76134 25.6542 2.97627 25.7917C3.40614 26.0668 3.77191 26.4172 3.87216 26.9507L3.97044 26.9323L4.06872 26.9138C3.95343 26.3003 3.53232 25.9101 3.08406 25.6233C2.85993 25.4799 2.62464 25.3596 2.41335 25.2501C2.19921 25.1392 2.01321 25.0411 1.87582 24.9389L1.81615 25.0192ZM3.97044 26.9323L3.87124 26.9449C3.97746 27.7807 3.75192 28.6249 3.24326 29.2967L3.32298 29.3571L3.40271 29.4174C3.94291 28.704 4.18246 27.8074 4.06964 26.9197L3.97044 26.9323ZM3.32298 29.3571L3.26062 29.4352C3.47722 29.608 3.65321 29.7406 3.79542 29.8478C3.93863 29.9557 4.04466 30.0359 4.12538 30.1064C4.20548 30.1763 4.2552 30.2322 4.28839 30.2892C4.32095 30.3452 4.34102 30.4082 4.35275 30.4971L4.45189 30.484L4.55103 30.4709C4.53686 30.3635 4.51057 30.2734 4.46125 30.1886C4.41256 30.105 4.34485 30.0325 4.25692 29.9557C4.16959 29.8795 4.05697 29.7945 3.91582 29.6881C3.77367 29.5809 3.5996 29.4498 3.38534 29.2789L3.32298 29.3571ZM4.45189 30.484L4.35273 30.497C4.37584 30.6741 4.33386 30.7816 4.25879 30.9009C4.18423 31.0193 4.05559 31.1745 3.94951 31.3971L4.03978 31.4401L4.13005 31.4831C4.23043 31.2725 4.33473 31.1556 4.42805 31.0074C4.52087 30.86 4.5817 30.706 4.55105 30.4711L4.45189 30.484ZM4.03978 31.4401L3.98915 31.5263C4.65401 31.9166 5.18908 32.2135 5.38325 32.9831L5.48021 32.9586L5.57717 32.9342C5.35963 32.072 4.74402 31.7375 4.0904 31.3538L4.03978 31.4401ZM5.48021 32.9586L5.38323 32.983C5.53704 33.5949 5.41356 33.9763 5.30928 34.4186C5.203 34.8693 5.12436 35.3625 5.40238 36.1605L5.49681 36.1276L5.59124 36.0947C5.32956 35.3436 5.40327 34.8914 5.50394 34.4645C5.60661 34.029 5.74468 33.6005 5.57719 32.9342L5.48021 32.9586ZM5.49681 36.1276L5.39937 36.1501C5.47708 36.4866 5.6823 36.7802 5.97141 36.9691L6.02611 36.8854L6.0808 36.8017C5.83485 36.641 5.66032 36.3912 5.59425 36.1051L5.49681 36.1276ZM6.02611 36.8854L5.97142 36.9691C6.26061 37.158 6.61162 37.2274 6.9509 37.1633L6.93236 37.0651L6.91382 36.9668C6.62515 37.0213 6.32663 36.9622 6.08079 36.8017L6.02611 36.8854ZM6.93236 37.0651L6.95254 37.163C8.29762 36.8858 10.2394 36.27 11.992 35.6772C13.7499 35.0827 15.3132 34.513 15.9176 34.3215L15.8874 34.2262L15.8572 34.1309C15.252 34.3226 13.6761 34.8965 11.928 35.4878C10.1745 36.0808 8.24361 36.6928 6.91217 36.9671L6.93236 37.0651ZM15.8874 34.2262L15.9177 34.3215C17.3725 33.8601 18.259 33.3619 18.7809 32.88C19.3058 32.3954 19.4634 31.9256 19.4542 31.5325L19.3542 31.5348L19.2543 31.5371C19.2619 31.865 19.134 32.2817 18.6453 32.733C18.1536 33.1869 17.2982 33.6739 15.8572 34.1309L15.8874 34.2262ZM19.3542 31.5348L19.4542 31.5325C19.4506 31.3736 19.5102 31.2199 19.62 31.1048L19.5476 31.0358L19.4752 30.9668C19.329 31.1201 19.2494 31.3251 19.2543 31.5371L19.3542 31.5348ZM19.5476 31.0358L19.6199 31.1048C19.7299 30.9896 19.8811 30.9227 20.0402 30.919L20.0378 30.819L20.0355 30.719C19.8233 30.724 19.6217 30.8132 19.4752 30.9667L19.5476 31.0358ZM20.0378 30.819L20.0402 30.919C20.1993 30.9152 20.3537 30.9749 20.4688 31.0847L20.5378 31.0123L20.6069 30.94C20.4533 30.7935 20.2476 30.714 20.0355 30.719L20.0378 30.819ZM20.5378 31.0123L20.4688 31.0847C20.5839 31.1946 20.6509 31.346 20.6546 31.5049L20.7546 31.5026L20.8546 31.5002C20.8496 31.2881 20.7602 31.0864 20.6069 30.94L20.5378 31.0123ZM20.7546 31.5026L20.6546 31.5049C20.6744 32.3464 20.3266 33.0978 19.602 33.7593C18.8747 34.4233 17.7689 34.9951 16.281 35.4668L16.3113 35.5621L16.3415 35.6575C17.8431 35.1814 18.9796 34.5984 19.7369 33.907C20.4969 33.2131 20.8759 32.4086 20.8546 31.5002L20.7546 31.5026ZM16.3113 35.5621L16.2807 35.4669C16.0804 35.5311 14.834 35.9679 14.6465 36.0331L14.6794 36.1276L14.7123 36.222C14.9029 36.1557 16.1446 35.7206 16.3418 35.6574L16.3113 35.5621ZM14.6794 36.1276L14.6056 36.195C15.7569 37.4554 16.5924 38.9716 17.0439 40.6179L17.1404 40.5914L17.2368 40.565C16.7769 38.8882 15.9259 37.3439 14.7533 36.0601L14.6794 36.1276ZM17.1404 40.5914V40.6914H32.9695V40.5914V40.4914H17.1404V40.5914ZM32.9695 40.5914L33.0602 40.5495C32.966 40.3455 32.8091 40.0945 32.6277 39.7685C32.4438 39.438 32.2264 39.017 32.0002 38.4552C31.5478 37.3315 31.0586 35.6403 30.7357 32.9808L30.6365 32.9928L30.5372 33.0049C30.8618 35.6785 31.3546 37.3872 31.8147 38.5299C32.0447 39.1013 32.2661 39.53 32.453 39.8658C32.6424 40.2062 32.7885 40.438 32.8787 40.6334L32.9695 40.5914ZM30.6365 32.9928L30.7358 32.9812C30.4632 30.658 30.8126 28.3038 31.7477 26.1597L31.656 26.1198L31.5643 26.0798C30.6151 28.2563 30.2604 30.6462 30.5371 33.0045L30.6365 32.9928ZM31.656 26.1198L31.7475 26.16C32.5045 24.4378 33.6301 23.2106 34.6109 21.7808C35.5888 20.3552 36.4011 18.7523 36.4903 16.3178L36.3904 16.3141L36.2904 16.3104C36.2031 18.6956 35.4101 20.2622 34.446 21.6677C33.4847 23.0691 32.3313 24.3348 31.5644 26.0795L31.656 26.1198ZM36.3904 16.3141L36.3566 16.22C35.2112 16.6312 33.9882 16.781 32.7774 16.6589L32.7673 16.7584L32.7573 16.8579C33.9977 16.983 35.2507 16.8295 36.4242 16.4082L36.3904 16.3141ZM32.7673 16.7584L32.6855 16.7009C32.0749 17.5687 31.2397 18.2541 30.2697 18.6846L30.3103 18.776L30.3509 18.8674C31.3538 18.4223 32.2176 17.7135 32.8491 16.816L32.7673 16.7584ZM30.3103 18.776L30.2675 18.6856C29.7716 18.9203 29.3519 19.291 29.057 19.7535L29.1413 19.8073L29.2257 19.861C29.5004 19.4302 29.8913 19.085 30.3531 18.8664L30.3103 18.776ZM29.1413 19.8073L29.057 19.7535C28.7622 20.216 28.6036 20.7522 28.5999 21.3007L28.6999 21.3014L28.7999 21.3021C28.8033 20.7913 28.951 20.2918 29.2257 19.861L29.1413 19.8073ZM28.6999 21.3014H28.5999V22.3297H28.6999H28.7999V21.3014H28.6999ZM28.6999 22.3297L28.5999 22.3308C28.6089 23.1397 28.2965 23.9198 27.731 24.4981L27.8025 24.568L27.874 24.6379C28.4766 24.0216 28.8095 23.1904 28.7999 22.3286L28.6999 22.3297ZM27.8025 24.568L27.731 24.4981C27.1654 25.0764 26.3925 25.4063 25.5836 25.4153L25.5847 25.5153L25.5858 25.6153C26.4477 25.6057 27.2712 25.2542 27.874 24.6379L27.8025 24.568ZM25.5847 25.5153L25.5836 25.4153C24.7748 25.4242 23.9957 25.111 23.4173 24.5453L23.3474 24.6168L23.2775 24.6883C23.8937 25.291 24.7239 25.6248 25.5858 25.6153L25.5847 25.5153ZM23.3474 24.6168L23.4173 24.5453C22.8391 23.9797 22.5091 23.2077 22.5001 22.3989L22.4001 22.4L22.3001 22.4011C22.3097 23.263 22.6613 24.0856 23.2775 24.6883L23.3474 24.6168ZM22.4001 22.4L22.5001 22.3998C22.4985 21.8157 22.2651 21.2562 21.8516 20.8439L21.781 20.9147L21.7104 20.9855C22.0865 21.3605 22.2987 21.8693 22.3001 22.4003L22.4001 22.4ZM21.781 20.9147L21.8516 20.8439C21.4378 20.4314 20.8768 20.2 20.2926 20.2004L20.2927 20.3004L20.2928 20.4004C20.824 20.4001 21.3342 20.6105 21.7104 20.9855L21.781 20.9147ZM20.2927 20.3004V20.2004C17.3691 20.2004 14.2373 20.012 11.8389 19.0939C10.6411 18.6354 9.6323 17.9971 8.92305 17.1151C8.21502 16.2345 7.79993 15.1042 7.79993 13.65H7.69993H7.59994C7.59994 15.1453 8.02789 16.321 8.76719 17.2404C9.50525 18.1583 10.5481 18.8139 11.7674 19.2807C14.2032 20.2131 17.3678 20.4004 20.2927 20.4004L20.2927 20.3004ZM7.69993 13.65L7.79993 13.65C7.8 10.4018 10.1083 7.22595 13.5509 5.34528C16.9899 3.46657 21.5454 2.89068 26.0117 4.83062L26.0515 4.7389L26.0913 4.64718C21.5634 2.68045 16.9432 3.2642 13.455 5.16976C9.97041 7.07337 7.60001 10.3064 7.59994 13.65L7.69993 13.65ZM26.0515 4.7389L26.1415 4.78259C26.5256 3.99166 27.0323 3.26616 27.643 2.63355L27.571 2.5641L27.4991 2.49465C26.8738 3.14245 26.3549 3.88534 25.9615 4.69522L26.0515 4.7389ZM25.5417 6.04554L25.5819 5.95398C21.5088 4.16596 17.3665 4.65538 14.2423 6.30555C11.1223 7.9535 9.0004 10.7703 9.00033 13.65L9.10033 13.65L9.20033 13.65C9.2004 10.8689 11.2564 8.10886 14.3357 6.4824C17.4108 4.85817 21.4891 4.37573 25.5015 6.13711L25.5417 6.04554ZM9.10033 13.65H9.00033C9.00033 14.8843 9.40101 15.8421 10.0838 16.5806C10.7644 17.3167 11.7197 17.8289 12.8206 18.1856C15.0204 18.8984 17.8332 19 20.2927 19L20.2927 18.9V18.8C17.8319 18.8 15.0485 18.6972 12.8822 17.9953C11.8001 17.6447 10.8798 17.1469 10.2306 16.4448C9.58366 15.7451 9.20033 14.8364 9.20033 13.65H9.10033ZM20.2927 18.9L20.2927 19C21.195 19.0002 22.0609 19.3588 22.6996 19.9962L22.7702 19.9254L22.8409 19.8546C22.1647 19.1798 21.2481 18.8002 20.2927 18.8L20.2927 18.9ZM22.7702 19.9254L22.6996 19.9962C23.3381 20.6336 23.6975 21.4981 23.6995 22.4003L23.7995 22.4L23.8995 22.3998C23.8974 21.4447 23.5169 20.5294 22.8409 19.8547L22.7702 19.9254ZM23.7995 22.4L23.6995 22.3998C23.6989 22.6759 23.7604 22.9488 23.8792 23.1979L23.9695 23.1549L24.0597 23.1119C23.9538 22.8897 23.899 22.6463 23.8995 22.4003L23.7995 22.4ZM23.9695 23.1549L23.8792 23.1979C23.998 23.4471 24.1713 23.6668 24.3862 23.8402L24.449 23.7623L24.5118 23.6845C24.3202 23.5299 24.1657 23.3341 24.0597 23.1119L23.9695 23.1549ZM24.449 23.7623L24.3862 23.8402C24.6011 24.0136 24.8528 24.1361 25.1213 24.1995L25.1443 24.1022L25.1673 24.0049C24.9276 23.9482 24.7032 23.839 24.5118 23.6845L24.449 23.7623ZM25.1443 24.1022L25.1213 24.1995C25.3898 24.2629 25.6694 24.2656 25.939 24.2067L25.9177 24.109L25.8964 24.0113C25.6561 24.0638 25.4068 24.0614 25.1672 24.0049L25.1443 24.1022ZM25.9177 24.109L25.9402 24.2065C26.3624 24.1092 26.7386 23.869 27.0045 23.5268L26.9255 23.4655L26.8466 23.4041C26.6089 23.7099 26.2727 23.9246 25.8953 24.0116L25.9177 24.109ZM26.9255 23.4655L27.0045 23.5268C27.2704 23.1845 27.4095 22.7605 27.3995 22.3274L27.2995 22.3297L27.1996 22.332C27.2085 22.7194 27.0841 23.0984 26.8466 23.4041L26.9255 23.4655ZM27.2995 22.3297H27.3995V21.3014H27.2995H27.1995V22.3297H27.2995ZM27.2995 21.3014L27.3995 21.3018C27.4029 20.5264 27.6257 19.7676 28.0412 19.1128L27.9568 19.0592L27.8723 19.0056C27.4367 19.6922 27.2031 20.4878 27.1995 21.301L27.2995 21.3014ZM27.9568 19.0592L28.0412 19.1128C28.4567 18.458 29.0486 17.9339 29.7488 17.6007L29.7058 17.5104L29.6628 17.4201C28.9286 17.7695 28.308 18.3191 27.8723 19.0056L27.9568 19.0592ZM29.7058 17.5104L29.7475 17.6013C30.3231 17.3373 30.8456 16.9704 31.2906 16.5201L31.2195 16.4498L31.1483 16.3795C30.7202 16.8128 30.2176 17.1656 29.6641 17.4195L29.7058 17.5104ZM31.2195 16.4498L31.2478 16.3539C26.8644 15.059 24.3549 10.4606 25.6377 6.07361L25.5417 6.04554L25.4458 6.01748C24.132 10.5102 26.7021 15.2196 31.1911 16.5457L31.2195 16.4498ZM19.6003 6.99964L19.6003 7.09964C19.9448 7.09972 20.2751 7.23687 20.5189 7.48053L20.5896 7.4098L20.6603 7.33907C20.3791 7.05804 19.998 6.89973 19.6003 6.89964L19.6003 6.99964ZM20.5896 7.4098L20.5189 7.48051C20.7627 7.72431 20.8997 8.05525 20.8997 8.40003H20.9997H21.0997C21.0997 8.00221 20.9416 7.62039 20.6603 7.33909L20.5896 7.4098ZM20.9997 8.40003H20.8997V9.79945H20.9997H21.0997V8.40003H20.9997ZM20.9997 9.79945V9.89945H22.4001V9.79945V9.69945H20.9997V9.79945ZM22.4001 9.79945L22.4001 9.89945C22.7449 9.89947 23.0759 10.0365 23.3197 10.2803L23.3904 10.2096L23.4611 10.1389C23.1798 9.85761 22.7979 9.69948 22.4001 9.69945L22.4001 9.79945ZM23.3904 10.2096L23.3196 10.2803C23.5633 10.524 23.6995 10.8549 23.6995 11.1998H23.7995H23.8995C23.8995 10.8022 23.7425 10.4203 23.4611 10.1389L23.3904 10.2096ZM23.7995 11.1998H23.6995V12.6002H23.7995H23.8995V11.1998H23.7995ZM23.7995 12.6002L23.6995 12.6002C23.6994 12.9448 23.5631 13.2752 23.3196 13.5188L23.3904 13.5895L23.4611 13.6602C23.7421 13.3789 23.8994 12.9976 23.8995 12.6003L23.7995 12.6002ZM23.3904 13.5895L23.3197 13.5188C23.0759 13.7625 22.7449 13.8996 22.4001 13.8996L22.4001 13.9996L22.4001 14.0996C22.7979 14.0996 23.1798 13.9415 23.4611 13.6602L23.3904 13.5895ZM22.4001 13.9996V13.8996H20.9997V13.9996V14.0996H22.4001V13.9996ZM20.9997 13.9996H20.8997V15.4H20.9997H21.0997V13.9996H20.9997ZM20.9997 15.4L20.8997 15.4C20.8997 15.7446 20.7626 16.0748 20.5189 16.3186L20.5896 16.3893L20.6603 16.46C20.9415 16.1788 21.0997 15.7978 21.0997 15.4001L20.9997 15.4ZM20.5896 16.3893L20.5189 16.3186C20.2751 16.5623 19.9449 16.6994 19.6003 16.6994L19.6003 16.7994L19.6003 16.8994C19.9981 16.8994 20.3791 16.7412 20.6603 16.46L20.5896 16.3893ZM19.6003 16.7994V16.6994H18.1999V16.7994V16.8994H19.6003V16.7994ZM18.1999 16.7994L18.1999 16.6994C17.8552 16.6994 17.5242 16.5624 17.2804 16.3186L17.2097 16.3893L17.139 16.46C17.4203 16.7413 17.8021 16.8994 18.1999 16.8994L18.1999 16.7994ZM17.2097 16.3893L17.2804 16.3186C17.0369 16.0748 16.8996 15.7444 16.8995 15.4L16.7995 15.4L16.6995 15.4001C16.6996 15.7977 16.8581 16.1788 17.139 16.46L17.2097 16.3893ZM16.7995 15.4H16.8995V13.9996H16.7995H16.6995V15.4H16.7995ZM16.7995 13.9996V13.8996H15.4001V13.9996V14.0996H16.7995V13.9996ZM15.4001 13.9996V13.8996C15.0553 13.8996 14.7244 13.7626 14.4806 13.5188L14.4099 13.5895L14.3392 13.6602C14.6205 13.9415 15.0023 14.0996 15.4001 14.0996V13.9996ZM14.4099 13.5895L14.4806 13.5188C14.237 13.2751 14.0998 12.9447 14.0997 12.6002L13.9997 12.6002L13.8997 12.6003C13.8999 12.9979 14.0582 13.3791 14.3392 13.6602L14.4099 13.5895ZM13.9997 12.6002H14.0997V11.1998H13.9997H13.8997V12.6002H13.9997ZM13.9997 11.1998H14.0997C14.0997 10.8551 14.2368 10.5241 14.4806 10.2803L14.4099 10.2096L14.3392 10.1389C14.0579 10.4202 13.8997 10.802 13.8997 11.1998H13.9997ZM14.4099 10.2096L14.4806 10.2803C14.7244 10.0365 15.0554 9.89945 15.4001 9.89945V9.79945V9.69945C15.0023 9.69945 14.6205 9.85761 14.3392 10.1389L14.4099 10.2096ZM15.4001 9.79945V9.89945H16.7995V9.79945V9.69945H15.4001V9.79945ZM16.7995 9.79945H16.8995V8.40003H16.7995H16.6995V9.79945H16.7995ZM16.7995 8.40003H16.8995C16.8995 8.05534 17.0367 7.72429 17.2804 7.4805L17.2097 7.4098L17.139 7.3391C16.8578 7.62038 16.6995 8.00227 16.6995 8.40003H16.7995ZM17.2097 7.4098L17.2804 7.48051C17.5242 7.23674 17.8552 7.09966 18.1999 7.09964L18.1999 6.99964L18.1999 6.89964C17.8021 6.89967 17.4203 7.0578 17.139 7.33909L17.2097 7.4098ZM18.1999 6.99964V7.09964H19.6003V6.99964V6.89964H18.1999V6.99964ZM18.1999 8.40003H18.0999V10.15H18.1999H18.2999V8.40003H18.1999ZM18.1999 10.15L18.0999 10.15C18.0999 10.4019 17.9997 10.6434 17.8216 10.8215L17.8923 10.8922L17.963 10.9629C18.1786 10.7473 18.2999 10.455 18.2999 10.1501L18.1999 10.15ZM17.8923 10.8922L17.8216 10.8215C17.6434 10.9996 17.402 11.0998 17.1501 11.0998L17.1501 11.1998L17.1501 11.2998C17.4551 11.2998 17.7474 11.1785 17.963 10.9629L17.8923 10.8922ZM17.1501 11.1998V11.0998H15.4001V11.1998V11.2998H17.1501V11.1998ZM15.4001 11.1998H15.3001V12.6002H15.4001H15.5001V11.1998H15.4001ZM15.4001 12.6002V12.7002H17.1501V12.6002V12.5002H15.4001V12.6002ZM17.1501 12.6002L17.1501 12.7002C17.4021 12.7003 17.6436 12.7998 17.8216 12.9776L17.8923 12.9069L17.963 12.8361C17.7473 12.6206 17.4548 12.5003 17.1501 12.5002L17.1501 12.6002ZM17.8923 12.9069L17.8216 12.9776C17.9997 13.1557 18.0999 13.398 18.0999 13.65H18.1999H18.2999C18.2999 13.3451 18.1787 13.0519 17.963 12.8362L17.8923 12.9069ZM18.1999 13.65H18.0999V15.4H18.1999H18.2999V13.65H18.1999ZM18.1999 15.4V15.5H19.6003V15.4V15.3H18.1999V15.4ZM19.6003 15.4H19.7003V13.65H19.6003H19.5003V15.4H19.6003ZM19.6003 13.65H19.7003C19.7003 13.398 19.8005 13.1557 19.9787 12.9776L19.9079 12.9069L19.8372 12.8362C19.6215 13.0519 19.5003 13.3451 19.5003 13.65H19.6003ZM19.9079 12.9069L19.9786 12.9776C20.1566 12.7998 20.3982 12.7002 20.6501 12.7002V12.6002V12.5002C20.3455 12.5002 20.053 12.6206 19.8373 12.8361L19.9079 12.9069ZM20.6501 12.6002V12.7002H22.4001V12.6002V12.5002H20.6501V12.6002ZM22.4001 12.6002H22.5001V11.1998H22.4001H22.3001V12.6002H22.4001ZM22.4001 11.1998V11.0998H20.6501V11.1998V11.2998H22.4001V11.1998ZM20.6501 11.1998V11.0998C20.3983 11.0998 20.1568 10.9996 19.9786 10.8215L19.9079 10.8922L19.8372 10.9629C20.0528 11.1784 20.3451 11.2998 20.6501 11.2998V11.1998ZM19.9079 10.8922L19.9787 10.8215C19.8005 10.6434 19.7004 10.4019 19.7003 10.15L19.6003 10.15L19.5003 10.1501C19.5004 10.455 19.6216 10.7473 19.8372 10.9629L19.9079 10.8922ZM19.6003 10.15H19.7003V8.40003H19.6003H19.5003V10.15H19.6003ZM19.6003 8.40003V8.30003H18.1999V8.40003V8.50003H19.6003V8.40003ZM33.6003 1.40003V1.30003C29.679 1.30003 26.5004 4.47878 26.5003 8.40003L26.6003 8.40003L26.7003 8.40003C26.7004 4.58923 29.7895 1.50003 33.6003 1.50003V1.40003ZM26.6003 8.40003H26.5003C26.5003 12.3214 29.679 15.5 33.6003 15.5V15.4V15.3C29.7895 15.3 26.7003 12.2109 26.7003 8.40003H26.6003ZM33.6003 15.4L33.6004 15.5C37.5194 15.4955 40.6961 12.3191 40.7003 8.40014L40.6003 8.40003L40.5003 8.39992C40.4962 12.2086 37.4089 15.2957 33.6002 15.3L33.6003 15.4ZM40.6003 8.40003L40.7003 8.40003C40.7002 4.47892 37.5214 1.30028 33.6003 1.30003L33.6003 1.40003L33.6003 1.50003C37.4109 1.50027 40.5002 4.58938 40.5003 8.40003L40.6003 8.40003ZM36.3015 4.90687L36.3156 5.00587C36.4731 4.9834 36.6328 5.02427 36.7601 5.11969L36.8201 5.03968L36.88 4.95968C36.7103 4.83242 36.4973 4.77792 36.2874 4.80787L36.3015 4.90687ZM36.8201 5.03968L36.7601 5.11968C36.8875 5.21526 36.972 5.3574 36.9945 5.51476L37.0935 5.50062L37.1925 5.48648C37.1625 5.27626 37.0497 5.08688 36.8801 4.95968L36.8201 5.03968ZM37.0935 5.50062L36.9945 5.51473C37.0169 5.67206 36.9759 5.83199 36.8806 5.95923L36.9607 6.01917L37.0407 6.07912C37.1677 5.90953 37.2224 5.69633 37.1925 5.4865L37.0935 5.50062ZM36.9607 6.01917L36.8807 5.95918L32.6805 11.5598L32.7605 11.6198L32.8405 11.6798L37.0407 6.07917L36.9607 6.01917ZM32.7605 11.6198L32.6805 11.5597C32.6246 11.6342 32.552 11.6947 32.4687 11.7364L32.5134 11.8258L32.5581 11.9153C32.6691 11.8598 32.7659 11.7791 32.8405 11.6798L32.7605 11.6198ZM32.5134 11.8258L32.4687 11.7364C32.3858 11.7778 32.2935 11.7991 32.1999 11.7991V11.8991V11.9991C32.3236 11.9991 32.4467 11.971 32.5581 11.9153L32.5134 11.8258ZM32.1999 11.8991L32.1999 11.7991C32.1088 11.799 32.0548 11.7939 31.9974 11.7703C31.9374 11.7457 31.8656 11.6974 31.7499 11.5942C31.5169 11.3862 31.1425 10.9902 30.3761 10.2239L30.3054 10.2946L30.2347 10.3653C30.9937 11.1243 31.3781 11.5305 31.6168 11.7434C31.7369 11.8506 31.8292 11.9175 31.9214 11.9553C32.0163 11.9943 32.1026 11.999 32.1999 11.9991L32.1999 11.8991ZM30.3054 10.2946L30.3773 10.2251C30.2682 10.1121 30.2078 9.96048 30.2091 9.80319L30.1091 9.80238L30.0091 9.80157C30.0074 10.0111 30.0878 10.2132 30.2335 10.364L30.3054 10.2946ZM30.1091 9.80238L30.2091 9.80325C30.2105 9.6459 30.2737 9.49506 30.3849 9.38383L30.3142 9.31312L30.2435 9.24241C30.0951 9.39075 30.0109 9.59178 30.0091 9.80151L30.1091 9.80238ZM30.3142 9.31312L30.3849 9.38385C30.4961 9.27266 30.6463 9.20948 30.8034 9.20804L30.8025 9.10804L30.8016 9.00805C30.5919 9.00997 30.3917 9.09431 30.2435 9.24239L30.3142 9.31312ZM30.8025 9.10804L30.8033 9.20804C30.9608 9.20667 31.1131 9.26709 31.2262 9.37626L31.2956 9.30433L31.3651 9.2324C31.2141 9.08655 31.0112 9.00622 30.8016 9.00805L30.8025 9.10804ZM31.2956 9.30433L31.2249 9.375L32.054 10.2051L32.1247 10.1344L32.1955 10.0637L31.3664 9.23366L31.2956 9.30433ZM32.1247 10.1344L32.2047 10.1944L35.9206 5.23933L35.8406 5.17933L35.7606 5.11934L32.0447 10.0744L32.1247 10.1344ZM35.8406 5.17933L35.9205 5.23936C36.0159 5.11225 36.1581 5.02838 36.3156 5.00586L36.3015 4.90687L36.2874 4.80787C36.0775 4.83785 35.888 4.9496 35.7606 5.1193L35.8406 5.17933Z" fill="url(#paint1_linear_8273_121)" mask="url(#path-1-outside-1_8273_121)"/>
<defs>
<linearGradient id="paint0_linear_8273_121" x1="40.7363" y1="32.5337" x2="-0.322799" y2="29.4684" gradientUnits="userSpaceOnUse">
<stop offset="0.135487" stop-color="#EA5D39"/>
<stop offset="0.548428" stop-color="#987077"/>
<stop offset="1" stop-color="#4682B4"/>
</linearGradient>
<linearGradient id="paint1_linear_8273_121" x1="40.7363" y1="32.5337" x2="-0.322799" y2="29.4684" gradientUnits="userSpaceOnUse">
<stop offset="0.135487" stop-color="#EA5D39"/>
<stop offset="0.548428" stop-color="#987077"/>
<stop offset="1" stop-color="#4682B4"/>
</linearGradient>
</defs>
</svg>
