<svg width="60" height="60" viewBox="0 0 60 60" fill="none" xmlns="http://www.w3.org/2000/svg">
<rect width="60" height="60" rx="10" fill="url(#paint0_linear_7856_73)" fill-opacity="0.24"/>
<path d="M30.0186 41.7662C30.0186 42.3168 29.5707 42.7649 29.0201 42.7649C28.4708 42.7649 28.0238 42.3168 28.0238 41.7662C28.0238 41.2156 28.4707 40.7676 29.0201 40.7676C29.5707 40.7676 30.0186 41.2156 30.0186 41.7662ZM31.4154 25.2838C31.115 25.6472 30.6244 26.0803 29.9929 26.0803C29.3635 26.0803 28.8733 25.6472 28.573 25.2838C28.3702 25.0383 28.007 25.0039 27.7616 25.2067C27.5163 25.4095 27.4818 25.7727 27.6846 26.0181C28.3415 26.8128 29.1397 27.2329 29.9929 27.2329C30.8356 27.2329 31.6562 26.8014 32.3037 26.0181C32.5065 25.7727 32.472 25.4095 32.2267 25.2067C31.9815 25.004 31.6181 25.0385 31.4154 25.2838ZM23.5347 21.1618C22.5466 21.1618 21.7428 21.9658 21.7428 22.9537C21.7428 23.272 22.0008 23.5301 22.3191 23.5301C22.6374 23.5301 22.8954 23.2721 22.8954 22.9537C22.8954 22.6012 23.1821 22.3145 23.5346 22.3145C23.8871 22.3145 24.1739 22.6012 24.1739 22.9537C24.1739 23.272 24.4319 23.5301 24.7502 23.5301C25.0684 23.5301 25.3264 23.2721 25.3264 22.9537C25.3266 21.9658 24.5228 21.1618 23.5347 21.1618ZM35.8143 22.9537C35.8143 22.6012 36.1011 22.3145 36.4536 22.3145C36.8061 22.3145 37.0928 22.6012 37.0928 22.9537C37.0928 23.272 37.3508 23.5301 37.6691 23.5301C37.9874 23.5301 38.2454 23.2721 38.2454 22.9537C38.2454 21.9657 37.4415 21.1618 36.4535 21.1618C35.4654 21.1618 34.6616 21.9658 34.6616 22.9537C34.6616 23.272 34.9196 23.5301 35.2379 23.5301C35.5562 23.5301 35.8143 23.2721 35.8143 22.9537ZM47.9164 38.6443V44.0993C47.9164 44.1488 47.9101 44.198 47.8975 44.2459C47.0461 47.4849 44.9624 49.6693 41.5276 50.9239C41.4638 50.9472 41.3968 50.9589 41.3299 50.9589C41.2629 50.9589 41.196 50.9471 41.132 50.9239C39.2984 50.2536 37.8503 49.318 36.769 48.0985C34.9841 49.9238 32.5516 50.9589 29.9929 50.9589C24.7581 50.9589 20.4993 46.6999 20.4993 41.4651V34.1844C18.553 32.4871 17.0643 30.2782 16.2435 27.7696C13.9285 27.6444 12.0836 25.7217 12.0836 23.376C12.0836 21.054 13.8918 19.1475 16.174 18.9878C16.6585 17.4237 17.4117 15.947 18.4171 14.6068C20.2437 12.1722 22.8438 10.3413 25.7383 9.4514C27.9219 8.78161 30.165 9.07635 31.7387 10.2398C33.1046 11.2494 33.8568 12.8373 33.8568 14.7107C33.8568 17.668 31.3123 19.5188 28.8522 19.5996C26.6498 19.6703 25.0792 18.3515 24.9452 16.314C24.8897 15.4668 25.1896 14.6475 25.7897 14.0068C26.4359 13.317 27.3506 12.9212 28.2992 12.9212C29.2884 12.9212 30.2235 13.3562 30.8648 14.1146C31.0703 14.3577 31.0398 14.7212 30.7968 14.9268C30.5538 15.1322 30.1901 15.1018 29.9846 14.8588C29.5628 14.3599 28.9484 14.0739 28.2992 14.0739C27.6681 14.0739 27.0601 14.3366 26.6309 14.7948C26.2512 15.2002 26.0609 15.713 26.0954 16.2386C26.2065 17.9295 27.5725 18.4881 28.8143 18.4476C30.7264 18.3848 32.7042 16.9699 32.7042 14.7107C32.7042 13.1905 32.1335 11.9651 31.0536 11.1667C29.7725 10.2196 27.9121 9.99034 26.0767 10.5533C20.4576 12.2807 16.6822 17.3954 16.6822 23.2805C16.6822 30.6214 22.6534 36.5935 29.993 36.5935C37.3339 36.5935 43.3061 30.6213 43.3061 23.2805C43.3061 16.8428 38.7166 11.3351 32.3933 10.1843C32.0801 10.1273 31.8725 9.82726 31.9295 9.51415C31.9865 9.20112 32.2867 8.99366 32.5997 9.05034C38.0086 10.0347 42.2495 13.9527 43.81 18.9875C46.0942 19.1452 47.9048 21.0526 47.9048 23.3761C47.9048 25.7219 46.0597 27.6445 43.7447 27.7697C42.9235 30.279 41.434 32.4883 39.4867 34.1858V36.3119L41.1111 35.645C41.2512 35.5875 41.4085 35.5875 41.5486 35.645L47.5589 38.1112C47.7753 38.2 47.9164 38.4106 47.9164 38.6443ZM44.1264 20.1887C44.3438 21.1877 44.4587 22.2223 44.4587 23.2804C44.4587 24.4122 44.3277 25.5139 44.0807 26.5716C45.5974 26.2987 46.7522 24.9701 46.7522 23.376C46.7522 21.7979 45.6206 20.4798 44.1264 20.1887ZM15.9075 26.5716C15.6605 25.5139 15.5296 24.4122 15.5296 23.2804C15.5296 22.2285 15.6411 21.1942 15.8589 20.1892C14.3662 20.4814 13.2361 21.7989 13.2361 23.376C13.2361 24.9702 14.3909 26.2987 15.9075 26.5716ZM29.9929 49.8063C31.3441 49.8063 32.6553 49.477 33.8273 48.8661L27.0228 43.9843C26.307 43.4725 25.9122 42.7045 25.9122 41.8222C25.9122 40.9415 26.3065 40.1728 27.0223 39.6581L29.693 37.7423C26.7037 37.6811 23.9343 36.7089 21.6518 35.0917V41.4652C21.6518 46.0646 25.3937 49.8063 29.9929 49.8063ZM36.0574 47.1765C35.4825 46.3171 35.0527 45.3421 34.7646 44.2459C34.7521 44.1981 34.7457 44.1488 34.7457 44.0994V38.6444C34.7457 38.4107 34.8868 38.2001 35.1032 38.1113L38.3341 36.7851V35.0928C36.4472 36.4291 34.2278 37.3254 31.8264 37.6306L27.6948 40.5944C27.2829 40.8905 27.0648 41.3153 27.0648 41.8224C27.0648 42.3296 27.2824 42.7532 27.6939 43.0475L34.8877 48.2085C35.3053 47.9038 35.6972 47.5591 36.0574 47.1765ZM46.7639 39.0309L41.33 36.8012L35.8983 39.0308V44.0239C36.6418 46.7697 38.4203 48.6508 41.33 49.7674C44.241 48.6512 46.0203 46.77 46.7639 44.0239V39.0309ZM40.224 39.2976H42.4382C42.7564 39.2976 43.0144 39.5556 43.0144 39.874V41.5959H44.7363C45.0546 41.5959 45.3126 41.8539 45.3126 42.1723V44.3888C45.3126 44.707 45.0546 44.9651 44.7363 44.9651H43.0144V46.6869C43.0144 47.0052 42.7564 47.2633 42.4382 47.2633H40.224C39.9057 47.2633 39.6477 47.0053 39.6477 46.6869V44.9651H37.9235C37.6052 44.9651 37.3472 44.7071 37.3472 44.3888V42.1723C37.3472 41.854 37.6052 41.5959 37.9235 41.5959H39.6477V39.874C39.6477 39.5556 39.9057 39.2976 40.224 39.2976ZM40.224 42.7485H38.4998V43.8124H40.224C40.5422 43.8124 40.8002 44.0704 40.8002 44.3888V46.1106H41.8619V44.3888C41.8619 44.0705 42.1199 43.8124 42.4382 43.8124H44.1601V42.7485H42.4382C42.1199 42.7485 41.8619 42.4905 41.8619 42.1722V40.4503H40.8002V42.1722C40.8002 42.4905 40.5422 42.7485 40.224 42.7485Z" fill="url(#paint1_linear_7856_73)"/>
<defs>
<linearGradient id="paint0_linear_7856_73" x1="30" y1="0" x2="30" y2="60" gradientUnits="userSpaceOnUse">
<stop stop-color="#FFD3C6"/>
<stop offset="1" stop-color="#FFE6DF"/>
</linearGradient>
<linearGradient id="paint1_linear_7856_73" x1="46.8468" y1="41.5274" x2="11.7584" y2="39.2889" gradientUnits="userSpaceOnUse">
<stop offset="0.135487" stop-color="#EA5D39"/>
<stop offset="0.548428" stop-color="#987077"/>
<stop offset="1" stop-color="#4682B4"/>
</linearGradient>
</defs>
</svg>
