<svg width="42" height="42" viewBox="0 0 42 42" fill="none" xmlns="http://www.w3.org/2000/svg">
<g clip-path="url(#clip0_7856_72)">
<mask id="path-1-outside-1_7856_72" maskUnits="userSpaceOnUse" x="-1" y="1.625" width="44" height="38" fill="black">
<rect fill="white" x="-1" y="1.625" width="44" height="38"/>
<path d="M7.21875 20.3434C7.39269 20.3434 7.55957 20.4128 7.68262 20.5357C7.80558 20.6587 7.87488 20.8257 7.875 20.9996V21.6559H10.9189C12.0396 21.6571 13.1455 21.9186 14.1484 22.4186L24.4277 27.5582C24.8502 27.7686 25.2225 28.0675 25.5186 28.4352C25.8147 28.803 26.0273 29.2312 26.1426 29.6891L37.1367 22.36C37.6057 22.0412 38.1534 21.858 38.7197 21.8307C39.2861 21.8033 39.8492 21.9326 40.3467 22.2047C40.8493 22.4678 41.2699 22.8645 41.5615 23.3512C41.8531 23.8378 42.0049 24.3953 42 24.9625C42 25.4656 41.8787 25.9615 41.6465 26.4078C41.4143 26.8539 41.0778 27.2373 40.666 27.526L26.1611 37.6783C24.8104 38.6205 23.2363 39.1924 21.5957 39.3355C19.955 39.4787 18.305 39.1888 16.8115 38.4947L12.8545 36.648C12.072 36.284 11.2195 36.0946 10.3564 36.0934H7.875V36.7496C7.875 36.9237 7.80569 37.0914 7.68262 37.2145C7.55957 37.3374 7.39267 37.4059 7.21875 37.4059H3.9375C3.76358 37.4059 3.59668 37.3374 3.47363 37.2145C3.35056 37.0914 3.28125 36.9237 3.28125 36.7496V36.0934H0.65625C0.482328 36.0934 0.315428 36.0249 0.192383 35.902C0.0693121 35.7789 0 35.6112 0 35.4371V22.3121C0.000116532 22.1382 0.0694159 21.9712 0.192383 21.8482C0.315432 21.7253 0.482305 21.6559 0.65625 21.6559H3.28125V20.9996C3.28137 20.8257 3.35067 20.6587 3.47363 20.5357C3.59668 20.4128 3.76356 20.3434 3.9375 20.3434H7.21875ZM7.875 22.9684V34.7809H10.3574C11.412 34.7826 12.4538 35.0141 13.4102 35.4586L17.3672 37.3053C18.652 37.9023 20.0711 38.1521 21.4824 38.0289C22.8938 37.9057 24.2482 37.4138 25.4102 36.6031L39.9131 26.4508C40.1521 26.2832 40.3476 26.0613 40.4824 25.8023C40.6172 25.5434 40.6874 25.2554 40.6875 24.9635C40.6877 24.6348 40.5984 24.3119 40.4297 24.0299C40.2609 23.7479 40.0182 23.5171 39.7285 23.3619C39.4388 23.2068 39.1125 23.1332 38.7842 23.149C38.4558 23.1649 38.1378 23.2694 37.8643 23.4518L26.1611 31.2535C26.0489 31.7389 25.8285 32.193 25.5156 32.5807C25.2026 32.9684 24.8054 33.2807 24.3545 33.4928C23.9036 33.7048 23.4103 33.8114 22.9121 33.8053C22.4138 33.7992 21.9231 33.6797 21.4775 33.4566L12.1758 28.8062C12.02 28.7284 11.9008 28.5915 11.8457 28.4264C11.7907 28.2613 11.8041 28.081 11.8818 27.9254C11.9596 27.7698 12.0957 27.6514 12.2607 27.5963C12.4258 27.5412 12.606 27.5538 12.7617 27.6314L22.0645 32.2828C22.5349 32.5148 23.078 32.5515 23.5752 32.3844C24.0724 32.2171 24.4831 31.8594 24.7178 31.3902C24.9523 30.9211 24.9915 30.3785 24.8271 29.8805C24.6627 29.3823 24.3077 28.9693 23.8398 28.732L13.5605 23.5924C12.7403 23.1833 11.8365 22.9693 10.9199 22.9684H7.875ZM4.59375 21.6559V36.0934H6.5625V21.6559H4.59375ZM1.3125 22.9684V34.7809H3.28125V22.9684H1.3125ZM15.7646 4.63535C17.4571 3.13528 19.2311 2.47114 21.0469 2.65488C22.7948 2.91063 24.401 3.76194 25.5938 5.06504C26.7864 3.762 28.3928 2.91072 30.1406 2.65488C31.9543 2.47258 33.7299 3.13473 35.4229 4.63535C37.1809 6.19329 37.788 8.46678 37.1777 11.2086C37.0787 11.635 36.9562 12.0556 36.8105 12.4684H39.375C39.549 12.4684 39.7158 12.5377 39.8389 12.6607C39.9619 12.7838 40.0312 12.9506 40.0312 13.1246C40.0312 13.2986 39.9619 13.4654 39.8389 13.5885C39.7158 13.7115 39.549 13.7809 39.375 13.7809H36.2822C34.278 18.1443 29.8933 22.3842 25.7793 23.5982C25.6582 23.634 25.5293 23.634 25.4082 23.5982C21.2942 22.3848 16.9095 18.1449 14.9053 13.7809H11.8125C11.6385 13.7809 11.4717 13.7115 11.3486 13.5885C11.2256 13.4654 11.1562 13.2986 11.1562 13.1246C11.1563 12.9506 11.2256 12.7838 11.3486 12.6607C11.4717 12.5377 11.6385 12.4684 11.8125 12.4684H14.3779C14.2322 12.0553 14.1098 11.6343 14.0107 11.2076C13.3998 8.46651 14.0059 6.19326 15.7646 4.63535ZM25.5596 17.2047C25.5206 17.3205 25.4505 17.4236 25.3564 17.5016C25.2623 17.5796 25.1475 17.6293 25.0264 17.6461C24.9969 17.6497 24.9672 17.6521 24.9375 17.6519C24.8304 17.6519 24.7246 17.6249 24.6299 17.5748C24.5354 17.5247 24.4548 17.4523 24.3945 17.3639L21.9648 13.7809H16.3633C18.2848 17.5346 22.0855 21.1609 25.5938 22.2818C29.1014 21.1609 32.9027 17.5339 34.8242 13.7809H29.5312C29.4093 13.7809 29.2893 13.7473 29.1855 13.6832C29.0821 13.6192 28.9988 13.5273 28.9443 13.4186L27.6816 10.8932L25.5596 17.2047ZM20.4619 3.93711C19.0222 4.00312 17.6585 4.60234 16.6357 5.61777C14.8921 7.16258 14.9425 9.35533 15.291 10.9225V10.9234C15.4129 11.4497 15.5747 11.966 15.7734 12.4684H22.3125C22.4197 12.4683 22.5254 12.4944 22.6201 12.5445C22.7146 12.5945 22.7953 12.6671 22.8555 12.7555L24.7373 15.5309L26.9404 8.97812C26.9817 8.85525 27.0586 8.74692 27.1611 8.66757C27.2636 8.58834 27.3874 8.54092 27.5166 8.53183C27.6459 8.52279 27.7751 8.55263 27.8877 8.61679C28.0004 8.68116 28.0915 8.77804 28.1494 8.89414L29.9365 12.4684H35.4141C35.6127 11.9657 35.7739 11.4491 35.8955 10.9225C36.2446 9.35468 36.2954 7.16161 34.5518 5.61679C33.1487 4.37261 31.7125 3.81553 30.2832 3.95859C27.845 4.20507 26.1485 6.4164 26.1191 6.45566C26.0581 6.53704 25.9786 6.60346 25.8877 6.64902C25.7966 6.69458 25.6956 6.71836 25.5938 6.71836H25.5928C25.4908 6.71831 25.39 6.69455 25.2988 6.64902C25.2076 6.60347 25.1277 6.53714 25.0664 6.45566C25.0247 6.39992 23.3322 4.20432 20.9033 3.95859C20.7563 3.9435 20.6082 3.93711 20.4619 3.93711Z"/>
</mask>
<path d="M7.21875 20.3434C7.39269 20.3434 7.55957 20.4128 7.68262 20.5357C7.80558 20.6587 7.87488 20.8257 7.875 20.9996V21.6559H10.9189C12.0396 21.6571 13.1455 21.9186 14.1484 22.4186L24.4277 27.5582C24.8502 27.7686 25.2225 28.0675 25.5186 28.4352C25.8147 28.803 26.0273 29.2312 26.1426 29.6891L37.1367 22.36C37.6057 22.0412 38.1534 21.858 38.7197 21.8307C39.2861 21.8033 39.8492 21.9326 40.3467 22.2047C40.8493 22.4678 41.2699 22.8645 41.5615 23.3512C41.8531 23.8378 42.0049 24.3953 42 24.9625C42 25.4656 41.8787 25.9615 41.6465 26.4078C41.4143 26.8539 41.0778 27.2373 40.666 27.526L26.1611 37.6783C24.8104 38.6205 23.2363 39.1924 21.5957 39.3355C19.955 39.4787 18.305 39.1888 16.8115 38.4947L12.8545 36.648C12.072 36.284 11.2195 36.0946 10.3564 36.0934H7.875V36.7496C7.875 36.9237 7.80569 37.0914 7.68262 37.2145C7.55957 37.3374 7.39267 37.4059 7.21875 37.4059H3.9375C3.76358 37.4059 3.59668 37.3374 3.47363 37.2145C3.35056 37.0914 3.28125 36.9237 3.28125 36.7496V36.0934H0.65625C0.482328 36.0934 0.315428 36.0249 0.192383 35.902C0.0693121 35.7789 0 35.6112 0 35.4371V22.3121C0.000116532 22.1382 0.0694159 21.9712 0.192383 21.8482C0.315432 21.7253 0.482305 21.6559 0.65625 21.6559H3.28125V20.9996C3.28137 20.8257 3.35067 20.6587 3.47363 20.5357C3.59668 20.4128 3.76356 20.3434 3.9375 20.3434H7.21875ZM7.875 22.9684V34.7809H10.3574C11.412 34.7826 12.4538 35.0141 13.4102 35.4586L17.3672 37.3053C18.652 37.9023 20.0711 38.1521 21.4824 38.0289C22.8938 37.9057 24.2482 37.4138 25.4102 36.6031L39.9131 26.4508C40.1521 26.2832 40.3476 26.0613 40.4824 25.8023C40.6172 25.5434 40.6874 25.2554 40.6875 24.9635C40.6877 24.6348 40.5984 24.3119 40.4297 24.0299C40.2609 23.7479 40.0182 23.5171 39.7285 23.3619C39.4388 23.2068 39.1125 23.1332 38.7842 23.149C38.4558 23.1649 38.1378 23.2694 37.8643 23.4518L26.1611 31.2535C26.0489 31.7389 25.8285 32.193 25.5156 32.5807C25.2026 32.9684 24.8054 33.2807 24.3545 33.4928C23.9036 33.7048 23.4103 33.8114 22.9121 33.8053C22.4138 33.7992 21.9231 33.6797 21.4775 33.4566L12.1758 28.8062C12.02 28.7284 11.9008 28.5915 11.8457 28.4264C11.7907 28.2613 11.8041 28.081 11.8818 27.9254C11.9596 27.7698 12.0957 27.6514 12.2607 27.5963C12.4258 27.5412 12.606 27.5538 12.7617 27.6314L22.0645 32.2828C22.5349 32.5148 23.078 32.5515 23.5752 32.3844C24.0724 32.2171 24.4831 31.8594 24.7178 31.3902C24.9523 30.9211 24.9915 30.3785 24.8271 29.8805C24.6627 29.3823 24.3077 28.9693 23.8398 28.732L13.5605 23.5924C12.7403 23.1833 11.8365 22.9693 10.9199 22.9684H7.875ZM4.59375 21.6559V36.0934H6.5625V21.6559H4.59375ZM1.3125 22.9684V34.7809H3.28125V22.9684H1.3125ZM15.7646 4.63535C17.4571 3.13528 19.2311 2.47114 21.0469 2.65488C22.7948 2.91063 24.401 3.76194 25.5938 5.06504C26.7864 3.762 28.3928 2.91072 30.1406 2.65488C31.9543 2.47258 33.7299 3.13473 35.4229 4.63535C37.1809 6.19329 37.788 8.46678 37.1777 11.2086C37.0787 11.635 36.9562 12.0556 36.8105 12.4684H39.375C39.549 12.4684 39.7158 12.5377 39.8389 12.6607C39.9619 12.7838 40.0312 12.9506 40.0312 13.1246C40.0312 13.2986 39.9619 13.4654 39.8389 13.5885C39.7158 13.7115 39.549 13.7809 39.375 13.7809H36.2822C34.278 18.1443 29.8933 22.3842 25.7793 23.5982C25.6582 23.634 25.5293 23.634 25.4082 23.5982C21.2942 22.3848 16.9095 18.1449 14.9053 13.7809H11.8125C11.6385 13.7809 11.4717 13.7115 11.3486 13.5885C11.2256 13.4654 11.1562 13.2986 11.1562 13.1246C11.1563 12.9506 11.2256 12.7838 11.3486 12.6607C11.4717 12.5377 11.6385 12.4684 11.8125 12.4684H14.3779C14.2322 12.0553 14.1098 11.6343 14.0107 11.2076C13.3998 8.46651 14.0059 6.19326 15.7646 4.63535ZM25.5596 17.2047C25.5206 17.3205 25.4505 17.4236 25.3564 17.5016C25.2623 17.5796 25.1475 17.6293 25.0264 17.6461C24.9969 17.6497 24.9672 17.6521 24.9375 17.6519C24.8304 17.6519 24.7246 17.6249 24.6299 17.5748C24.5354 17.5247 24.4548 17.4523 24.3945 17.3639L21.9648 13.7809H16.3633C18.2848 17.5346 22.0855 21.1609 25.5938 22.2818C29.1014 21.1609 32.9027 17.5339 34.8242 13.7809H29.5312C29.4093 13.7809 29.2893 13.7473 29.1855 13.6832C29.0821 13.6192 28.9988 13.5273 28.9443 13.4186L27.6816 10.8932L25.5596 17.2047ZM20.4619 3.93711C19.0222 4.00312 17.6585 4.60234 16.6357 5.61777C14.8921 7.16258 14.9425 9.35533 15.291 10.9225V10.9234C15.4129 11.4497 15.5747 11.966 15.7734 12.4684H22.3125C22.4197 12.4683 22.5254 12.4944 22.6201 12.5445C22.7146 12.5945 22.7953 12.6671 22.8555 12.7555L24.7373 15.5309L26.9404 8.97812C26.9817 8.85525 27.0586 8.74692 27.1611 8.66757C27.2636 8.58834 27.3874 8.54092 27.5166 8.53183C27.6459 8.52279 27.7751 8.55263 27.8877 8.61679C28.0004 8.68116 28.0915 8.77804 28.1494 8.89414L29.9365 12.4684H35.4141C35.6127 11.9657 35.7739 11.4491 35.8955 10.9225C36.2446 9.35468 36.2954 7.16161 34.5518 5.61679C33.1487 4.37261 31.7125 3.81553 30.2832 3.95859C27.845 4.20507 26.1485 6.4164 26.1191 6.45566C26.0581 6.53704 25.9786 6.60346 25.8877 6.64902C25.7966 6.69458 25.6956 6.71836 25.5938 6.71836H25.5928C25.4908 6.71831 25.39 6.69455 25.2988 6.64902C25.2076 6.60347 25.1277 6.53714 25.0664 6.45566C25.0247 6.39992 23.3322 4.20432 20.9033 3.95859C20.7563 3.9435 20.6082 3.93711 20.4619 3.93711Z" fill="url(#paint0_linear_7856_72)"/>
<path d="M7.68262 20.5357L7.75333 20.465L7.75329 20.465L7.68262 20.5357ZM7.875 20.9996H7.975V20.9995L7.875 20.9996ZM7.875 21.6559H7.775V21.7559H7.875V21.6559ZM10.9189 21.6559L10.9191 21.5559H10.9189V21.6559ZM14.1484 22.4186L14.1932 22.3291L14.193 22.3291L14.1484 22.4186ZM24.4277 27.5582L24.383 27.6476L24.3832 27.6477L24.4277 27.5582ZM25.5186 28.4352L25.5964 28.3724L25.5964 28.3724L25.5186 28.4352ZM26.1426 29.6891L26.0456 29.7135L26.0802 29.8508L26.198 29.7723L26.1426 29.6891ZM37.1367 22.36L37.1922 22.4432L37.1929 22.4427L37.1367 22.36ZM38.7197 21.8307L38.7149 21.7308L38.7149 21.7308L38.7197 21.8307ZM40.3467 22.2047L40.2987 22.2924L40.3003 22.2933L40.3467 22.2047ZM41.5615 23.3512L41.6473 23.2998L41.6473 23.2998L41.5615 23.3512ZM42 24.9625L41.9 24.9616V24.9625L42 24.9625ZM41.6465 26.4078L41.7352 26.454L41.7352 26.454L41.6465 26.4078ZM40.666 27.526L40.7234 27.6079L40.7234 27.6079L40.666 27.526ZM26.1611 37.6783L26.2183 37.7603L26.2185 37.7602L26.1611 37.6783ZM21.5957 39.3355L21.6044 39.4352H21.6044L21.5957 39.3355ZM16.8115 38.4947L16.7692 38.5853L16.7694 38.5854L16.8115 38.4947ZM12.8545 36.648L12.8968 36.5574L12.8967 36.5574L12.8545 36.648ZM10.3564 36.0934L10.3566 35.9934H10.3564V36.0934ZM7.875 36.0934V35.9934H7.775V36.0934H7.875ZM7.68262 37.2145L7.75329 37.2852L7.75333 37.2852L7.68262 37.2145ZM3.47363 37.2145L3.40292 37.2852L3.40296 37.2852L3.47363 37.2145ZM3.28125 36.0934H3.38125V35.9934H3.28125V36.0934ZM0.192383 35.902L0.121672 35.9727L0.121713 35.9727L0.192383 35.902ZM0 35.4371H-0.1H0ZM0 22.3121L-0.1 22.312V22.3121H0ZM0.192383 21.8482L0.121706 21.7775L0.121672 21.7775L0.192383 21.8482ZM3.28125 21.6559V21.7559H3.38125V21.6559H3.28125ZM3.28125 20.9996L3.18125 20.9995V20.9996H3.28125ZM3.47363 20.5357L3.40296 20.465L3.40292 20.465L3.47363 20.5357ZM7.875 22.9684V22.8684H7.775V22.9684H7.875ZM7.875 34.7809H7.775V34.8809H7.875V34.7809ZM10.3574 34.7809L10.3576 34.6809H10.3574V34.7809ZM13.4102 35.4586L13.4524 35.368L13.4523 35.3679L13.4102 35.4586ZM17.3672 37.3053L17.3249 37.3959L17.325 37.396L17.3672 37.3053ZM21.4824 38.0289L21.4911 38.1285L21.4824 38.0289ZM25.4102 36.6031L25.4674 36.6851L25.4675 36.685L25.4102 36.6031ZM39.9131 26.4508L39.9704 26.5327L39.9705 26.5327L39.9131 26.4508ZM40.4824 25.8023L40.5711 25.8485L40.5711 25.8485L40.4824 25.8023ZM40.6875 24.9635L40.5875 24.9634V24.9634L40.6875 24.9635ZM40.4297 24.0299L40.5155 23.9785L40.5155 23.9785L40.4297 24.0299ZM39.7285 23.3619L39.7757 23.2738L39.7757 23.2737L39.7285 23.3619ZM38.7842 23.149L38.7794 23.0491L38.7842 23.149ZM37.8643 23.4518L37.9197 23.535L37.9197 23.535L37.8643 23.4518ZM26.1611 31.2535L26.1057 31.1703L26.0726 31.1923L26.0637 31.231L26.1611 31.2535ZM25.5156 32.5807L25.5934 32.6435L25.5934 32.6435L25.5156 32.5807ZM24.3545 33.4928L24.3971 33.5833L24.3545 33.4928ZM22.9121 33.8053L22.9109 33.9053H22.9109L22.9121 33.8053ZM21.4775 33.4566L21.5223 33.3672L21.5223 33.3672L21.4775 33.4566ZM12.1758 28.8062L12.2205 28.7168L12.2205 28.7168L12.1758 28.8062ZM11.8457 28.4264L11.7508 28.458L11.7508 28.458L11.8457 28.4264ZM11.8818 27.9254L11.7924 27.8807L11.7924 27.8807L11.8818 27.9254ZM12.2607 27.5963L12.2291 27.5014L12.2291 27.5014L12.2607 27.5963ZM12.7617 27.6314L12.8064 27.542L12.8064 27.542L12.7617 27.6314ZM22.0645 32.2828L22.0197 32.3723L22.0202 32.3725L22.0645 32.2828ZM23.5752 32.3844L23.6071 32.4792L23.6071 32.4792L23.5752 32.3844ZM24.7178 31.3902L24.8072 31.435L24.8072 31.435L24.7178 31.3902ZM24.8271 29.8805L24.9221 29.8491L24.9221 29.8491L24.8271 29.8805ZM23.8398 28.732L23.8851 28.6428L23.8846 28.6426L23.8398 28.732ZM13.5605 23.5924L13.6053 23.5029L13.6052 23.5029L13.5605 23.5924ZM10.9199 22.9684L10.92 22.8684H10.9199V22.9684ZM4.59375 21.6559V21.5559H4.49375V21.6559H4.59375ZM4.59375 36.0934H4.49375V36.1934H4.59375V36.0934ZM6.5625 36.0934V36.1934H6.6625V36.0934H6.5625ZM6.5625 21.6559H6.6625V21.5559H6.5625V21.6559ZM1.3125 22.9684V22.8684H1.2125V22.9684H1.3125ZM1.3125 34.7809H1.2125V34.8809H1.3125V34.7809ZM3.28125 34.7809V34.8809H3.38125V34.7809H3.28125ZM3.28125 22.9684H3.38125V22.8684H3.28125V22.9684ZM15.7646 4.63535L15.831 4.7102L15.831 4.71018L15.7646 4.63535ZM21.0469 2.65488L21.0614 2.55583L21.0569 2.55539L21.0469 2.65488ZM25.5938 5.06504L25.52 5.13255L25.5938 5.21314L25.6675 5.13255L25.5938 5.06504ZM30.1406 2.65488L30.1306 2.55528L30.1261 2.55593L30.1406 2.65488ZM35.4229 4.63535L35.3565 4.71018L35.3565 4.71019L35.4229 4.63535ZM37.1777 11.2086L37.2751 11.2312L37.2753 11.2303L37.1777 11.2086ZM36.8105 12.4684L36.7162 12.4351L36.6692 12.5684H36.8105V12.4684ZM39.8389 12.6607L39.9096 12.59L39.9096 12.59L39.8389 12.6607ZM40.0312 13.1246H40.1312V13.1246L40.0312 13.1246ZM39.8389 13.5885L39.9096 13.6592L39.9096 13.6592L39.8389 13.5885ZM36.2822 13.7809V13.6809H36.2181L36.1914 13.7391L36.2822 13.7809ZM25.7793 23.5982L25.751 23.5023L25.751 23.5023L25.7793 23.5982ZM25.4082 23.5982L25.4365 23.5023L25.4365 23.5023L25.4082 23.5982ZM14.9053 13.7809L14.9961 13.7391L14.9694 13.6809H14.9053V13.7809ZM11.3486 13.5885L11.2779 13.6592L11.2779 13.6592L11.3486 13.5885ZM11.1562 13.1246L11.0562 13.1246V13.1246H11.1562ZM11.3486 12.6607L11.2779 12.59L11.2779 12.59L11.3486 12.6607ZM14.3779 12.4684V12.5684H14.5193L14.4722 12.4351L14.3779 12.4684ZM14.0107 11.2076L13.9131 11.2294L13.9133 11.2302L14.0107 11.2076ZM25.5596 17.2047L25.6543 17.2366L25.6544 17.2366L25.5596 17.2047ZM25.3564 17.5016L25.4203 17.5786L25.4203 17.5785L25.3564 17.5016ZM25.0264 17.6461L25.0386 17.7454L25.0401 17.7451L25.0264 17.6461ZM24.9375 17.6519L24.938 17.5519H24.9375L24.9375 17.6519ZM24.6299 17.5748L24.5831 17.6632L24.5831 17.6632L24.6299 17.5748ZM24.3945 17.3639L24.3118 17.42L24.3119 17.4202L24.3945 17.3639ZM21.9648 13.7809L22.0476 13.7247L22.0179 13.6809H21.9648V13.7809ZM16.3633 13.7809V13.6809H16.1998L16.2743 13.8264L16.3633 13.7809ZM25.5938 22.2818L25.5633 22.3771L25.5938 22.3868L25.6242 22.3771L25.5938 22.2818ZM34.8242 13.7809L34.9132 13.8264L34.9878 13.6809H34.8242V13.7809ZM29.5312 13.7809V13.6809H29.5312L29.5312 13.7809ZM29.1855 13.6832L29.1329 13.7682L29.133 13.7683L29.1855 13.6832ZM28.9443 13.4186L28.8549 13.4633L28.8549 13.4633L28.9443 13.4186ZM27.6816 10.8932L27.7711 10.8484L27.6635 10.6333L27.5869 10.8613L27.6816 10.8932ZM20.4619 3.93711V3.837L20.4573 3.83721L20.4619 3.93711ZM16.6357 5.61777L16.7022 5.69274L16.7062 5.68874L16.6357 5.61777ZM15.291 10.9225H15.391V10.9115L15.3886 10.9008L15.291 10.9225ZM15.291 10.9234H15.191V10.9349L15.1936 10.946L15.291 10.9234ZM15.7734 12.4684L15.6805 12.5051L15.7055 12.5684H15.7734V12.4684ZM22.3125 12.4684V12.5684H22.3126L22.3125 12.4684ZM22.6201 12.5445L22.6669 12.4561L22.6669 12.4561L22.6201 12.5445ZM22.8555 12.7555L22.9382 12.6993L22.9381 12.6992L22.8555 12.7555ZM24.7373 15.5309L24.6545 15.587L24.7678 15.754L24.8321 15.5627L24.7373 15.5309ZM26.9404 8.97812L27.0352 9.00999L27.0352 9.00994L26.9404 8.97812ZM27.1611 8.66757L27.1 8.58846L27.0999 8.5885L27.1611 8.66757ZM27.5166 8.53183L27.5096 8.43208L27.5096 8.43208L27.5166 8.53183ZM27.8877 8.61679L27.9373 8.52996L27.9372 8.52992L27.8877 8.61679ZM28.1494 8.89414L28.0599 8.93879L28.06 8.93886L28.1494 8.89414ZM29.9365 12.4684L29.8471 12.5131L29.8747 12.5684H29.9365V12.4684ZM35.4141 12.4684V12.5684H35.4821L35.5071 12.5051L35.4141 12.4684ZM35.8955 10.9225L35.9929 10.945L35.9931 10.9442L35.8955 10.9225ZM34.5518 5.61679L34.4854 5.69161L34.4854 5.69164L34.5518 5.61679ZM30.2832 3.95859L30.2732 3.85909L30.2731 3.8591L30.2832 3.95859ZM26.1191 6.45566L26.1991 6.51566L26.1992 6.51558L26.1191 6.45566ZM25.8877 6.64902L25.9324 6.73846L25.9325 6.73843L25.8877 6.64902ZM25.5938 6.71836V6.81836V6.71836ZM25.5928 6.71836L25.5927 6.81836H25.5928V6.71836ZM25.2988 6.64902L25.2542 6.73848L25.2542 6.73849L25.2988 6.64902ZM25.0664 6.45566L24.9863 6.51555L24.9865 6.51578L25.0664 6.45566ZM20.9033 3.95859L20.8931 4.05807L20.8933 4.05808L20.9033 3.95859ZM7.21875 20.3434V20.4434C7.36604 20.4434 7.50754 20.5022 7.61194 20.6065L7.68262 20.5357L7.75329 20.465C7.6116 20.3234 7.41935 20.2434 7.21875 20.2434V20.3434ZM7.68262 20.5357L7.61191 20.6064C7.71615 20.7107 7.7749 20.8523 7.775 20.9997L7.875 20.9996L7.975 20.9995C7.97487 20.7991 7.89502 20.6067 7.75333 20.465L7.68262 20.5357ZM7.875 20.9996H7.775V21.6559H7.875H7.975V20.9996H7.875ZM7.875 21.6559V21.7559H10.9189V21.6559V21.5559H7.875V21.6559ZM10.9189 21.6559L10.9188 21.7559C12.024 21.7571 13.1147 22.015 14.1038 22.508L14.1484 22.4186L14.193 22.3291C13.1763 21.8223 12.0552 21.5571 10.9191 21.5559L10.9189 21.6559ZM14.1484 22.4186L14.1037 22.508L24.383 27.6476L24.4277 27.5582L24.4725 27.4688L14.1932 22.3291L14.1484 22.4186ZM24.4277 27.5582L24.3832 27.6477C24.7928 27.8517 25.1537 28.1415 25.4407 28.4979L25.5186 28.4352L25.5964 28.3724C25.2913 27.9935 24.9077 27.6855 24.4723 27.4687L24.4277 27.5582ZM25.5186 28.4352L25.4407 28.4979C25.7277 28.8544 25.9338 29.2695 26.0456 29.7135L26.1426 29.6891L26.2395 29.6646C26.1207 29.1929 25.9017 28.7516 25.5964 28.3724L25.5186 28.4352ZM26.1426 29.6891L26.198 29.7723L37.1922 22.4432L37.1367 22.36L37.0812 22.2768L26.0871 29.6059L26.1426 29.6891ZM37.1367 22.36L37.1929 22.4427C37.6467 22.1342 38.1766 21.957 38.7246 21.9305L38.7197 21.8307L38.7149 21.7308C38.1301 21.759 37.5647 21.9481 37.0805 22.2773L37.1367 22.36ZM38.7197 21.8307L38.7245 21.9305C39.2726 21.9041 39.8174 22.0292 40.2987 22.2924L40.3467 22.2047L40.3947 22.117C39.881 21.836 39.2996 21.7026 38.7149 21.7308L38.7197 21.8307ZM40.3467 22.2047L40.3003 22.2933C40.7867 22.5479 41.1936 22.9317 41.4757 23.4026L41.5615 23.3512L41.6473 23.2998C41.3462 22.7973 40.912 22.3877 40.3931 22.1161L40.3467 22.2047ZM41.5615 23.3512L41.4757 23.4026C41.7579 23.8734 41.9048 24.4128 41.9 24.9616L42 24.9625L42.1 24.9634C42.1051 24.3777 41.9483 23.8021 41.6473 23.2998L41.5615 23.3512ZM42 24.9625L41.9 24.9625C41.9 25.4495 41.7826 25.9296 41.5578 26.3616L41.6465 26.4078L41.7352 26.454C41.9748 25.9934 42.1 25.4817 42.1 24.9625L42 24.9625ZM41.6465 26.4078L41.5578 26.3616C41.333 26.7935 41.0073 27.1646 40.6086 27.4441L40.666 27.526L40.7234 27.6079C41.1484 27.31 41.4956 26.9144 41.7352 26.454L41.6465 26.4078ZM40.666 27.526L40.6087 27.444L26.1038 37.5964L26.1611 37.6783L26.2185 37.7602L40.7234 27.6079L40.666 27.526ZM26.1611 37.6783L26.1039 37.5963C24.7675 38.5285 23.2102 39.0943 21.587 39.2359L21.5957 39.3355L21.6044 39.4352C23.2625 39.2905 24.8533 38.7126 26.2183 37.7603L26.1611 37.6783ZM21.5957 39.3355L21.587 39.2359C19.9637 39.3775 18.3313 39.0908 16.8537 38.404L16.8115 38.4947L16.7694 38.5854C18.2788 39.2869 19.9463 39.5798 21.6044 39.4352L21.5957 39.3355ZM16.8115 38.4947L16.8538 38.4041L12.8968 36.5574L12.8545 36.648L12.8122 36.7387L16.7692 38.5853L16.8115 38.4947ZM12.8545 36.648L12.8967 36.5574C12.101 36.1873 11.2342 35.9946 10.3566 35.9934L10.3564 36.0934L10.3563 36.1934C11.2048 36.1946 12.0429 36.3808 12.8123 36.7387L12.8545 36.648ZM10.3564 36.0934V35.9934H7.875V36.0934V36.1934H10.3564V36.0934ZM7.875 36.0934H7.775V36.7496H7.875H7.975V36.0934H7.875ZM7.875 36.7496H7.775C7.775 36.8972 7.71618 37.0395 7.61191 37.1437L7.68262 37.2145L7.75333 37.2852C7.8952 37.1433 7.975 36.9501 7.975 36.7496H7.875ZM7.68262 37.2145L7.61195 37.1437C7.50781 37.2477 7.3664 37.3059 7.21875 37.3059V37.4059V37.5059C7.41895 37.5059 7.61133 37.427 7.75329 37.2852L7.68262 37.2145ZM7.21875 37.4059V37.3059H3.9375V37.4059V37.5059H7.21875V37.4059ZM3.9375 37.4059V37.3059C3.78985 37.3059 3.64844 37.2477 3.5443 37.1437L3.47363 37.2145L3.40296 37.2852C3.54492 37.427 3.7373 37.5059 3.9375 37.5059V37.4059ZM3.47363 37.2145L3.54434 37.1437C3.44007 37.0395 3.38125 36.8972 3.38125 36.7496H3.28125H3.18125C3.18125 36.9501 3.26105 37.1433 3.40292 37.2852L3.47363 37.2145ZM3.28125 36.7496H3.38125V36.0934H3.28125H3.18125V36.7496H3.28125ZM3.28125 36.0934V35.9934H0.65625V36.0934V36.1934H3.28125V36.0934ZM0.65625 36.0934V35.9934C0.508605 35.9934 0.367189 35.9352 0.263053 35.8312L0.192383 35.902L0.121713 35.9727C0.263667 36.1145 0.456052 36.1934 0.65625 36.1934V36.0934ZM0.192383 35.902L0.263094 35.8312C0.158821 35.727 0.1 35.5847 0.1 35.4371H0H-0.1C-0.1 35.6376 -0.0201968 35.8308 0.121672 35.9727L0.192383 35.902ZM0 35.4371H0.1V22.3121H0H-0.1V35.4371H0ZM0 22.3121L0.1 22.3122C0.100099 22.1648 0.158848 22.0232 0.263094 21.9189L0.192383 21.8482L0.121672 21.7775C-0.020016 21.9192 -0.0998657 22.1116 -0.1 22.312L0 22.3121ZM0.192383 21.8482L0.26306 21.919C0.367462 21.8147 0.508956 21.7559 0.65625 21.7559V21.6559V21.5559C0.455655 21.5559 0.263403 21.6359 0.121706 21.7775L0.192383 21.8482ZM0.65625 21.6559V21.7559H3.28125V21.6559V21.5559H0.65625V21.6559ZM3.28125 21.6559H3.38125V20.9996H3.28125H3.18125V21.6559H3.28125ZM3.28125 20.9996L3.38125 20.9997C3.38135 20.8523 3.4401 20.7107 3.54434 20.6064L3.47363 20.5357L3.40292 20.465C3.26123 20.6067 3.18138 20.7991 3.18125 20.9995L3.28125 20.9996ZM3.47363 20.5357L3.54431 20.6065C3.64871 20.5022 3.79021 20.4434 3.9375 20.4434V20.3434V20.2434C3.7369 20.2434 3.54465 20.3234 3.40296 20.465L3.47363 20.5357ZM3.9375 20.3434V20.4434H7.21875V20.3434V20.2434H3.9375V20.3434ZM7.875 22.9684H7.775V34.7809H7.875H7.975V22.9684H7.875ZM7.875 34.7809V34.8809H10.3574V34.7809V34.6809H7.875V34.7809ZM10.3574 34.7809L10.3573 34.8809C11.3973 34.8825 12.4248 35.1109 13.368 35.5493L13.4102 35.4586L13.4523 35.3679C12.4829 34.9174 11.4267 34.6826 10.3576 34.6809L10.3574 34.7809ZM13.4102 35.4586L13.3679 35.5492L17.3249 37.3959L17.3672 37.3053L17.4095 37.2147L13.4524 35.368L13.4102 35.4586ZM17.3672 37.3053L17.325 37.396C18.6257 38.0003 20.0623 38.2533 21.4911 38.1285L21.4824 38.0289L21.4737 37.9293C20.0798 38.051 18.6783 37.8042 17.4093 37.2146L17.3672 37.3053ZM21.4824 38.0289L21.4911 38.1285C22.92 38.0038 24.2911 37.5058 25.4674 36.6851L25.4102 36.6031L25.3529 36.5211C24.2054 37.3217 22.8677 37.8076 21.4737 37.9293L21.4824 38.0289ZM25.4102 36.6031L25.4675 36.685L39.9704 26.5327L39.9131 26.4508L39.8557 26.3689L25.3528 36.5212L25.4102 36.6031ZM39.9131 26.4508L39.9705 26.5327C40.2225 26.356 40.4288 26.1219 40.5711 25.8485L40.4824 25.8023L40.3937 25.7562C40.2664 26.0007 40.0817 26.2104 39.8557 26.3689L39.9131 26.4508ZM40.4824 25.8023L40.5711 25.8485C40.7133 25.5753 40.7874 25.2714 40.7875 24.9635L40.6875 24.9635L40.5875 24.9634C40.5874 25.2394 40.521 25.5116 40.3937 25.7562L40.4824 25.8023ZM40.6875 24.9635L40.7875 24.9635C40.7877 24.6167 40.6935 24.2761 40.5155 23.9785L40.4297 24.0299L40.3439 24.0812C40.5034 24.3477 40.5876 24.6529 40.5875 24.9634L40.6875 24.9635ZM40.4297 24.0299L40.5155 23.9785C40.3373 23.6809 40.0813 23.4374 39.7757 23.2738L39.7285 23.3619L39.6813 23.4501C39.9551 23.5967 40.1844 23.8149 40.3439 24.0812L40.4297 24.0299ZM39.7285 23.3619L39.7757 23.2737C39.47 23.1101 39.1257 23.0324 38.7794 23.0491L38.7842 23.149L38.789 23.2489C39.0992 23.2339 39.4075 23.3035 39.6813 23.4501L39.7285 23.3619ZM38.7842 23.149L38.7794 23.0491C38.4329 23.0658 38.0974 23.1761 37.8088 23.3686L37.8643 23.4518L37.9197 23.535C38.1782 23.3626 38.4786 23.2639 38.789 23.2489L38.7842 23.149ZM37.8643 23.4518L37.8088 23.3685L26.1057 31.1703L26.1611 31.2535L26.2166 31.3367L37.9197 23.535L37.8643 23.4518ZM26.1611 31.2535L26.0637 31.231C25.9548 31.7017 25.7411 32.1421 25.4378 32.5179L25.5156 32.5807L25.5934 32.6435C25.9159 32.244 26.1429 31.776 26.2586 31.276L26.1611 31.2535ZM25.5156 32.5807L25.4378 32.5178C25.1343 32.8938 24.7491 33.1966 24.3119 33.4023L24.3545 33.4928L24.3971 33.5833C24.8617 33.3647 25.2709 33.0429 25.5934 32.6435L25.5156 32.5807ZM24.3545 33.4928L24.3119 33.4023C23.8748 33.6079 23.3965 33.7112 22.9133 33.7053L22.9121 33.8053L22.9109 33.9053C23.4241 33.9115 23.9324 33.8018 24.3971 33.5833L24.3545 33.4928ZM22.9121 33.8053L22.9133 33.7053C22.4302 33.6993 21.9544 33.5836 21.5223 33.3672L21.4775 33.4566L21.4328 33.5461C21.8918 33.7759 22.3975 33.899 22.9109 33.9053L22.9121 33.8053ZM21.4775 33.4566L21.5223 33.3672L12.2205 28.7168L12.1758 28.8062L12.1311 28.8957L21.4328 33.5461L21.4775 33.4566ZM12.1758 28.8062L12.2205 28.7168C12.0883 28.6508 11.9873 28.5346 11.9406 28.3947L11.8457 28.4264L11.7508 28.458C11.8144 28.6484 11.9517 28.8061 12.1311 28.8957L12.1758 28.8062ZM11.8457 28.4264L11.9406 28.3948C11.894 28.2551 11.9053 28.1022 11.9713 27.9701L11.8818 27.9254L11.7924 27.8807C11.7029 28.0598 11.6874 28.2675 11.7508 28.458L11.8457 28.4264ZM11.8818 27.9254L11.9713 27.9701C12.0373 27.8381 12.1526 27.7378 12.2924 27.6911L12.2607 27.5963L12.2291 27.5014C12.0388 27.565 11.882 27.7014 11.7924 27.8807L11.8818 27.9254ZM12.2607 27.5963L12.2924 27.6911C12.4324 27.6444 12.5851 27.6551 12.7171 27.7209L12.7617 27.6314L12.8064 27.542C12.6269 27.4524 12.4192 27.438 12.2291 27.5014L12.2607 27.5963ZM12.7617 27.6314L12.717 27.7209L22.0197 32.3723L22.0645 32.2828L22.1092 32.1934L12.8064 27.542L12.7617 27.6314ZM22.0645 32.2828L22.0202 32.3725C22.5143 32.6161 23.0848 32.6548 23.6071 32.4792L23.5752 32.3844L23.5433 32.2896C23.0713 32.4483 22.5555 32.4134 22.1087 32.1931L22.0645 32.2828ZM23.5752 32.3844L23.6071 32.4792C24.1294 32.3035 24.5608 31.9277 24.8072 31.435L24.7178 31.3902L24.6283 31.3455C24.4055 31.7911 24.0154 32.1308 23.5433 32.2896L23.5752 32.3844ZM24.7178 31.3902L24.8072 31.435C25.0536 30.9422 25.0948 30.3722 24.9221 29.8491L24.8271 29.8805L24.7322 29.9118C24.8883 30.3848 24.8511 30.9001 24.6283 31.3455L24.7178 31.3902ZM24.8271 29.8805L24.9221 29.8491C24.7494 29.3259 24.3765 28.892 23.8851 28.6428L23.8398 28.732L23.7946 28.8212C24.2389 29.0465 24.576 29.4388 24.7322 29.9118L24.8271 29.8805ZM23.8398 28.732L23.8846 28.6426L13.6053 23.5029L13.5605 23.5924L13.5158 23.6818L23.7951 28.8215L23.8398 28.732ZM13.5605 23.5924L13.6052 23.5029C12.7712 23.087 11.8521 22.8693 10.92 22.8684L10.9199 22.9684L10.9198 23.0684C11.8209 23.0693 12.7095 23.2797 13.5159 23.6819L13.5605 23.5924ZM10.9199 22.9684V22.8684H7.875V22.9684V23.0684H10.9199V22.9684ZM4.59375 21.6559H4.49375V36.0934H4.59375H4.69375V21.6559H4.59375ZM4.59375 36.0934V36.1934H6.5625V36.0934V35.9934H4.59375V36.0934ZM6.5625 36.0934H6.6625V21.6559H6.5625H6.4625V36.0934H6.5625ZM6.5625 21.6559V21.5559H4.59375V21.6559V21.7559H6.5625V21.6559ZM1.3125 22.9684H1.2125V34.7809H1.3125H1.4125V22.9684H1.3125ZM1.3125 34.7809V34.8809H3.28125V34.7809V34.6809H1.3125V34.7809ZM3.28125 34.7809H3.38125V22.9684H3.28125H3.18125V34.7809H3.28125ZM3.28125 22.9684V22.8684H1.3125V22.9684V23.0684H3.28125V22.9684ZM15.7646 4.63535L15.831 4.71018C17.5078 3.22393 19.2552 2.57408 21.0368 2.75437L21.0469 2.65488L21.0569 2.55539C19.207 2.36819 17.4063 3.04663 15.6983 4.56051L15.7646 4.63535ZM21.0469 2.65488L21.0324 2.75383C22.7575 3.00624 24.3428 3.84645 25.52 5.13255L25.5938 5.06504L25.6675 4.99752C24.4592 3.67743 22.8321 2.81501 21.0614 2.55593L21.0469 2.65488ZM25.5938 5.06504L25.6675 5.13255C26.8446 3.84652 28.4301 3.00633 30.1551 2.75382L30.1406 2.65488L30.1261 2.55593C28.3556 2.81511 26.7282 3.67749 25.52 4.99752L25.5938 5.06504ZM30.1406 2.65488L30.1506 2.75438C31.9303 2.5755 33.6792 3.22343 35.3565 4.71018L35.4229 4.63535L35.4892 4.56051C33.7806 3.04602 31.9783 2.36966 30.1306 2.55538L30.1406 2.65488ZM35.4229 4.63535L35.3565 4.71019C37.0816 6.23888 37.6844 8.47227 37.0801 11.1869L37.1777 11.2086L37.2753 11.2303C37.8917 8.46129 37.2803 6.14769 35.4892 4.56051L35.4229 4.63535ZM37.1777 11.2086L37.0803 11.186C36.9821 11.6088 36.8607 12.0258 36.7162 12.4351L36.8105 12.4684L36.9048 12.5016C37.0518 12.0853 37.1753 11.6612 37.2751 11.2312L37.1777 11.2086ZM36.8105 12.4684V12.5684H39.375V12.4684V12.3684H36.8105V12.4684ZM39.375 12.4684V12.5684C39.5224 12.5684 39.6638 12.6271 39.7682 12.7315L39.8389 12.6607L39.9096 12.59C39.7678 12.4483 39.5756 12.3684 39.375 12.3684V12.4684ZM39.8389 12.6607L39.7682 12.7314C39.8725 12.8358 39.9312 12.9772 39.9313 13.1246L40.0312 13.1246L40.1312 13.1246C40.1312 12.924 40.0513 12.7318 39.9096 12.59L39.8389 12.6607ZM40.0312 13.1246H39.9313C39.9313 13.272 39.8725 13.4134 39.7681 13.5178L39.8389 13.5885L39.9096 13.6592C40.0513 13.5174 40.1312 13.3252 40.1312 13.1246H40.0312ZM39.8389 13.5885L39.7682 13.5178C39.6638 13.6221 39.5224 13.6809 39.375 13.6809V13.7809V13.8809C39.5757 13.8809 39.7678 13.8009 39.9096 13.6592L39.8389 13.5885ZM39.375 13.7809V13.6809H36.2822V13.7809V13.8809H39.375V13.7809ZM36.2822 13.7809L36.1914 13.7391C35.1952 15.9078 33.6061 18.0484 31.7533 19.7978C29.9 21.5478 27.7886 22.901 25.751 23.5023L25.7793 23.5982L25.8076 23.6941C27.884 23.0814 30.022 21.7076 31.8906 19.9433C33.7597 18.1784 35.365 16.0173 36.3731 13.8226L36.2822 13.7809ZM25.7793 23.5982L25.751 23.5023C25.6484 23.5326 25.5391 23.5326 25.4365 23.5023L25.4082 23.5982L25.3799 23.6941C25.5194 23.7353 25.6681 23.7353 25.8076 23.6941L25.7793 23.5982ZM25.4082 23.5982L25.4365 23.5023C23.3989 22.9014 21.2875 21.5483 19.4342 19.7983C17.5814 18.0489 15.9923 15.9081 14.9961 13.7391L14.9053 13.7809L14.8144 13.8226C15.8225 16.0177 17.4278 18.1789 19.2969 19.9438C21.1655 21.7081 23.3035 23.0817 25.3799 23.6942L25.4082 23.5982ZM14.9053 13.7809V13.6809H11.8125V13.7809V13.8809H14.9053V13.7809ZM11.8125 13.7809V13.6809C11.6651 13.6809 11.5237 13.6221 11.4193 13.5178L11.3486 13.5885L11.2779 13.6592C11.4197 13.8009 11.6118 13.8809 11.8125 13.8809V13.7809ZM11.3486 13.5885L11.4194 13.5178C11.315 13.4134 11.2563 13.272 11.2563 13.1246H11.1562H11.0562C11.0562 13.3252 11.1362 13.5174 11.2779 13.6592L11.3486 13.5885ZM11.1562 13.1246L11.2563 13.1246C11.2563 12.9772 11.315 12.8358 11.4193 12.7314L11.3486 12.6607L11.2779 12.59C11.1362 12.7318 11.0563 12.924 11.0562 13.1246L11.1562 13.1246ZM11.3486 12.6607L11.4193 12.7315C11.5237 12.6271 11.6651 12.5684 11.8125 12.5684V12.4684V12.3684C11.6119 12.3684 11.4197 12.4483 11.2779 12.59L11.3486 12.6607ZM11.8125 12.4684V12.5684H14.3779V12.4684V12.3684H11.8125V12.4684ZM14.3779 12.4684L14.4722 12.4351C14.3277 12.0256 14.2064 11.6081 14.1082 11.185L14.0107 11.2076L13.9133 11.2302C14.0132 11.6605 14.1366 12.085 14.2836 12.5016L14.3779 12.4684ZM14.0107 11.2076L14.1083 11.1859C13.5035 8.47196 14.1053 6.23885 15.831 4.7102L15.7646 4.63535L15.6983 4.56049C13.9066 6.14768 13.2961 8.46105 13.9131 11.2294L14.0107 11.2076ZM25.5596 17.2047L25.4648 17.1728C25.4317 17.2713 25.3721 17.3586 25.2926 17.4246L25.3564 17.5016L25.4203 17.5785C25.5289 17.4885 25.6096 17.3697 25.6543 17.2366L25.5596 17.2047ZM25.3564 17.5016L25.2926 17.4246C25.2132 17.4904 25.1158 17.5327 25.0126 17.547L25.0264 17.6461L25.0401 17.7451C25.1792 17.7258 25.3115 17.6687 25.4203 17.5786L25.3564 17.5016ZM25.0264 17.6461L25.0142 17.5468C24.9873 17.5501 24.9621 17.5521 24.938 17.552L24.9375 17.6519L24.937 17.7519C24.9723 17.7521 25.0064 17.7493 25.0385 17.7453L25.0264 17.6461ZM24.9375 17.6519L24.9375 17.5519C24.8472 17.5519 24.7574 17.5291 24.6766 17.4864L24.6299 17.5748L24.5831 17.6632C24.6918 17.7207 24.8136 17.7519 24.9375 17.7519L24.9375 17.6519ZM24.6299 17.5748L24.6767 17.4864C24.5967 17.444 24.5283 17.3827 24.4772 17.3076L24.3945 17.3639L24.3119 17.4202C24.3812 17.5219 24.474 17.6054 24.5831 17.6632L24.6299 17.5748ZM24.3945 17.3639L24.4773 17.3077L22.0476 13.7247L21.9648 13.7809L21.8821 13.837L24.3118 17.42L24.3945 17.3639ZM21.9648 13.7809V13.6809H16.3633V13.7809V13.8809H21.9648V13.7809ZM16.3633 13.7809L16.2743 13.8264C18.2047 17.5976 22.0237 21.2462 25.5633 22.3771L25.5938 22.2818L25.6242 22.1866C22.1472 21.0757 18.3648 17.4716 16.4523 13.7353L16.3633 13.7809ZM25.5938 22.2818L25.6242 22.3771C29.1632 21.2462 32.9828 17.597 34.9132 13.8264L34.8242 13.7809L34.7352 13.7353C32.8227 17.4709 29.0396 21.0757 25.5633 22.1866L25.5938 22.2818ZM34.8242 13.7809V13.6809H29.5312V13.7809V13.8809H34.8242V13.7809ZM29.5312 13.7809L29.5312 13.6809C29.4276 13.6809 29.3258 13.6523 29.2381 13.5981L29.1855 13.6832L29.133 13.7683C29.2527 13.8423 29.391 13.8809 29.5313 13.8809L29.5312 13.7809ZM29.1855 13.6832L29.2381 13.5982C29.1507 13.5441 29.0801 13.4662 29.0337 13.3738L28.9443 13.4186L28.8549 13.4633C28.9176 13.5884 29.0135 13.6943 29.1329 13.7682L29.1855 13.6832ZM28.9443 13.4186L29.0338 13.3738L27.7711 10.8484L27.6816 10.8932L27.5922 10.9379L28.8549 13.4633L28.9443 13.4186ZM27.6816 10.8932L27.5869 10.8613L25.4648 17.1728L25.5596 17.2047L25.6544 17.2366L27.7764 10.925L27.6816 10.8932ZM20.4619 3.93711L20.4573 3.83721C18.9928 3.90436 17.6057 4.51391 16.5653 5.5468L16.6357 5.61777L16.7062 5.68874C17.7114 4.69078 19.0516 4.10188 20.4665 4.037L20.4619 3.93711ZM16.6357 5.61777L16.5694 5.54292C14.7841 7.12465 14.8424 9.36562 15.1934 10.9442L15.291 10.9225L15.3886 10.9008C15.0427 9.34505 15.0001 7.20052 16.7021 5.69262L16.6357 5.61777ZM15.291 10.9225H15.191V10.9234H15.291H15.391V10.9225H15.291ZM15.291 10.9234L15.1936 10.946C15.3166 11.4773 15.4799 11.9983 15.6805 12.5051L15.7734 12.4684L15.8664 12.4316C15.6695 11.9337 15.5092 11.4222 15.3884 10.9009L15.291 10.9234ZM15.7734 12.4684V12.5684H22.3125V12.4684V12.3684H15.7734V12.4684ZM22.3125 12.4684L22.3126 12.5684C22.4034 12.5683 22.4931 12.5905 22.5734 12.6329L22.6201 12.5445L22.6669 12.4561C22.5577 12.3984 22.4359 12.3682 22.3124 12.3684L22.3125 12.4684ZM22.6201 12.5445L22.5733 12.6329C22.6533 12.6752 22.7217 12.7367 22.7728 12.8117L22.8555 12.7555L22.9381 12.6992C22.8689 12.5975 22.7759 12.5139 22.6669 12.4561L22.6201 12.5445ZM22.8555 12.7555L22.7727 12.8116L24.6545 15.587L24.7373 15.5309L24.8201 15.4747L22.9382 12.6993L22.8555 12.7555ZM24.7373 15.5309L24.8321 15.5627L27.0352 9.00999L26.9404 8.97812L26.8456 8.94625L24.6425 15.499L24.7373 15.5309ZM26.9404 8.97812L27.0352 9.00994C27.0702 8.90578 27.1355 8.8139 27.2223 8.74665L27.1611 8.66757L27.0999 8.5885C26.9818 8.67994 26.8931 8.80472 26.8456 8.9463L26.9404 8.97812ZM27.1611 8.66757L27.2223 8.74669C27.3093 8.67945 27.4142 8.63928 27.5236 8.63159L27.5166 8.53183L27.5096 8.43208C27.3605 8.44256 27.218 8.49723 27.1 8.58846L27.1611 8.66757ZM27.5166 8.53183L27.5236 8.63159C27.6329 8.62393 27.7426 8.64918 27.8382 8.70367L27.8877 8.61679L27.9372 8.52992C27.8077 8.45607 27.6588 8.42164 27.5096 8.43208L27.5166 8.53183ZM27.8877 8.61679L27.8381 8.70362C27.9334 8.75808 28.0107 8.84021 28.0599 8.93879L28.1494 8.89414L28.2389 8.84948C28.1722 8.71586 28.0673 8.60423 27.9373 8.52996L27.8877 8.61679ZM28.1494 8.89414L28.06 8.93886L29.8471 12.5131L29.9365 12.4684L30.026 12.4236L28.2389 8.84942L28.1494 8.89414ZM29.9365 12.4684V12.5684H35.4141V12.4684V12.3684H29.9365V12.4684ZM35.4141 12.4684L35.5071 12.5051C35.7075 11.9979 35.8702 11.4765 35.9929 10.945L35.8955 10.9225L35.7981 10.9C35.6776 11.4216 35.5178 11.9335 35.3211 12.4316L35.4141 12.4684ZM35.8955 10.9225L35.9931 10.9442C36.3448 9.36499 36.4034 7.12368 34.6181 5.54194L34.5518 5.61679L34.4854 5.69164C36.1874 7.19953 36.1445 9.34436 35.7979 10.9007L35.8955 10.9225ZM34.5518 5.61679L34.6181 5.54197C33.2009 4.2852 31.7381 3.71247 30.2732 3.85909L30.2832 3.95859L30.2932 4.05809C31.6869 3.91859 33.0966 4.46003 34.4854 5.69161L34.5518 5.61679ZM30.2832 3.95859L30.2731 3.8591C29.0272 3.98505 27.9756 4.61208 27.2352 5.20688C26.4942 5.80221 26.0571 6.37167 26.0391 6.39574L26.1191 6.45566L26.1992 6.51558C26.2106 6.50038 26.6364 5.94455 27.3605 5.36279C28.0853 4.78049 29.101 4.17861 30.2933 4.05808L30.2832 3.95859ZM26.1191 6.45566L26.0391 6.39566C25.9874 6.46466 25.92 6.52101 25.8429 6.55961L25.8877 6.64902L25.9325 6.73843C26.0373 6.68592 26.1288 6.60941 26.1991 6.51566L26.1191 6.45566ZM25.8877 6.64902L25.843 6.55958C25.7658 6.59818 25.6801 6.61836 25.5938 6.61836V6.71836V6.81836C25.7111 6.81836 25.8274 6.79098 25.9324 6.73846L25.8877 6.64902ZM25.5938 6.71836V6.61836H25.5928V6.71836V6.81836H25.5938V6.71836ZM25.5928 6.71836L25.5928 6.61836C25.5064 6.61831 25.4208 6.59815 25.3435 6.55955L25.2988 6.64902L25.2542 6.73849C25.3592 6.79095 25.4753 6.8183 25.5927 6.81836L25.5928 6.71836ZM25.2988 6.64902L25.3435 6.55955C25.266 6.52087 25.1982 6.46455 25.1463 6.39554L25.0664 6.45566L24.9865 6.51578C25.0572 6.60973 25.1492 6.68606 25.2542 6.73848L25.2988 6.64902ZM25.0664 6.45566L25.1465 6.39577C25.1222 6.36334 24.683 5.79369 23.9426 5.20034C23.2028 4.6075 22.1545 3.98467 20.9134 3.8591L20.9033 3.95859L20.8933 4.05808C22.081 4.17825 23.0934 4.77607 23.8175 5.35641C24.541 5.93623 24.9689 6.49225 24.9863 6.51555L25.0664 6.45566ZM20.9033 3.95859L20.9135 3.85911C20.7627 3.84362 20.6111 3.83711 20.4619 3.83711V3.93711V4.03711C20.6054 4.03711 20.75 4.04337 20.8931 4.05807L20.9033 3.95859Z" fill="url(#paint1_linear_7856_72)" mask="url(#path-1-outside-1_7856_72)"/>
</g>
<defs>
<linearGradient id="paint0_linear_7856_72" x1="40.7464" y1="31.1033" x2="-0.250235" y2="27.6064" gradientUnits="userSpaceOnUse">
<stop offset="0.135487" stop-color="#EA5D39"/>
<stop offset="0.548428" stop-color="#987077"/>
<stop offset="1" stop-color="#4682B4"/>
</linearGradient>
<linearGradient id="paint1_linear_7856_72" x1="40.7464" y1="31.1033" x2="-0.250235" y2="27.6064" gradientUnits="userSpaceOnUse">
<stop offset="0.135487" stop-color="#EA5D39"/>
<stop offset="0.548428" stop-color="#987077"/>
<stop offset="1" stop-color="#4682B4"/>
</linearGradient>
<clipPath id="clip0_7856_72">
<rect width="42" height="42" fill="white"/>
</clipPath>
</defs>
</svg>
