<svg width="40" height="42" viewBox="0 0 40 42" fill="none" xmlns="http://www.w3.org/2000/svg">
<path d="M37.0696 2.92894C34.1408 -2.38419e-07 29.4266 0 19.9986 0C10.5705 0 5.85646 -2.38419e-07 2.92754 2.92894C1.41256 4.4439 0.681205 6.43648 0.328125 9.31196C1.38946 8.13064 2.66472 7.14656 4.09672 6.41692C5.65968 5.62054 7.33329 5.2976 9.18633 5.1462C10.9766 4.99994 13.1794 4.99996 15.8729 5H24.1242C26.8178 4.99996 29.0206 4.99994 30.8108 5.1462C32.664 5.2976 34.3376 5.62054 35.9004 6.41692C37.3324 7.14656 38.6078 8.13064 39.669 9.31196C39.316 6.43648 38.5846 4.4439 37.0696 2.92894Z" fill="url(#paint0_linear_7847_8147)"/>
<path fill-rule="evenodd" clip-rule="evenodd" d="M0 25.312C0 19.7114 1.19209e-07 16.9112 1.08994 14.7721C2.04866 12.8905 3.57848 11.3607 5.4601 10.402C7.59922 9.31201 10.3995 9.31201 16 9.31201H24C29.6006 9.31201 32.4008 9.31201 34.54 10.402C36.4216 11.3607 37.9514 12.8905 38.91 14.7721C40 16.9112 40 19.7114 40 25.312C40 30.9126 40 33.7128 38.91 35.852C37.9514 37.7336 36.4216 39.2634 34.54 40.222C32.4008 41.312 29.6006 41.312 24 41.312H16C10.3995 41.312 7.59922 41.312 5.4601 40.222C3.57848 39.2634 2.04866 37.7336 1.08994 35.852C1.19209e-07 33.7128 0 30.9126 0 25.312ZM21.0606 32.3726C20.7794 32.654 20.3978 32.812 20 32.812C19.6022 32.812 19.2206 32.654 18.9394 32.3726L13.9393 27.3726C13.3536 26.7868 13.3536 25.8372 13.9393 25.2514C14.5251 24.6656 15.4749 24.6656 16.0606 25.2514L18.5 27.6906V19.312C18.5 18.4836 19.1716 17.812 20 17.812C20.8284 17.812 21.5 18.4836 21.5 19.312V27.6906L23.9394 25.2514C24.5252 24.6656 25.4748 24.6656 26.0606 25.2514C26.6464 25.8372 26.6464 26.7868 26.0606 27.3726L21.0606 32.3726Z" fill="url(#paint1_linear_7847_8147)"/>
<defs>
<linearGradient id="paint0_linear_7847_8147" x1="20" y1="0" x2="20" y2="40" gradientUnits="userSpaceOnUse">
<stop stop-color="#9999FF"/>
<stop offset="1" stop-color="#2B2BFF"/>
</linearGradient>
<linearGradient id="paint1_linear_7847_8147" x1="20" y1="1.31201" x2="20" y2="41.312" gradientUnits="userSpaceOnUse">
<stop stop-color="#9999FF"/>
<stop offset="1" stop-color="#2B2BFF"/>
</linearGradient>
</defs>
</svg>
