<svg width="42" height="42" viewBox="0 0 42 42" fill="none" xmlns="http://www.w3.org/2000/svg">
<mask id="path-1-outside-1_7856_78" maskUnits="userSpaceOnUse" x="0.469727" y="0.442871" width="41" height="41" fill="black">
<rect fill="white" x="0.469727" y="0.442871" width="41" height="41"/>
<path d="M4.86914 9.13525C5.54322 9.0107 6.23975 9.14744 6.81641 9.51807C7.39293 9.8887 7.80698 10.4656 7.97363 11.1304L10.8408 19.3921C10.8802 19.4118 10.9264 19.4251 10.9658 19.4448L16.7666 22.8511C17.6543 23.3725 18.3912 24.1162 18.9033 25.0093C19.4154 25.9023 19.6858 26.9135 19.6875 27.9429V34.1255C19.8614 34.1256 20.0284 34.194 20.1514 34.3169C20.2744 34.44 20.3438 34.6077 20.3438 34.7817V40.0317C20.3436 40.2056 20.2743 40.3727 20.1514 40.4956C20.0284 40.6185 19.8614 40.6879 19.6875 40.688H10.5C10.3261 40.688 10.1592 40.6184 10.0361 40.4956C9.91318 40.3727 9.84388 40.2056 9.84375 40.0317V34.7817C9.84375 34.6077 9.91306 34.44 10.0361 34.3169C10.1592 34.1941 10.3261 34.1255 10.5 34.1255V32.6812C10.499 32.4033 10.4394 32.1287 10.3252 31.8755C10.211 31.6222 10.0445 31.3961 9.83691 31.2114L5.40723 27.2671C4.92045 26.8412 4.5733 26.2787 4.41016 25.6528L1.55469 15.0083C1.49932 14.7851 1.471 14.5557 1.46973 14.3257C1.47235 13.8627 1.59731 13.4089 1.83105 13.0093C2.06491 12.6095 2.39932 12.2775 2.80176 12.0483C2.78851 11.933 2.78206 11.8168 2.78223 11.7007C2.78547 11.0992 2.99452 10.5169 3.37402 10.0503C3.75356 9.58373 4.28097 9.26092 4.86914 9.13525ZM35.2041 9.50146C35.7766 9.13976 36.4646 9.00873 37.1299 9.13525C37.7182 9.26094 38.2464 9.58361 38.626 10.0503C39.0055 10.5169 39.2136 11.0993 39.2168 11.7007C39.217 11.8168 39.2105 11.933 39.1973 12.0483C39.5997 12.2775 39.9351 12.6095 40.1689 13.0093C40.4026 13.4088 40.5267 13.8628 40.5293 14.3257C40.5291 14.5562 40.4983 14.7859 40.4375 15.0083L37.5898 25.6597C37.4249 26.2829 37.077 26.8426 36.5918 27.2671L32.1562 31.2114C31.9507 31.3974 31.7858 31.6243 31.6729 31.8774C31.56 32.1304 31.5012 32.4041 31.5 32.6812V34.1255C31.6739 34.1256 31.8409 34.194 31.9639 34.3169C32.0869 34.44 32.1562 34.6077 32.1562 34.7817V40.0317C32.1561 40.2056 32.0868 40.3727 31.9639 40.4956C31.8409 40.6185 31.6739 40.6879 31.5 40.688H22.3125C22.1386 40.688 21.9717 40.6184 21.8486 40.4956C21.7257 40.3727 21.6564 40.2056 21.6562 40.0317V34.7817C21.6562 34.6077 21.7256 34.44 21.8486 34.3169C21.9717 34.1941 22.1386 34.1255 22.3125 34.1255V27.9429C22.3142 26.9134 22.5846 25.9023 23.0967 25.0093C23.6088 24.1163 24.3449 23.3725 25.2324 22.8511L31.0342 19.4517C31.0743 19.4294 31.1155 19.409 31.1582 19.3921L34.0459 11.0845C34.2171 10.4291 34.6315 9.86331 35.2041 9.50146ZM11.1562 35.438V39.3755H19.0312V35.438H11.1562ZM22.9688 35.438V39.3755H30.8438V35.438H22.9688ZM4.82324 13.2769C4.52988 13.076 4.17093 12.9937 3.81934 13.0464C3.5264 13.1093 3.26382 13.2706 3.0752 13.5034C2.88663 13.7361 2.78309 14.0262 2.78223 14.3257C2.78121 14.4406 2.79412 14.5558 2.82129 14.6675L5.68262 25.3179C5.77961 25.6908 5.98541 26.0267 6.27344 26.2827L10.71 30.2271C11.0556 30.5357 11.3325 30.9137 11.5225 31.3364C11.7124 31.7593 11.8114 32.2176 11.8125 32.6812V34.1255H18.375V27.9429C18.3717 27.1423 18.1606 26.3563 17.7627 25.6616C17.3647 24.9669 16.7935 24.3868 16.1045 23.979L10.3027 20.5796C10.1533 20.4939 9.98824 20.4385 9.81738 20.4165C9.64651 20.3945 9.47293 20.4066 9.30664 20.4517C9.14031 20.4967 8.98408 20.5739 8.84766 20.6792C8.71122 20.7845 8.59746 20.9164 8.51172 21.0659C8.34131 21.3691 8.29373 21.726 8.37988 22.063C8.42547 22.2294 8.50353 22.3857 8.60938 22.522C8.71519 22.6581 8.84718 22.7717 8.99707 22.8569L12.7568 25.0298C12.8997 25.1206 13.0027 25.2628 13.043 25.4272C13.0831 25.5915 13.0582 25.7652 12.9736 25.9116C12.8889 26.0582 12.7504 26.1662 12.5879 26.2134C12.4254 26.2605 12.2505 26.243 12.1006 26.1646L8.34082 23.9927C8.04027 23.8221 7.77716 23.5927 7.56641 23.3188C7.35567 23.045 7.20115 22.7321 7.11328 22.3979C6.93466 21.7266 7.02931 21.0117 7.37598 20.4097L7.41504 20.3501L5.40039 14.1294C5.32243 13.7826 5.11645 13.4777 4.82324 13.2769ZM38.1738 13.0464C37.8291 12.9929 37.477 13.0715 37.1875 13.2661C36.8981 13.4607 36.6929 13.7569 36.6123 14.0962L34.584 20.3501L34.623 20.4097C34.9698 21.0118 35.0644 21.7265 34.8857 22.3979C34.7979 22.732 34.6442 23.0451 34.4336 23.3188C34.2229 23.5926 33.9597 23.8222 33.6592 23.9927L29.8984 26.1646C29.7485 26.243 29.5737 26.2605 29.4111 26.2134C29.2487 26.1662 29.111 26.058 29.0264 25.9116C28.9417 25.7651 28.9168 25.5916 28.957 25.4272C28.9973 25.2629 29.0995 25.1206 29.2422 25.0298L33.0029 22.8569C33.1526 22.7717 33.284 22.6579 33.3896 22.522C33.4955 22.3857 33.5736 22.2294 33.6191 22.063C33.7053 21.7261 33.6586 21.3691 33.4883 21.0659C33.402 20.9161 33.2866 20.7844 33.1494 20.6792C33.0122 20.574 32.8555 20.4971 32.6885 20.4526C32.5214 20.4081 32.3471 20.3964 32.1758 20.4194C32.0046 20.4425 31.8397 20.4995 31.6904 20.5864L25.8955 23.979C25.2065 24.3868 24.6353 24.9669 24.2373 25.6616C23.8394 26.3563 23.6283 27.1423 23.625 27.9429V34.1255H30.1875V32.6812C30.1889 32.2183 30.2869 31.761 30.4756 31.3384C30.6643 30.9157 30.9394 30.5371 31.2832 30.2271L35.7256 26.2827C36.0121 26.0281 36.2176 25.695 36.3164 25.3247L39.1709 14.6675C39.2036 14.5567 39.219 14.4411 39.2168 14.3257C39.2156 14.0252 39.1117 13.7343 38.9219 13.5015C38.732 13.2686 38.4679 13.108 38.1738 13.0464ZM25.6426 1.44287C26.5049 1.44281 27.3587 1.61353 28.1553 1.94385C28.9518 2.27416 29.676 2.75839 30.2852 3.36865C31.5133 4.59955 32.203 6.26754 32.2031 8.00635C32.2032 9.74527 31.5133 11.413 30.2852 12.644L21.4658 21.4644C21.3428 21.5874 21.175 21.6567 21.001 21.6567C20.8271 21.6566 20.6601 21.5873 20.5371 21.4644L11.7178 12.644C10.4895 11.4131 9.7998 9.74526 9.7998 8.00635C9.79988 6.26754 10.4896 4.5995 11.7178 3.36865C12.3268 2.75841 13.0503 2.27421 13.8467 1.94385C14.6431 1.61348 15.4971 1.44287 16.3594 1.44287C17.2216 1.44291 18.0757 1.61347 18.8721 1.94385C19.6684 2.27426 20.392 2.75835 21.001 3.36865C21.6101 2.7584 22.3335 2.27423 23.1299 1.94385C23.9264 1.61342 24.7803 1.44293 25.6426 1.44287ZM25.6445 2.75537C24.9549 2.75537 24.2718 2.89157 23.6348 3.15576C22.9977 3.41996 22.4188 3.80733 21.9316 4.29541L21.4648 4.76318C21.3419 4.88607 21.1748 4.95452 21.001 4.95459C20.8271 4.95459 20.6601 4.88597 20.5371 4.76318L20.0713 4.29639C19.5862 3.80634 19.0079 3.41825 18.3711 3.15381C17.7343 2.88941 17.0509 2.75402 16.3613 2.75635C15.3232 2.75605 14.3078 3.06369 13.4443 3.64014C12.5809 4.21658 11.9075 5.03666 11.5098 5.99561C11.1122 6.95443 11.008 8.00966 11.21 9.02783C11.4119 10.0461 11.911 10.9817 12.6445 11.7163L21.001 20.0728L29.3564 11.7153C30.3395 10.731 30.8916 9.3965 30.8916 8.00537C30.8916 6.61422 30.3395 5.27977 29.3564 4.29541C28.8694 3.8075 28.2911 3.41992 27.6543 3.15576C27.0173 2.89159 26.3341 2.7554 25.6445 2.75537ZM6.14062 10.6577C5.84615 10.4545 5.48592 10.37 5.13184 10.4214C4.8389 10.4843 4.57632 10.6456 4.3877 10.8784C4.19913 11.1111 4.09559 11.4012 4.09473 11.7007V11.7144C4.68607 11.7296 5.25677 11.9369 5.71973 12.3052C6.18252 12.6734 6.51323 13.1828 6.66113 13.7554L8.47852 19.3726C8.75557 19.2411 9.05263 19.1572 9.35742 19.1235L6.71973 11.5171C6.64211 11.1678 6.43514 10.861 6.14062 10.6577ZM36.8613 10.4214C36.5166 10.3679 36.1645 10.4465 35.875 10.6411C35.5856 10.8357 35.3804 11.1319 35.2998 11.4712L32.6416 19.1235C32.9464 19.1571 33.2434 19.2412 33.5205 19.3726L35.3516 13.7222C35.5002 13.1551 35.8303 12.652 36.291 12.2896C36.7517 11.9272 37.3183 11.7253 37.9043 11.7144V11.7007C37.9031 11.4002 37.7992 11.1093 37.6094 10.8765C37.4195 10.6436 37.1554 10.483 36.8613 10.4214ZM22.3125 5.90674C22.4864 5.90681 22.6534 5.97521 22.7764 6.09814C22.8994 6.22122 22.9688 6.38894 22.9688 6.56299V8.53174H24.9375C25.1114 8.53181 25.2784 8.60021 25.4014 8.72314C25.5244 8.84622 25.5938 9.01394 25.5938 9.18799V11.813C25.5936 11.9869 25.5243 12.1539 25.4014 12.2769C25.2784 12.3998 25.1114 12.4692 24.9375 12.4692H22.9688V14.438C22.9686 14.6119 22.8993 14.7789 22.7764 14.9019C22.6534 15.0248 22.4864 15.0942 22.3125 15.0942H19.6875C19.5136 15.0942 19.3467 15.0247 19.2236 14.9019C19.1007 14.7789 19.0314 14.6119 19.0312 14.438V12.4692H17.0625C16.8886 12.4692 16.7217 12.3997 16.5986 12.2769C16.4757 12.1539 16.4064 11.9869 16.4062 11.813V9.18799C16.4062 9.01394 16.4756 8.84622 16.5986 8.72314C16.7217 8.60031 16.8886 8.53174 17.0625 8.53174H19.0312V6.56299C19.0312 6.38894 19.1006 6.22122 19.2236 6.09814C19.3467 5.97531 19.5136 5.90674 19.6875 5.90674H22.3125ZM20.3438 7.21924V9.18799C20.3436 9.36186 20.2743 9.5289 20.1514 9.65186C20.0284 9.77479 19.8614 9.84417 19.6875 9.84424H17.7188V11.1567H19.6875C19.8614 11.1568 20.0284 11.2252 20.1514 11.3481C20.2744 11.4712 20.3438 11.6389 20.3438 11.813V13.7817H21.6562V11.813C21.6562 11.6389 21.7256 11.4712 21.8486 11.3481C21.9717 11.2253 22.1386 11.1567 22.3125 11.1567H24.2812V9.84424H22.3125C22.1386 9.84424 21.9717 9.77469 21.8486 9.65186C21.7257 9.5289 21.6564 9.36186 21.6562 9.18799V7.21924H20.3438Z"/>
</mask>
<path d="M4.86914 9.13525C5.54322 9.0107 6.23975 9.14744 6.81641 9.51807C7.39293 9.8887 7.80698 10.4656 7.97363 11.1304L10.8408 19.3921C10.8802 19.4118 10.9264 19.4251 10.9658 19.4448L16.7666 22.8511C17.6543 23.3725 18.3912 24.1162 18.9033 25.0093C19.4154 25.9023 19.6858 26.9135 19.6875 27.9429V34.1255C19.8614 34.1256 20.0284 34.194 20.1514 34.3169C20.2744 34.44 20.3438 34.6077 20.3438 34.7817V40.0317C20.3436 40.2056 20.2743 40.3727 20.1514 40.4956C20.0284 40.6185 19.8614 40.6879 19.6875 40.688H10.5C10.3261 40.688 10.1592 40.6184 10.0361 40.4956C9.91318 40.3727 9.84388 40.2056 9.84375 40.0317V34.7817C9.84375 34.6077 9.91306 34.44 10.0361 34.3169C10.1592 34.1941 10.3261 34.1255 10.5 34.1255V32.6812C10.499 32.4033 10.4394 32.1287 10.3252 31.8755C10.211 31.6222 10.0445 31.3961 9.83691 31.2114L5.40723 27.2671C4.92045 26.8412 4.5733 26.2787 4.41016 25.6528L1.55469 15.0083C1.49932 14.7851 1.471 14.5557 1.46973 14.3257C1.47235 13.8627 1.59731 13.4089 1.83105 13.0093C2.06491 12.6095 2.39932 12.2775 2.80176 12.0483C2.78851 11.933 2.78206 11.8168 2.78223 11.7007C2.78547 11.0992 2.99452 10.5169 3.37402 10.0503C3.75356 9.58373 4.28097 9.26092 4.86914 9.13525ZM35.2041 9.50146C35.7766 9.13976 36.4646 9.00873 37.1299 9.13525C37.7182 9.26094 38.2464 9.58361 38.626 10.0503C39.0055 10.5169 39.2136 11.0993 39.2168 11.7007C39.217 11.8168 39.2105 11.933 39.1973 12.0483C39.5997 12.2775 39.9351 12.6095 40.1689 13.0093C40.4026 13.4088 40.5267 13.8628 40.5293 14.3257C40.5291 14.5562 40.4983 14.7859 40.4375 15.0083L37.5898 25.6597C37.4249 26.2829 37.077 26.8426 36.5918 27.2671L32.1562 31.2114C31.9507 31.3974 31.7858 31.6243 31.6729 31.8774C31.56 32.1304 31.5012 32.4041 31.5 32.6812V34.1255C31.6739 34.1256 31.8409 34.194 31.9639 34.3169C32.0869 34.44 32.1562 34.6077 32.1562 34.7817V40.0317C32.1561 40.2056 32.0868 40.3727 31.9639 40.4956C31.8409 40.6185 31.6739 40.6879 31.5 40.688H22.3125C22.1386 40.688 21.9717 40.6184 21.8486 40.4956C21.7257 40.3727 21.6564 40.2056 21.6562 40.0317V34.7817C21.6562 34.6077 21.7256 34.44 21.8486 34.3169C21.9717 34.1941 22.1386 34.1255 22.3125 34.1255V27.9429C22.3142 26.9134 22.5846 25.9023 23.0967 25.0093C23.6088 24.1163 24.3449 23.3725 25.2324 22.8511L31.0342 19.4517C31.0743 19.4294 31.1155 19.409 31.1582 19.3921L34.0459 11.0845C34.2171 10.4291 34.6315 9.86331 35.2041 9.50146ZM11.1562 35.438V39.3755H19.0312V35.438H11.1562ZM22.9688 35.438V39.3755H30.8438V35.438H22.9688ZM4.82324 13.2769C4.52988 13.076 4.17093 12.9937 3.81934 13.0464C3.5264 13.1093 3.26382 13.2706 3.0752 13.5034C2.88663 13.7361 2.78309 14.0262 2.78223 14.3257C2.78121 14.4406 2.79412 14.5558 2.82129 14.6675L5.68262 25.3179C5.77961 25.6908 5.98541 26.0267 6.27344 26.2827L10.71 30.2271C11.0556 30.5357 11.3325 30.9137 11.5225 31.3364C11.7124 31.7593 11.8114 32.2176 11.8125 32.6812V34.1255H18.375V27.9429C18.3717 27.1423 18.1606 26.3563 17.7627 25.6616C17.3647 24.9669 16.7935 24.3868 16.1045 23.979L10.3027 20.5796C10.1533 20.4939 9.98824 20.4385 9.81738 20.4165C9.64651 20.3945 9.47293 20.4066 9.30664 20.4517C9.14031 20.4967 8.98408 20.5739 8.84766 20.6792C8.71122 20.7845 8.59746 20.9164 8.51172 21.0659C8.34131 21.3691 8.29373 21.726 8.37988 22.063C8.42547 22.2294 8.50353 22.3857 8.60938 22.522C8.71519 22.6581 8.84718 22.7717 8.99707 22.8569L12.7568 25.0298C12.8997 25.1206 13.0027 25.2628 13.043 25.4272C13.0831 25.5915 13.0582 25.7652 12.9736 25.9116C12.8889 26.0582 12.7504 26.1662 12.5879 26.2134C12.4254 26.2605 12.2505 26.243 12.1006 26.1646L8.34082 23.9927C8.04027 23.8221 7.77716 23.5927 7.56641 23.3188C7.35567 23.045 7.20115 22.7321 7.11328 22.3979C6.93466 21.7266 7.02931 21.0117 7.37598 20.4097L7.41504 20.3501L5.40039 14.1294C5.32243 13.7826 5.11645 13.4777 4.82324 13.2769ZM38.1738 13.0464C37.8291 12.9929 37.477 13.0715 37.1875 13.2661C36.8981 13.4607 36.6929 13.7569 36.6123 14.0962L34.584 20.3501L34.623 20.4097C34.9698 21.0118 35.0644 21.7265 34.8857 22.3979C34.7979 22.732 34.6442 23.0451 34.4336 23.3188C34.2229 23.5926 33.9597 23.8222 33.6592 23.9927L29.8984 26.1646C29.7485 26.243 29.5737 26.2605 29.4111 26.2134C29.2487 26.1662 29.111 26.058 29.0264 25.9116C28.9417 25.7651 28.9168 25.5916 28.957 25.4272C28.9973 25.2629 29.0995 25.1206 29.2422 25.0298L33.0029 22.8569C33.1526 22.7717 33.284 22.6579 33.3896 22.522C33.4955 22.3857 33.5736 22.2294 33.6191 22.063C33.7053 21.7261 33.6586 21.3691 33.4883 21.0659C33.402 20.9161 33.2866 20.7844 33.1494 20.6792C33.0122 20.574 32.8555 20.4971 32.6885 20.4526C32.5214 20.4081 32.3471 20.3964 32.1758 20.4194C32.0046 20.4425 31.8397 20.4995 31.6904 20.5864L25.8955 23.979C25.2065 24.3868 24.6353 24.9669 24.2373 25.6616C23.8394 26.3563 23.6283 27.1423 23.625 27.9429V34.1255H30.1875V32.6812C30.1889 32.2183 30.2869 31.761 30.4756 31.3384C30.6643 30.9157 30.9394 30.5371 31.2832 30.2271L35.7256 26.2827C36.0121 26.0281 36.2176 25.695 36.3164 25.3247L39.1709 14.6675C39.2036 14.5567 39.219 14.4411 39.2168 14.3257C39.2156 14.0252 39.1117 13.7343 38.9219 13.5015C38.732 13.2686 38.4679 13.108 38.1738 13.0464ZM25.6426 1.44287C26.5049 1.44281 27.3587 1.61353 28.1553 1.94385C28.9518 2.27416 29.676 2.75839 30.2852 3.36865C31.5133 4.59955 32.203 6.26754 32.2031 8.00635C32.2032 9.74527 31.5133 11.413 30.2852 12.644L21.4658 21.4644C21.3428 21.5874 21.175 21.6567 21.001 21.6567C20.8271 21.6566 20.6601 21.5873 20.5371 21.4644L11.7178 12.644C10.4895 11.4131 9.7998 9.74526 9.7998 8.00635C9.79988 6.26754 10.4896 4.5995 11.7178 3.36865C12.3268 2.75841 13.0503 2.27421 13.8467 1.94385C14.6431 1.61348 15.4971 1.44287 16.3594 1.44287C17.2216 1.44291 18.0757 1.61347 18.8721 1.94385C19.6684 2.27426 20.392 2.75835 21.001 3.36865C21.6101 2.7584 22.3335 2.27423 23.1299 1.94385C23.9264 1.61342 24.7803 1.44293 25.6426 1.44287ZM25.6445 2.75537C24.9549 2.75537 24.2718 2.89157 23.6348 3.15576C22.9977 3.41996 22.4188 3.80733 21.9316 4.29541L21.4648 4.76318C21.3419 4.88607 21.1748 4.95452 21.001 4.95459C20.8271 4.95459 20.6601 4.88597 20.5371 4.76318L20.0713 4.29639C19.5862 3.80634 19.0079 3.41825 18.3711 3.15381C17.7343 2.88941 17.0509 2.75402 16.3613 2.75635C15.3232 2.75605 14.3078 3.06369 13.4443 3.64014C12.5809 4.21658 11.9075 5.03666 11.5098 5.99561C11.1122 6.95443 11.008 8.00966 11.21 9.02783C11.4119 10.0461 11.911 10.9817 12.6445 11.7163L21.001 20.0728L29.3564 11.7153C30.3395 10.731 30.8916 9.3965 30.8916 8.00537C30.8916 6.61422 30.3395 5.27977 29.3564 4.29541C28.8694 3.8075 28.2911 3.41992 27.6543 3.15576C27.0173 2.89159 26.3341 2.7554 25.6445 2.75537ZM6.14062 10.6577C5.84615 10.4545 5.48592 10.37 5.13184 10.4214C4.8389 10.4843 4.57632 10.6456 4.3877 10.8784C4.19913 11.1111 4.09559 11.4012 4.09473 11.7007V11.7144C4.68607 11.7296 5.25677 11.9369 5.71973 12.3052C6.18252 12.6734 6.51323 13.1828 6.66113 13.7554L8.47852 19.3726C8.75557 19.2411 9.05263 19.1572 9.35742 19.1235L6.71973 11.5171C6.64211 11.1678 6.43514 10.861 6.14062 10.6577ZM36.8613 10.4214C36.5166 10.3679 36.1645 10.4465 35.875 10.6411C35.5856 10.8357 35.3804 11.1319 35.2998 11.4712L32.6416 19.1235C32.9464 19.1571 33.2434 19.2412 33.5205 19.3726L35.3516 13.7222C35.5002 13.1551 35.8303 12.652 36.291 12.2896C36.7517 11.9272 37.3183 11.7253 37.9043 11.7144V11.7007C37.9031 11.4002 37.7992 11.1093 37.6094 10.8765C37.4195 10.6436 37.1554 10.483 36.8613 10.4214ZM22.3125 5.90674C22.4864 5.90681 22.6534 5.97521 22.7764 6.09814C22.8994 6.22122 22.9688 6.38894 22.9688 6.56299V8.53174H24.9375C25.1114 8.53181 25.2784 8.60021 25.4014 8.72314C25.5244 8.84622 25.5938 9.01394 25.5938 9.18799V11.813C25.5936 11.9869 25.5243 12.1539 25.4014 12.2769C25.2784 12.3998 25.1114 12.4692 24.9375 12.4692H22.9688V14.438C22.9686 14.6119 22.8993 14.7789 22.7764 14.9019C22.6534 15.0248 22.4864 15.0942 22.3125 15.0942H19.6875C19.5136 15.0942 19.3467 15.0247 19.2236 14.9019C19.1007 14.7789 19.0314 14.6119 19.0312 14.438V12.4692H17.0625C16.8886 12.4692 16.7217 12.3997 16.5986 12.2769C16.4757 12.1539 16.4064 11.9869 16.4062 11.813V9.18799C16.4062 9.01394 16.4756 8.84622 16.5986 8.72314C16.7217 8.60031 16.8886 8.53174 17.0625 8.53174H19.0312V6.56299C19.0312 6.38894 19.1006 6.22122 19.2236 6.09814C19.3467 5.97531 19.5136 5.90674 19.6875 5.90674H22.3125ZM20.3438 7.21924V9.18799C20.3436 9.36186 20.2743 9.5289 20.1514 9.65186C20.0284 9.77479 19.8614 9.84417 19.6875 9.84424H17.7188V11.1567H19.6875C19.8614 11.1568 20.0284 11.2252 20.1514 11.3481C20.2744 11.4712 20.3438 11.6389 20.3438 11.813V13.7817H21.6562V11.813C21.6562 11.6389 21.7256 11.4712 21.8486 11.3481C21.9717 11.2253 22.1386 11.1567 22.3125 11.1567H24.2812V9.84424H22.3125C22.1386 9.84424 21.9717 9.77469 21.8486 9.65186C21.7257 9.5289 21.6564 9.36186 21.6562 9.18799V7.21924H20.3438Z" fill="url(#paint0_linear_7856_78)"/>
<path d="M4.86914 9.13525L4.85096 9.03688L4.84825 9.03746L4.86914 9.13525ZM6.81641 9.51807L6.87048 9.43395L6.87047 9.43394L6.81641 9.51807ZM7.97363 11.1304L7.87625 11.1548L7.87916 11.1632L7.97363 11.1304ZM10.8408 19.3921L10.7463 19.4249L10.7597 19.4633L10.7961 19.4815L10.8408 19.3921ZM10.9658 19.4448L11.0166 19.3584L11.0105 19.3554L10.9658 19.4448ZM16.7666 22.8511L16.8173 22.7648L16.8172 22.7648L16.7666 22.8511ZM18.9033 25.0093L18.9901 24.9595L18.9901 24.9595L18.9033 25.0093ZM19.6875 27.9429H19.7875V27.9427L19.6875 27.9429ZM19.6875 34.1255H19.5875V34.2254L19.6875 34.2255L19.6875 34.1255ZM20.1514 34.3169L20.2221 34.2462L20.2221 34.2462L20.1514 34.3169ZM20.3438 40.0317L20.4438 40.0318V40.0317H20.3438ZM20.1514 40.4956L20.2221 40.5663L20.2221 40.5663L20.1514 40.4956ZM19.6875 40.688V40.788H19.6875L19.6875 40.688ZM10.0361 40.4956L9.96542 40.5663L9.96548 40.5664L10.0361 40.4956ZM9.84375 40.0317H9.74375V40.0318L9.84375 40.0317ZM10.0361 34.3169L9.96548 34.2461L9.96542 34.2462L10.0361 34.3169ZM10.5 34.1255V34.2255H10.6V34.1255H10.5ZM10.5 32.6812H10.6L10.6 32.6808L10.5 32.6812ZM10.3252 31.8755L10.4164 31.8344L10.4164 31.8344L10.3252 31.8755ZM9.83691 31.2114L9.77041 31.2861L9.77044 31.2861L9.83691 31.2114ZM5.40723 27.2671L5.47373 27.1924L5.47308 27.1918L5.40723 27.2671ZM4.41016 25.6528L4.50693 25.6276L4.50674 25.6269L4.41016 25.6528ZM1.55469 15.0083L1.45761 15.0324L1.4581 15.0342L1.55469 15.0083ZM1.46973 14.3257L1.36972 14.3251L1.36973 14.3262L1.46973 14.3257ZM1.83105 13.0093L1.74474 12.9588L1.74474 12.9588L1.83105 13.0093ZM2.80176 12.0483L2.85125 12.1352L2.90865 12.1025L2.9011 12.0369L2.80176 12.0483ZM2.78223 11.7007L2.68223 11.7001L2.68223 11.7005L2.78223 11.7007ZM3.37402 10.0503L3.29645 9.98719L3.29644 9.9872L3.37402 10.0503ZM35.2041 9.50146L35.1507 9.41693L35.1507 9.41693L35.2041 9.50146ZM37.1299 9.13525L37.1508 9.03744L37.1486 9.03701L37.1299 9.13525ZM38.626 10.0503L38.7036 9.9872L38.7036 9.9872L38.626 10.0503ZM39.2168 11.7007L39.3168 11.7005L39.3168 11.7001L39.2168 11.7007ZM39.1973 12.0483L39.0979 12.0369L39.0904 12.1025L39.1478 12.1352L39.1973 12.0483ZM40.1689 13.0093L40.2553 12.9588L40.2553 12.9588L40.1689 13.0093ZM40.5293 14.3257L40.6293 14.3258L40.6293 14.3251L40.5293 14.3257ZM40.4375 15.0083L40.341 14.9819L40.3409 14.9825L40.4375 15.0083ZM37.5898 25.6597L37.4932 25.6338L37.4932 25.6341L37.5898 25.6597ZM36.5918 27.2671L36.5259 27.1918L36.5253 27.1924L36.5918 27.2671ZM32.1562 31.2114L32.0898 31.1367L32.0892 31.1373L32.1562 31.2114ZM31.6729 31.8774L31.5815 31.8367L31.5815 31.8367L31.6729 31.8774ZM31.5 32.6812L31.4 32.6807V32.6812H31.5ZM31.5 34.1255H31.4V34.2254L31.5 34.2255L31.5 34.1255ZM31.9639 34.3169L32.0346 34.2462L32.0346 34.2462L31.9639 34.3169ZM32.1562 40.0317L32.2563 40.0318V40.0317H32.1562ZM31.9639 40.4956L32.0346 40.5663L32.0346 40.5663L31.9639 40.4956ZM31.5 40.688V40.788H31.5L31.5 40.688ZM21.8486 40.4956L21.7779 40.5663L21.778 40.5664L21.8486 40.4956ZM21.6562 40.0317H21.5562V40.0318L21.6562 40.0317ZM21.8486 34.3169L21.778 34.2461L21.7779 34.2462L21.8486 34.3169ZM22.3125 34.1255V34.2255H22.4125V34.1255H22.3125ZM22.3125 27.9429L22.2125 27.9427V27.9429H22.3125ZM23.0967 25.0093L23.0099 24.9595V24.9595L23.0967 25.0093ZM25.2324 22.8511L25.1819 22.7648L25.1818 22.7649L25.2324 22.8511ZM31.0342 19.4517L30.9856 19.3642L30.9836 19.3654L31.0342 19.4517ZM31.1582 19.3921L31.1951 19.485L31.2376 19.4681L31.2527 19.4249L31.1582 19.3921ZM34.0459 11.0845L34.1407 11.1174L34.1427 11.1098L34.0459 11.0845ZM11.1562 35.438V35.338H11.0562V35.438H11.1562ZM11.1562 39.3755H11.0562V39.4755H11.1562V39.3755ZM19.0312 39.3755V39.4755H19.1313V39.3755H19.0312ZM19.0312 35.438H19.1313V35.338H19.0312V35.438ZM22.9688 35.438V35.338H22.8687V35.438H22.9688ZM22.9688 39.3755H22.8687V39.4755H22.9688V39.3755ZM30.8438 39.3755V39.4755H30.9438V39.3755H30.8438ZM30.8438 35.438H30.9438V35.338H30.8438V35.438ZM4.82324 13.2769L4.87976 13.1944L4.87974 13.1943L4.82324 13.2769ZM3.81934 13.0464L3.80448 12.9473L3.79834 12.9486L3.81934 13.0464ZM3.0752 13.5034L2.9975 13.4405H2.9975L3.0752 13.5034ZM2.78223 14.3257L2.88222 14.3266L2.88223 14.326L2.78223 14.3257ZM2.82129 14.6675L2.72409 14.6911L2.72471 14.6934L2.82129 14.6675ZM5.68262 25.3179L5.7794 25.2927L5.77919 25.2919L5.68262 25.3179ZM6.27344 26.2827L6.33988 26.208L6.33987 26.208L6.27344 26.2827ZM10.71 30.2271L10.7766 30.1525L10.7764 30.1523L10.71 30.2271ZM11.5225 31.3364L11.6137 31.2955L11.6137 31.2954L11.5225 31.3364ZM11.8125 32.6812H11.9125L11.9125 32.6809L11.8125 32.6812ZM11.8125 34.1255H11.7125V34.2255H11.8125V34.1255ZM18.375 34.1255V34.2255H18.475V34.1255H18.375ZM18.375 27.9429H18.475L18.475 27.9425L18.375 27.9429ZM17.7627 25.6616L17.8495 25.6119L17.8495 25.6119L17.7627 25.6616ZM16.1045 23.979L16.1554 23.8929L16.155 23.8927L16.1045 23.979ZM10.3027 20.5796L10.3533 20.4933L10.3525 20.4928L10.3027 20.5796ZM9.81738 20.4165L9.83015 20.3173H9.83014L9.81738 20.4165ZM9.30664 20.4517L9.28049 20.3551L9.28048 20.3551L9.30664 20.4517ZM8.84766 20.6792L8.78656 20.6L8.78655 20.6L8.84766 20.6792ZM8.51172 21.0659L8.42497 21.0162L8.42455 21.0169L8.51172 21.0659ZM8.37988 22.063L8.28299 22.0878L8.28344 22.0894L8.37988 22.063ZM8.60938 22.522L8.5304 22.5833L8.53042 22.5833L8.60938 22.522ZM8.99707 22.8569L9.04711 22.7704L9.04652 22.77L8.99707 22.8569ZM12.7568 25.0298L12.8105 24.9453L12.8069 24.9432L12.7568 25.0298ZM13.043 25.4272L13.1401 25.4035L13.1401 25.4035L13.043 25.4272ZM12.9736 25.9116L13.0602 25.9617L13.0602 25.9616L12.9736 25.9116ZM12.5879 26.2134L12.6157 26.3094L12.6158 26.3094L12.5879 26.2134ZM12.1006 26.1646L12.0505 26.2512L12.0542 26.2532L12.1006 26.1646ZM8.34082 23.9927L8.39084 23.9061L8.39017 23.9057L8.34082 23.9927ZM7.56641 23.3188L7.48716 23.3798H7.48716L7.56641 23.3188ZM7.11328 22.3979L7.20999 22.3725L7.20992 22.3722L7.11328 22.3979ZM7.37598 20.4097L7.29221 20.3547L7.28932 20.3598L7.37598 20.4097ZM7.41504 20.3501L7.49866 20.4049L7.52494 20.3649L7.51017 20.3193L7.41504 20.3501ZM5.40039 14.1294L5.30241 14.1514L5.30526 14.1602L5.40039 14.1294ZM38.1738 13.0464L38.1944 12.9484L38.1892 12.9476L38.1738 13.0464ZM37.1875 13.2661L37.1317 13.1831L37.1317 13.1831L37.1875 13.2661ZM36.6123 14.0962L36.7077 14.1271L36.7096 14.1193L36.6123 14.0962ZM34.584 20.3501L34.4889 20.3192L34.4741 20.3648L34.5004 20.4049L34.584 20.3501ZM34.623 20.4097L34.7099 20.3597L34.7067 20.3548L34.623 20.4097ZM34.8857 22.3979L34.7891 22.3722L34.789 22.3725L34.8857 22.3979ZM34.4336 23.3188L34.5128 23.3798L34.5129 23.3798L34.4336 23.3188ZM33.6592 23.9927L33.6098 23.9057L33.6092 23.9061L33.6592 23.9927ZM29.8984 26.1646L29.9448 26.2532L29.9484 26.2511L29.8984 26.1646ZM29.4111 26.2134L29.3832 26.3094L29.3833 26.3094L29.4111 26.2134ZM29.0264 25.9116L28.9398 25.9617L28.9398 25.9617L29.0264 25.9116ZM28.957 25.4272L28.8599 25.4035L28.8599 25.4035L28.957 25.4272ZM29.2422 25.0298L29.1921 24.9431L29.1885 24.9454L29.2422 25.0298ZM33.0029 22.8569L32.9535 22.77L32.9529 22.7703L33.0029 22.8569ZM33.3896 22.522L33.4686 22.5834L33.4686 22.5833L33.3896 22.522ZM33.6191 22.063L33.7156 22.0894L33.716 22.0878L33.6191 22.063ZM33.4883 21.0659L33.5755 21.0169L33.5749 21.016L33.4883 21.0659ZM33.1494 20.6792L33.2103 20.5999L33.2103 20.5998L33.1494 20.6792ZM32.6885 20.4526L32.7142 20.356L32.7142 20.356L32.6885 20.4526ZM32.1758 20.4194L32.1625 20.3203L32.1625 20.3203L32.1758 20.4194ZM31.6904 20.5864L31.6401 20.5L31.6399 20.5001L31.6904 20.5864ZM25.8955 23.979L25.845 23.8927L25.8446 23.8929L25.8955 23.979ZM24.2373 25.6616L24.1505 25.6119L24.1505 25.6119L24.2373 25.6616ZM23.625 27.9429L23.525 27.9425V27.9429H23.625ZM23.625 34.1255H23.525V34.2255H23.625V34.1255ZM30.1875 34.1255V34.2255H30.2875V34.1255H30.1875ZM30.1875 32.6812L30.0875 32.6809V32.6812H30.1875ZM30.4756 31.3384L30.3843 31.2976L30.3843 31.2976L30.4756 31.3384ZM31.2832 30.2271L31.2168 30.1523L31.2162 30.1528L31.2832 30.2271ZM35.7256 26.2827L35.792 26.3575L35.792 26.3575L35.7256 26.2827ZM36.3164 25.3247L36.2198 25.2988L36.2198 25.2989L36.3164 25.3247ZM39.1709 14.6675L39.075 14.6392L39.0743 14.6416L39.1709 14.6675ZM39.2168 14.3257L39.1168 14.3261L39.1168 14.3276L39.2168 14.3257ZM38.9219 13.5015L38.9994 13.4383L38.9994 13.4383L38.9219 13.5015ZM25.6426 1.44287L25.6426 1.34287L25.6426 1.44287ZM28.1553 1.94385L28.1936 1.85148L28.1936 1.85148L28.1553 1.94385ZM30.2852 3.36865L30.3559 3.29802L30.3559 3.298L30.2852 3.36865ZM32.2031 8.00635L32.3031 8.00634V8.00634L32.2031 8.00635ZM30.2852 12.644L30.3559 12.7147L30.356 12.7147L30.2852 12.644ZM21.4658 21.4644L21.5365 21.5351L21.5365 21.5351L21.4658 21.4644ZM21.001 21.6567L21.0009 21.7567H21.001V21.6567ZM20.5371 21.4644L20.4664 21.5351L20.4664 21.5351L20.5371 21.4644ZM11.7178 12.644L11.647 12.7147L11.6471 12.7147L11.7178 12.644ZM9.7998 8.00635L9.6998 8.00634V8.00635H9.7998ZM11.7178 3.36865L11.647 3.29801L11.647 3.29802L11.7178 3.36865ZM13.8467 1.94385L13.8084 1.85148L13.8084 1.85148L13.8467 1.94385ZM16.3594 1.44287L16.3594 1.34287H16.3594V1.44287ZM18.8721 1.94385L18.9104 1.85148L18.9104 1.85148L18.8721 1.94385ZM21.001 3.36865L20.9302 3.43929L21.001 3.51022L21.0718 3.4393L21.001 3.36865ZM23.1299 1.94385L23.0916 1.85148V1.85148L23.1299 1.94385ZM25.6445 2.75537L25.6445 2.65537H25.6445V2.75537ZM23.6348 3.15576L23.5965 3.06339V3.06339L23.6348 3.15576ZM21.9316 4.29541L21.8609 4.22476L21.8609 4.22477L21.9316 4.29541ZM21.4648 4.76318L21.5355 4.83392L21.5356 4.83382L21.4648 4.76318ZM21.001 4.95459V5.05459L21.001 5.05459L21.001 4.95459ZM20.5371 4.76318L20.4663 4.83382L20.4665 4.83396L20.5371 4.76318ZM20.0713 4.29639L20.0002 4.36674L20.0005 4.36702L20.0713 4.29639ZM18.3711 3.15381L18.4094 3.06145L18.4094 3.06145L18.3711 3.15381ZM16.3613 2.75635L16.3613 2.85635L16.3617 2.85635L16.3613 2.75635ZM13.4443 3.64014L13.3888 3.55697L13.3888 3.55697L13.4443 3.64014ZM11.5098 5.99561L11.4174 5.95729L11.4174 5.9573L11.5098 5.99561ZM11.21 9.02783L11.1119 9.04728L11.21 9.02783ZM12.6445 11.7163L12.5738 11.787L12.5738 11.787L12.6445 11.7163ZM21.001 20.0728L20.9303 20.1435L21.001 20.2142L21.0717 20.1435L21.001 20.0728ZM29.3564 11.7153L29.4272 11.786L29.4272 11.786L29.3564 11.7153ZM30.8916 8.00537L30.9916 8.00537V8.00537H30.8916ZM29.3564 4.29541L29.2857 4.36606L29.2857 4.36607L29.3564 4.29541ZM27.6543 3.15576L27.6926 3.06339L27.6926 3.06339L27.6543 3.15576ZM6.14062 10.6577L6.19742 10.5754L6.14062 10.6577ZM5.13184 10.4214L5.11745 10.3222L5.11084 10.3236L5.13184 10.4214ZM4.3877 10.8784L4.31 10.8155H4.31L4.3877 10.8784ZM4.09473 11.7007L3.99473 11.7004V11.7007H4.09473ZM4.09473 11.7144H3.99473V11.8118L4.09214 11.8143L4.09473 11.7144ZM5.71973 12.3052L5.78199 12.2269L5.78198 12.2269L5.71973 12.3052ZM6.66113 13.7554L6.56414 13.7804L6.56599 13.7862L6.66113 13.7554ZM8.47852 19.3726L8.38337 19.4033L8.41844 19.5117L8.52137 19.4629L8.47852 19.3726ZM9.35742 19.1235L9.36839 19.2229L9.49296 19.2092L9.4519 19.0908L9.35742 19.1235ZM6.71973 11.5171L6.62146 11.5389L6.62525 11.5499L6.71973 11.5171ZM36.8613 10.4214L36.8819 10.3234L36.8767 10.3226L36.8613 10.4214ZM35.875 10.6411L35.8192 10.5581L35.8192 10.5581L35.875 10.6411ZM35.2998 11.4712L35.3948 11.5042L35.3971 11.4943L35.2998 11.4712ZM32.6416 19.1235L32.5471 19.0907L32.506 19.2092L32.6306 19.2229L32.6416 19.1235ZM33.5205 19.3726L33.4777 19.4629L33.5805 19.5117L33.6156 19.4034L33.5205 19.3726ZM35.3516 13.7222L35.4468 13.753L35.4483 13.7475L35.3516 13.7222ZM36.291 12.2896L36.2292 12.211L36.2292 12.211L36.291 12.2896ZM37.9043 11.7144L37.9062 11.8143L38.0043 11.8125V11.7144H37.9043ZM37.9043 11.7007H38.0043L38.0043 11.7003L37.9043 11.7007ZM37.6094 10.8765L37.6869 10.8133L37.6869 10.8133L37.6094 10.8765ZM22.3125 5.90674L22.3125 5.80674H22.3125V5.90674ZM22.7764 6.09814L22.8471 6.02743L22.8471 6.02742L22.7764 6.09814ZM22.9688 8.53174H22.8687V8.63174H22.9688V8.53174ZM24.9375 8.53174L24.9375 8.43174H24.9375V8.53174ZM25.4014 8.72314L25.4721 8.65243L25.4721 8.65242L25.4014 8.72314ZM25.5938 11.813L25.6938 11.8131V11.813H25.5938ZM25.4014 12.2769L25.4721 12.3476L25.4721 12.3476L25.4014 12.2769ZM24.9375 12.4692V12.5692H24.9375L24.9375 12.4692ZM22.9688 12.4692V12.3692H22.8687V12.4692H22.9688ZM22.9688 14.438L23.0688 14.4381V14.438H22.9688ZM22.7764 14.9019L22.8471 14.9726L22.8471 14.9726L22.7764 14.9019ZM22.3125 15.0942V15.1942H22.3125L22.3125 15.0942ZM19.2236 14.9019L19.1529 14.9726L19.153 14.9726L19.2236 14.9019ZM19.0312 14.438H18.9312V14.4381L19.0312 14.438ZM19.0312 12.4692H19.1313V12.3692H19.0312V12.4692ZM16.5986 12.2769L16.5279 12.3476L16.528 12.3476L16.5986 12.2769ZM16.4062 11.813H16.3062V11.8131L16.4062 11.813ZM16.5986 8.72314L16.528 8.65238L16.5279 8.65243L16.5986 8.72314ZM19.0312 8.53174V8.63174H19.1313V8.53174H19.0312ZM19.2236 6.09814L19.153 6.02738L19.1529 6.02743L19.2236 6.09814ZM20.3438 7.21924V7.11924H20.2437V7.21924H20.3438ZM20.3438 9.18799L20.4438 9.18806V9.18799H20.3438ZM20.1514 9.65186L20.2221 9.72258L20.2221 9.72257L20.1514 9.65186ZM19.6875 9.84424V9.94424H19.6875L19.6875 9.84424ZM17.7188 9.84424V9.74424H17.6187V9.84424H17.7188ZM17.7188 11.1567H17.6187V11.2567H17.7188V11.1567ZM19.6875 11.1567L19.6875 11.0567H19.6875V11.1567ZM20.1514 11.3481L20.2221 11.2774L20.2221 11.2774L20.1514 11.3481ZM20.3438 13.7817H20.2437V13.8817H20.3438V13.7817ZM21.6562 13.7817V13.8817H21.7563V13.7817H21.6562ZM21.8486 11.3481L21.778 11.2774L21.7779 11.2774L21.8486 11.3481ZM24.2812 11.1567V11.2567H24.3813V11.1567H24.2812ZM24.2812 9.84424H24.3813V9.74424H24.2812V9.84424ZM21.8486 9.65186L21.7779 9.72257L21.778 9.72262L21.8486 9.65186ZM21.6562 9.18799H21.5562V9.18806L21.6562 9.18799ZM21.6562 7.21924H21.7563V7.11924H21.6562V7.21924ZM4.86914 9.13525L4.88731 9.23359C5.53641 9.11365 6.2071 9.24533 6.76234 9.60219L6.81641 9.51807L6.87047 9.43394C6.27239 9.04955 5.55003 8.90775 4.85097 9.03692L4.86914 9.13525ZM6.81641 9.51807L6.76233 9.60218C7.31746 9.95906 7.71616 10.5145 7.87663 11.1547L7.97363 11.1304L8.07063 11.1061C7.89779 10.4166 7.46839 9.81833 6.87048 9.43395L6.81641 9.51807ZM7.97363 11.1304L7.87916 11.1632L10.7463 19.4249L10.8408 19.3921L10.9353 19.3593L8.06811 11.0976L7.97363 11.1304ZM10.8408 19.3921L10.7961 19.4815C10.8208 19.4939 10.8468 19.5038 10.8673 19.5117C10.8896 19.5204 10.9064 19.5269 10.9211 19.5343L10.9658 19.4448L11.0105 19.3554C10.9858 19.343 10.9598 19.3331 10.9393 19.3252C10.917 19.3166 10.9002 19.31 10.8855 19.3026L10.8408 19.3921ZM10.9658 19.4448L10.9152 19.5311L16.716 22.9373L16.7666 22.8511L16.8172 22.7648L11.0165 19.3586L10.9658 19.4448ZM16.7666 22.8511L16.716 22.9373C17.5887 23.45 18.3131 24.181 18.8166 25.059L18.9033 25.0093L18.9901 24.9595C18.4692 24.0513 17.7199 23.2951 16.8173 22.7648L16.7666 22.8511ZM18.9033 25.0093L18.8166 25.059C19.32 25.9369 19.5858 26.9311 19.5875 27.943L19.6875 27.9429L19.7875 27.9427C19.7857 26.8959 19.5108 25.8676 18.9901 24.9595L18.9033 25.0093ZM19.6875 27.9429H19.5875V34.1255H19.6875H19.7875V27.9429H19.6875ZM19.6875 34.1255L19.6875 34.2255C19.8352 34.2256 19.9766 34.2836 20.0807 34.3876L20.1514 34.3169L20.2221 34.2462C20.0801 34.1043 19.8876 34.0256 19.6875 34.0255L19.6875 34.1255ZM20.1514 34.3169L20.0807 34.3876C20.1849 34.4919 20.2437 34.6341 20.2437 34.7817H20.3438H20.4438C20.4438 34.5812 20.3639 34.3881 20.2221 34.2462L20.1514 34.3169ZM20.3438 34.7817H20.2437V40.0317H20.3438H20.4438V34.7817H20.3438ZM20.3438 40.0317L20.2437 40.0317C20.2436 40.179 20.1849 40.3207 20.0807 40.4249L20.1514 40.4956L20.2221 40.5663C20.3638 40.4246 20.4436 40.2322 20.4438 40.0318L20.3438 40.0317ZM20.1514 40.4956L20.0807 40.4249C19.9764 40.5291 19.8348 40.5879 19.6875 40.588L19.6875 40.688L19.6875 40.788C19.888 40.7879 20.0804 40.708 20.2221 40.5663L20.1514 40.4956ZM19.6875 40.688V40.588H10.5V40.688V40.788H19.6875V40.688ZM10.5 40.688V40.588C10.3528 40.588 10.2112 40.5291 10.1068 40.4248L10.0361 40.4956L9.96548 40.5664C10.1071 40.7078 10.2995 40.788 10.5 40.788V40.688ZM10.0361 40.4956L10.1068 40.4249C10.0026 40.3207 9.94386 40.179 9.94375 40.0317L9.84375 40.0317L9.74375 40.0318C9.7439 40.2322 9.82374 40.4246 9.96542 40.5663L10.0361 40.4956ZM9.84375 40.0317H9.94375V34.7817H9.84375H9.74375V40.0317H9.84375ZM9.84375 34.7817H9.94375C9.94375 34.6341 10.0026 34.4919 10.1068 34.3876L10.0361 34.3169L9.96542 34.2462C9.82355 34.3881 9.74375 34.5812 9.74375 34.7817H9.84375ZM10.0361 34.3169L10.1068 34.3877C10.2109 34.2837 10.3524 34.2255 10.5 34.2255V34.1255V34.0255C10.2998 34.0255 10.1074 34.1044 9.96548 34.2461L10.0361 34.3169ZM10.5 34.1255H10.6V32.6812H10.5H10.4V34.1255H10.5ZM10.5 32.6812L10.6 32.6808C10.599 32.3889 10.5363 32.1004 10.4164 31.8344L10.3252 31.8755L10.234 31.9166C10.3425 32.1571 10.3991 32.4178 10.4 32.6815L10.5 32.6812ZM10.3252 31.8755L10.4164 31.8344C10.2964 31.5683 10.1214 31.3307 9.90339 31.1367L9.83691 31.2114L9.77044 31.2861C9.96754 31.4615 10.1257 31.6762 10.234 31.9166L10.3252 31.8755ZM9.83691 31.2114L9.90341 31.1367L5.47373 27.1924L5.40723 27.2671L5.34073 27.3418L9.77041 31.2861L9.83691 31.2114ZM5.40723 27.2671L5.47308 27.1918C5.00142 26.7791 4.66502 26.2341 4.50692 25.6276L4.41016 25.6528L4.31339 25.6781C4.48158 26.3233 4.83949 26.9032 5.34138 27.3423L5.40723 27.2671ZM4.41016 25.6528L4.50674 25.6269L1.65127 14.9824L1.55469 15.0083L1.4581 15.0342L4.31357 25.6787L4.41016 25.6528ZM1.55469 15.0083L1.65175 14.9842C1.59831 14.7688 1.57096 14.5473 1.56973 14.3251L1.46973 14.3257L1.36973 14.3262C1.37105 14.5641 1.40033 14.8013 1.45763 15.0324L1.55469 15.0083ZM1.46973 14.3257L1.56972 14.3262C1.57224 13.8809 1.69244 13.4443 1.91737 13.0598L1.83105 13.0093L1.74474 12.9588C1.50217 13.3735 1.37245 13.8445 1.36973 14.3251L1.46973 14.3257ZM1.83105 13.0093L1.91737 13.0598C2.14244 12.6751 2.4642 12.3557 2.85125 12.1352L2.80176 12.0483L2.75227 11.9614C2.33444 12.1994 1.98738 12.544 1.74474 12.9588L1.83105 13.0093ZM2.80176 12.0483L2.9011 12.0369C2.8883 11.9255 2.88206 11.8131 2.88223 11.7008L2.78223 11.7007L2.68223 11.7005C2.68205 11.8204 2.68871 11.9405 2.70241 12.0598L2.80176 12.0483ZM2.78223 11.7007L2.88223 11.7012C2.88534 11.1226 3.08646 10.5624 3.4516 10.1134L3.37402 10.0503L3.29644 9.9872C2.90258 10.4715 2.68559 11.0759 2.68223 11.7001L2.78223 11.7007ZM3.37402 10.0503L3.4516 10.1134C3.81675 9.66452 4.32416 9.35395 4.89004 9.23305L4.86914 9.13525L4.84825 9.03746C4.23778 9.1679 3.69037 9.50294 3.29645 9.98719L3.37402 10.0503ZM35.2041 9.50146L35.2575 9.586C35.8086 9.23782 36.4709 9.11171 37.1112 9.23349L37.1299 9.13525L37.1486 9.03701C36.4584 8.90575 35.7446 9.04169 35.1507 9.41693L35.2041 9.50146ZM37.1299 9.13525L37.109 9.23305C37.675 9.35398 38.1833 9.66445 38.5484 10.1134L38.626 10.0503L38.7036 9.9872C38.3096 9.50277 37.7613 9.1679 37.1508 9.03746L37.1299 9.13525ZM38.626 10.0503L38.5484 10.1134C38.9134 10.5623 39.1137 11.1225 39.1168 11.7012L39.2168 11.7007L39.3168 11.7001C39.3134 11.076 39.0975 10.4715 38.7036 9.9872L38.626 10.0503ZM39.2168 11.7007L39.1168 11.7008C39.117 11.8131 39.1107 11.9255 39.0979 12.0369L39.1973 12.0483L39.2966 12.0598C39.3103 11.9405 39.317 11.8204 39.3168 11.7005L39.2168 11.7007ZM39.1973 12.0483L39.1478 12.1352C39.5349 12.3557 39.8576 12.6751 40.0826 13.0598L40.1689 13.0093L40.2553 12.9588C40.0126 12.5439 39.6645 12.1994 39.2468 11.9614L39.1973 12.0483ZM40.1689 13.0093L40.0826 13.0598C40.3074 13.4441 40.4268 13.8809 40.4293 14.3262L40.5293 14.3257L40.6293 14.3251C40.6266 13.8447 40.4978 13.3736 40.2553 12.9588L40.1689 13.0093ZM40.5293 14.3257L40.4293 14.3256C40.4291 14.5473 40.3995 14.7681 40.341 14.9819L40.4375 15.0083L40.534 15.0347C40.5971 14.8037 40.6291 14.5652 40.6293 14.3258L40.5293 14.3257ZM40.4375 15.0083L40.3409 14.9825L37.4932 25.6338L37.5898 25.6597L37.6865 25.6855L40.5341 15.0341L40.4375 15.0083ZM37.5898 25.6597L37.4932 25.6341C37.3334 26.238 36.9962 26.7804 36.5259 27.1918L36.5918 27.2671L36.6576 27.3423C37.1578 26.9047 37.5165 26.3278 37.6865 25.6852L37.5898 25.6597ZM36.5918 27.2671L36.5253 27.1924L32.0898 31.1367L32.1562 31.2114L32.2227 31.2862L36.6582 27.3418L36.5918 27.2671ZM32.1562 31.2114L32.0892 31.1373C31.8734 31.3325 31.7002 31.5708 31.5815 31.8367L31.6729 31.8774L31.7642 31.9182C31.8715 31.6778 32.0281 31.4623 32.2233 31.2856L32.1562 31.2114ZM31.6729 31.8774L31.5815 31.8367C31.463 32.1024 31.4013 32.3898 31.4 32.6807L31.5 32.6812L31.6 32.6816C31.6012 32.4184 31.657 32.1584 31.7642 31.9182L31.6729 31.8774ZM31.5 32.6812H31.4V34.1255H31.5H31.6V32.6812H31.5ZM31.5 34.1255L31.5 34.2255C31.6477 34.2256 31.7891 34.2836 31.8932 34.3876L31.9639 34.3169L32.0346 34.2462C31.8926 34.1043 31.7001 34.0256 31.5 34.0255L31.5 34.1255ZM31.9639 34.3169L31.8932 34.3876C31.9974 34.4919 32.0562 34.6341 32.0562 34.7817H32.1562H32.2563C32.2563 34.5812 32.1764 34.3881 32.0346 34.2462L31.9639 34.3169ZM32.1562 34.7817H32.0562V40.0317H32.1562H32.2563V34.7817H32.1562ZM32.1562 40.0317L32.0562 40.0317C32.0561 40.179 31.9974 40.3207 31.8932 40.4249L31.9639 40.4956L32.0346 40.5663C32.1763 40.4246 32.2561 40.2322 32.2563 40.0318L32.1562 40.0317ZM31.9639 40.4956L31.8932 40.4249C31.7889 40.5291 31.6473 40.5879 31.5 40.588L31.5 40.688L31.5 40.788C31.7005 40.7879 31.8929 40.708 32.0346 40.5663L31.9639 40.4956ZM31.5 40.688V40.588H22.3125V40.688V40.788H31.5V40.688ZM22.3125 40.688V40.588C22.1653 40.588 22.0237 40.5291 21.9193 40.4248L21.8486 40.4956L21.778 40.5664C21.9196 40.7078 22.112 40.788 22.3125 40.788V40.688ZM21.8486 40.4956L21.9193 40.4249C21.8151 40.3207 21.7564 40.179 21.7563 40.0317L21.6562 40.0317L21.5562 40.0318C21.5564 40.2322 21.6362 40.4246 21.7779 40.5663L21.8486 40.4956ZM21.6562 40.0317H21.7563V34.7817H21.6562H21.5562V40.0317H21.6562ZM21.6562 34.7817H21.7563C21.7563 34.6341 21.8151 34.4919 21.9193 34.3876L21.8486 34.3169L21.7779 34.2462C21.6361 34.3881 21.5562 34.5812 21.5562 34.7817H21.6562ZM21.8486 34.3169L21.9193 34.3877C22.0234 34.2837 22.1649 34.2255 22.3125 34.2255V34.1255V34.0255C22.1123 34.0255 21.9199 34.1044 21.778 34.2461L21.8486 34.3169ZM22.3125 34.1255H22.4125V27.9429H22.3125H22.2125V34.1255H22.3125ZM22.3125 27.9429L22.4125 27.943C22.4142 26.931 22.68 25.937 23.1834 25.059L23.0967 25.0093L23.0099 24.9595C22.4892 25.8677 22.2143 26.8959 22.2125 27.9427L22.3125 27.9429ZM23.0967 25.0093L23.1834 25.059C23.6869 24.1811 24.4105 23.4499 25.2831 22.9373L25.2324 22.8511L25.1818 22.7649C24.2792 23.2951 23.5307 24.0515 23.0099 24.9595L23.0967 25.0093ZM25.2324 22.8511L25.283 22.9374L31.0847 19.5379L31.0342 19.4517L30.9836 19.3654L25.1819 22.7648L25.2324 22.8511ZM31.0342 19.4517L31.0827 19.5391C31.1201 19.5183 31.1574 19.5 31.1951 19.485L31.1582 19.3921L31.1213 19.2992C31.0737 19.3181 31.0285 19.3404 30.9857 19.3642L31.0342 19.4517ZM31.1582 19.3921L31.2527 19.4249L34.1404 11.1173L34.0459 11.0845L33.9514 11.0516L31.0637 19.3593L31.1582 19.3921ZM34.0459 11.0845L34.1427 11.1098C34.3075 10.479 34.7063 9.93433 35.2575 9.586L35.2041 9.50146L35.1507 9.41693C34.5567 9.79229 34.1268 10.3793 33.9491 11.0592L34.0459 11.0845ZM11.1562 35.438H11.0562V39.3755H11.1562H11.2563V35.438H11.1562ZM11.1562 39.3755V39.4755H19.0312V39.3755V39.2755H11.1562V39.3755ZM19.0312 39.3755H19.1313V35.438H19.0312H18.9312V39.3755H19.0312ZM19.0312 35.438V35.338H11.1562V35.438V35.538H19.0312V35.438ZM22.9688 35.438H22.8687V39.3755H22.9688H23.0688V35.438H22.9688ZM22.9688 39.3755V39.4755H30.8438V39.3755V39.2755H22.9688V39.3755ZM30.8438 39.3755H30.9438V35.438H30.8438H30.7437V39.3755H30.8438ZM30.8438 35.438V35.338H22.9688V35.438V35.538H30.8438V35.438ZM4.82324 13.2769L4.87974 13.1943C4.56551 12.9792 4.18107 12.891 3.80451 12.9475L3.81934 13.0464L3.83416 13.1453C4.16079 13.0963 4.49426 13.1728 4.76675 13.3594L4.82324 13.2769ZM3.81934 13.0464L3.79834 12.9486C3.48307 13.0163 3.20048 13.1899 2.9975 13.4405L3.0752 13.5034L3.15289 13.5664C3.32715 13.3513 3.56973 13.2023 3.84034 13.1442L3.81934 13.0464ZM3.0752 13.5034L2.9975 13.4405C2.79461 13.6909 2.68316 14.003 2.68223 14.3254L2.78223 14.3257L2.88223 14.326C2.88303 14.0493 2.97865 13.7814 3.15289 13.5664L3.0752 13.5034ZM2.78223 14.3257L2.68223 14.3248C2.68114 14.4478 2.69495 14.5712 2.72412 14.6911L2.82129 14.6675L2.91846 14.6438C2.89329 14.5404 2.88128 14.4335 2.88222 14.3266L2.78223 14.3257ZM2.82129 14.6675L2.72471 14.6934L5.58604 25.3438L5.68262 25.3179L5.77919 25.2919L2.91786 14.6415L2.82129 14.6675ZM5.68262 25.3179L5.58584 25.343C5.68782 25.7352 5.9042 26.0883 6.20701 26.3575L6.27344 26.2827L6.33987 26.208C6.06663 25.9651 5.8714 25.6464 5.7794 25.2927L5.68262 25.3179ZM6.27344 26.2827L6.20699 26.3574L10.6435 30.3018L10.71 30.2271L10.7764 30.1523L6.33988 26.208L6.27344 26.2827ZM10.71 30.2271L10.6434 30.3016C10.9786 30.601 11.2471 30.9675 11.4312 31.3774L11.5225 31.3364L11.6137 31.2954C11.418 30.8599 11.1327 30.4705 10.7766 30.1525L10.71 30.2271ZM11.5225 31.3364L11.4312 31.3774C11.6154 31.7875 11.7114 32.2319 11.7125 32.6814L11.8125 32.6812L11.9125 32.6809C11.9113 32.2033 11.8094 31.7311 11.6137 31.2955L11.5225 31.3364ZM11.8125 32.6812H11.7125V34.1255H11.8125H11.9125V32.6812H11.8125ZM11.8125 34.1255V34.2255H18.375V34.1255V34.0255H11.8125V34.1255ZM18.375 34.1255H18.475V27.9429H18.375H18.275V34.1255H18.375ZM18.375 27.9429L18.475 27.9425C18.4716 27.1246 18.256 26.3216 17.8495 25.6119L17.7627 25.6616L17.6759 25.7113C18.0652 26.391 18.2718 27.1601 18.275 27.9433L18.375 27.9429ZM17.7627 25.6616L17.8495 25.6119C17.4429 24.9022 16.8593 24.3096 16.1554 23.893L16.1045 23.979L16.0536 24.0651C16.7276 24.464 17.2865 25.0316 17.6759 25.7113L17.7627 25.6616ZM16.1045 23.979L16.155 23.8927L10.3533 20.4933L10.3027 20.5796L10.2522 20.6659L16.0539 24.0653L16.1045 23.979ZM10.3027 20.5796L10.3525 20.4928C10.1916 20.4006 10.014 20.341 9.83015 20.3173L9.81738 20.4165L9.80462 20.5157C9.96247 20.536 10.115 20.5872 10.253 20.6663L10.3027 20.5796ZM9.81738 20.4165L9.83014 20.3173C9.64616 20.2937 9.45937 20.3067 9.28049 20.3551L9.30664 20.4517L9.33279 20.5482C9.48649 20.5065 9.64685 20.4954 9.80462 20.5157L9.81738 20.4165ZM9.30664 20.4517L9.28048 20.3551C9.10163 20.4036 8.9335 20.4866 8.78656 20.6L8.84766 20.6792L8.90876 20.7584C9.03466 20.6612 9.17899 20.5899 9.3328 20.5482L9.30664 20.4517ZM8.84766 20.6792L8.78655 20.6C8.63943 20.7136 8.51707 20.8556 8.42497 21.0162L8.51172 21.0659L8.59847 21.1157C8.67786 20.9772 8.783 20.8554 8.90876 20.7584L8.84766 20.6792ZM8.51172 21.0659L8.42455 21.0169C8.24159 21.3424 8.19044 21.7258 8.283 22.0878L8.37988 22.063L8.47677 22.0382C8.39702 21.7263 8.44103 21.3958 8.59889 21.1149L8.51172 21.0659ZM8.37988 22.063L8.28344 22.0894C8.33248 22.2684 8.41646 22.4366 8.5304 22.5833L8.60938 22.522L8.68835 22.4606C8.59059 22.3348 8.51846 22.1904 8.47633 22.0366L8.37988 22.063ZM8.60938 22.522L8.53042 22.5833C8.64444 22.73 8.78651 22.8522 8.94762 22.9439L8.99707 22.8569L9.04652 22.77C8.90786 22.6911 8.78595 22.5862 8.68833 22.4606L8.60938 22.522ZM8.99707 22.8569L8.94703 22.9435L12.7068 25.1164L12.7568 25.0298L12.8069 24.9432L9.04711 22.7704L8.99707 22.8569ZM12.7568 25.0298L12.7032 25.1142C12.8245 25.1913 12.9118 25.312 12.9458 25.451L13.043 25.4272L13.1401 25.4035C13.0936 25.2137 12.9748 25.0499 12.8105 24.9454L12.7568 25.0298ZM13.043 25.4272L12.9458 25.451C12.9799 25.5902 12.9588 25.7374 12.887 25.8616L12.9736 25.9116L13.0602 25.9616C13.1577 25.7929 13.1864 25.5928 13.1401 25.4035L13.043 25.4272ZM12.9736 25.9116L12.8871 25.8616C12.8153 25.9857 12.698 26.0773 12.56 26.1173L12.5879 26.2134L12.6158 26.3094C12.8029 26.2551 12.9625 26.1307 13.0602 25.9617L12.9736 25.9116ZM12.5879 26.2134L12.56 26.1173C12.4223 26.1573 12.274 26.1424 12.1469 26.0759L12.1006 26.1646L12.0542 26.2532C12.227 26.3436 12.4284 26.3637 12.6157 26.3094L12.5879 26.2134ZM12.1006 26.1646L12.1506 26.078L8.39084 23.9061L8.34082 23.9927L8.2908 24.0793L12.0506 26.2511L12.1006 26.1646ZM8.34082 23.9927L8.39017 23.9057C8.10132 23.7418 7.84834 23.5212 7.64566 23.2579L7.56641 23.3188L7.48716 23.3798C7.70597 23.6642 7.97922 23.9025 8.29147 24.0797L8.34082 23.9927ZM7.56641 23.3188L7.64566 23.2579C7.44296 22.9945 7.29443 22.6937 7.20999 22.3725L7.11328 22.3979L7.01657 22.4234C7.10787 22.7706 7.26838 23.0955 7.48716 23.3798L7.56641 23.3188ZM7.11328 22.3979L7.20992 22.3722C7.0381 21.7264 7.12914 21.0388 7.46264 20.4596L7.37598 20.4097L7.28932 20.3598C6.92949 20.9847 6.83122 21.7267 7.01664 22.4237L7.11328 22.3979ZM7.37598 20.4097L7.4596 20.4645L7.49866 20.4049L7.41504 20.3501L7.33141 20.2953L7.29235 20.3548L7.37598 20.4097ZM7.41504 20.3501L7.51017 20.3193L5.49553 14.0986L5.40039 14.1294L5.30526 14.1602L7.3199 20.3809L7.41504 20.3501ZM5.40039 14.1294L5.49796 14.1075C5.41448 13.7361 5.1939 13.4096 4.87976 13.1944L4.82324 13.2769L4.76672 13.3594C5.039 13.5459 5.23038 13.8291 5.30283 14.1513L5.40039 14.1294ZM38.1738 13.0464L38.1892 12.9476C37.8196 12.8902 37.442 12.9745 37.1317 13.1831L37.1875 13.2661L37.2433 13.3491C37.5119 13.1685 37.8387 13.0956 38.1585 13.1452L38.1738 13.0464ZM37.1875 13.2661L37.1317 13.1831C36.8215 13.3917 36.6014 13.7094 36.515 14.0731L36.6123 14.0962L36.7096 14.1193C36.7844 13.8045 36.9748 13.5296 37.2433 13.3491L37.1875 13.2661ZM36.6123 14.0962L36.5172 14.0653L34.4889 20.3192L34.584 20.3501L34.6791 20.3809L36.7074 14.127L36.6123 14.0962ZM34.584 20.3501L34.5004 20.4049L34.5394 20.4645L34.623 20.4097L34.7067 20.3548L34.6676 20.2953L34.584 20.3501ZM34.623 20.4097L34.5364 20.4596C34.87 21.0388 34.9609 21.7263 34.7891 22.3722L34.8857 22.3979L34.9824 22.4237C35.1678 21.7267 35.0696 20.9847 34.7097 20.3598L34.623 20.4097ZM34.8857 22.3979L34.789 22.3725C34.7046 22.6937 34.5568 22.9947 34.3543 23.2579L34.4336 23.3188L34.5129 23.3798C34.7316 23.0955 34.8912 22.7703 34.9825 22.4234L34.8857 22.3979ZM34.4336 23.3188L34.3543 23.2579C34.1517 23.5212 33.8986 23.7418 33.6098 23.9057L33.6592 23.9927L33.7085 24.0796C34.0207 23.9025 34.2941 23.6641 34.5128 23.3798L34.4336 23.3188ZM33.6592 23.9927L33.6092 23.9061L29.8484 26.078L29.8984 26.1646L29.9484 26.2511L33.7092 24.0793L33.6592 23.9927ZM29.8984 26.1646L29.8521 26.0759C29.7249 26.1425 29.5768 26.1573 29.439 26.1173L29.4111 26.2134L29.3833 26.3094C29.5706 26.3638 29.772 26.3436 29.9448 26.2532L29.8984 26.1646ZM29.4111 26.2134L29.439 26.1174C29.3015 26.0774 29.1847 25.9857 29.1129 25.8616L29.0264 25.9116L28.9398 25.9617C29.0373 26.1303 29.196 26.255 29.3832 26.3094L29.4111 26.2134ZM29.0264 25.9116L29.1129 25.8616C29.0412 25.7374 29.0201 25.5903 29.0542 25.451L28.957 25.4272L28.8599 25.4035C28.8135 25.5929 28.8422 25.7929 28.9398 25.9617L29.0264 25.9116ZM28.957 25.4272L29.0542 25.451C29.0883 25.3118 29.1749 25.1911 29.2959 25.1142L29.2422 25.0298L29.1885 24.9454C29.0241 25.05 28.9063 25.2141 28.8599 25.4035L28.957 25.4272ZM29.2422 25.0298L29.2922 25.1164L33.053 22.9435L33.0029 22.8569L32.9529 22.7703L29.1922 24.9432L29.2422 25.0298ZM33.0029 22.8569L33.0524 22.9438C33.2135 22.8521 33.3549 22.7296 33.4686 22.5834L33.3896 22.522L33.3107 22.4606C33.2131 22.5862 33.0917 22.6913 32.9535 22.77L33.0029 22.8569ZM33.3896 22.522L33.4686 22.5833C33.5826 22.4366 33.6665 22.2684 33.7156 22.0894L33.6191 22.063L33.5227 22.0366C33.4806 22.1904 33.4084 22.3348 33.3107 22.4606L33.3896 22.522ZM33.6191 22.063L33.716 22.0878C33.8086 21.726 33.7584 21.3426 33.5755 21.0169L33.4883 21.0659L33.4011 21.1149C33.5588 21.3956 33.6021 21.7262 33.5223 22.0382L33.6191 22.063ZM33.4883 21.0659L33.5749 21.016C33.4821 20.8547 33.3579 20.7131 33.2103 20.5999L33.1494 20.6792L33.0886 20.7585C33.2153 20.8558 33.3219 20.9774 33.4016 21.1158L33.4883 21.0659ZM33.1494 20.6792L33.2103 20.5998C33.0626 20.4866 32.8939 20.4039 32.7142 20.356L32.6885 20.4526L32.6627 20.5493C32.8171 20.5904 32.9619 20.6614 33.0886 20.7586L33.1494 20.6792ZM32.6885 20.4526L32.7142 20.356C32.5347 20.3082 32.3471 20.2955 32.1625 20.3203L32.1758 20.4194L32.1891 20.5185C32.3471 20.4973 32.5082 20.5081 32.6627 20.5493L32.6885 20.4526ZM32.1758 20.4194L32.1625 20.3203C31.978 20.3451 31.8006 20.4066 31.6401 20.5L31.6904 20.5864L31.7407 20.6728C31.8788 20.5925 32.0311 20.5398 32.1891 20.5185L32.1758 20.4194ZM31.6904 20.5864L31.6399 20.5001L25.845 23.8927L25.8955 23.979L25.946 24.0653L31.741 20.6727L31.6904 20.5864ZM25.8955 23.979L25.8446 23.8929C25.1407 24.3096 24.5571 24.9022 24.1505 25.6119L24.2373 25.6616L24.3241 25.7113C24.7135 25.0316 25.2724 24.464 25.9464 24.0651L25.8955 23.979ZM24.2373 25.6616L24.1505 25.6119C23.744 26.3216 23.5284 27.1246 23.525 27.9425L23.625 27.9429L23.725 27.9433C23.7282 27.16 23.9347 26.391 24.3241 25.7113L24.2373 25.6616ZM23.625 27.9429H23.525V34.1255H23.625H23.725V27.9429H23.625ZM23.625 34.1255V34.2255H30.1875V34.1255V34.0255H23.625V34.1255ZM30.1875 34.1255H30.2875V32.6812H30.1875H30.0875V34.1255H30.1875ZM30.1875 32.6812L30.2875 32.6814C30.2888 32.2326 30.3839 31.789 30.5669 31.3791L30.4756 31.3384L30.3843 31.2976C30.1899 31.733 30.0889 32.2041 30.0875 32.6809L30.1875 32.6812ZM30.4756 31.3384L30.5669 31.3792C30.7499 30.9692 31.0168 30.602 31.3502 30.3013L31.2832 30.2271L31.2162 30.1528C30.8621 30.4721 30.5787 30.8622 30.3843 31.2976L30.4756 31.3384ZM31.2832 30.2271L31.3496 30.3018L35.792 26.3575L35.7256 26.2827L35.6592 26.2079L31.2168 30.1523L31.2832 30.2271ZM35.7256 26.2827L35.792 26.3575C36.0931 26.0899 36.3092 25.7398 36.413 25.3505L36.3164 25.3247L36.2198 25.2989C36.1261 25.6503 35.931 25.9664 35.6592 26.208L35.7256 26.2827ZM36.3164 25.3247L36.413 25.3506L39.2675 14.6934L39.1709 14.6675L39.0743 14.6416L36.2198 25.2988L36.3164 25.3247ZM39.1709 14.6675L39.2668 14.6958C39.3024 14.5752 39.3192 14.4493 39.3168 14.3238L39.2168 14.3257L39.1168 14.3276C39.1188 14.4329 39.1047 14.5383 39.075 14.6392L39.1709 14.6675ZM39.2168 14.3257L39.3168 14.3253C39.3155 14.002 39.2038 13.6889 38.9994 13.4383L38.9219 13.5015L38.8444 13.5647C39.0197 13.7797 39.1157 14.0485 39.1168 14.3261L39.2168 14.3257ZM38.9219 13.5015L38.9994 13.4383C38.795 13.1876 38.5108 13.0148 38.1943 12.9485L38.1738 13.0464L38.1533 13.1443C38.425 13.2012 38.669 13.3495 38.8444 13.5647L38.9219 13.5015ZM25.6426 1.44287L25.6426 1.54287C26.4917 1.54281 27.3325 1.71092 28.117 2.03622L28.1553 1.94385L28.1936 1.85148C27.3849 1.51614 26.5181 1.34281 25.6426 1.34287L25.6426 1.44287ZM28.1553 1.94385L28.117 2.03622C28.9014 2.36151 29.6145 2.83835 30.2144 3.4393L30.2852 3.36865L30.3559 3.298C29.7374 2.67842 29.0022 2.18682 28.1936 1.85148L28.1553 1.94385ZM30.2852 3.36865L30.2144 3.43928C31.4238 4.65143 32.103 6.29402 32.1031 8.00635L32.2031 8.00635L32.3031 8.00634C32.303 6.24105 31.6028 4.54767 30.3559 3.29802L30.2852 3.36865ZM32.2031 8.00635L32.1031 8.00635C32.1032 9.71878 31.4238 11.3611 30.2144 12.5734L30.2852 12.644L30.356 12.7147C31.6028 11.4649 32.3032 9.77176 32.3031 8.00634L32.2031 8.00635ZM30.2852 12.644L30.2144 12.5733L21.3951 21.3936L21.4658 21.4644L21.5365 21.5351L30.3559 12.7147L30.2852 12.644ZM21.4658 21.4644L21.3951 21.3936C21.2908 21.4979 21.1485 21.5567 21.001 21.5567V21.6567V21.7567C21.2015 21.7567 21.3947 21.6769 21.5365 21.5351L21.4658 21.4644ZM21.001 21.6567L21.001 21.5567C20.8537 21.5567 20.7121 21.4979 20.6078 21.3936L20.5371 21.4644L20.4664 21.5351C20.6081 21.6767 20.8005 21.7566 21.0009 21.7567L21.001 21.6567ZM20.5371 21.4644L20.6078 21.3936L11.7885 12.5733L11.7178 12.644L11.6471 12.7147L20.4664 21.5351L20.5371 21.4644ZM11.7178 12.644L11.7886 12.5734C10.579 11.3612 9.89981 9.71878 9.89981 8.00635H9.7998H9.6998C9.6998 9.77174 10.4 11.465 11.647 12.7147L11.7178 12.644ZM9.7998 8.00635L9.89981 8.00635C9.89988 6.29402 10.5791 4.65138 11.7886 3.43929L11.7178 3.36865L11.647 3.29802C10.4001 4.54762 9.69988 6.24106 9.6998 8.00634L9.7998 8.00635ZM11.7178 3.36865L11.7886 3.43929C12.3883 2.83836 13.1008 2.36154 13.885 2.03622L13.8467 1.94385L13.8084 1.85148C12.9999 2.18687 12.2653 2.67846 11.647 3.29801L11.7178 3.36865ZM13.8467 1.94385L13.885 2.03622C14.6693 1.71088 15.5103 1.54287 16.3594 1.54287V1.44287V1.34287C15.484 1.34287 14.6169 1.51609 13.8084 1.85148L13.8467 1.94385ZM16.3594 1.44287L16.3594 1.54287C17.2084 1.54291 18.0495 1.71087 18.8338 2.03622L18.8721 1.94385L18.9104 1.85148C18.1019 1.51608 17.2347 1.34291 16.3594 1.34287L16.3594 1.44287ZM18.8721 1.94385L18.8337 2.03621C19.618 2.36159 20.3305 2.8383 20.9302 3.43929L21.001 3.36865L21.0718 3.29802C20.4535 2.6784 19.7189 2.18693 18.9104 1.85148L18.8721 1.94385ZM21.001 3.36865L21.0718 3.4393C21.6716 2.83835 22.384 2.36156 23.1682 2.03621L23.1299 1.94385L23.0916 1.85148C22.283 2.1869 21.5486 2.67845 20.9302 3.29801L21.001 3.36865ZM23.1299 1.94385L23.1682 2.03621C23.9526 1.71081 24.7934 1.54293 25.6426 1.54287L25.6426 1.44287L25.6426 1.34287C24.7671 1.34293 23.9002 1.51602 23.0916 1.85148L23.1299 1.94385ZM25.6445 2.75537V2.65537C24.9418 2.65537 24.2456 2.79417 23.5965 3.06339L23.6348 3.15576L23.6731 3.24813C24.298 2.98898 24.9681 2.85537 25.6445 2.85537V2.75537ZM23.6348 3.15576L23.5965 3.06339C22.9473 3.33263 22.3574 3.72737 21.8609 4.22476L21.9316 4.29541L22.0024 4.36606C22.4803 3.88728 23.0482 3.50729 23.6731 3.24813L23.6348 3.15576ZM21.9316 4.29541L21.8609 4.22477L21.3941 4.69255L21.4648 4.76318L21.5356 4.83382L22.0024 4.36605L21.9316 4.29541ZM21.4648 4.76318L21.3942 4.69244C21.2901 4.79641 21.1486 4.85453 21.0009 4.85459L21.001 4.95459L21.001 5.05459C21.2011 5.05451 21.3936 4.97574 21.5355 4.83392L21.4648 4.76318ZM21.001 4.95459V4.85459C20.8534 4.85459 20.7119 4.79635 20.6078 4.6924L20.5371 4.76318L20.4665 4.83396C20.6084 4.97559 20.8008 5.05459 21.001 5.05459V4.95459ZM20.5371 4.76318L20.6079 4.69255L20.1421 4.22575L20.0713 4.29639L20.0005 4.36702L20.4663 4.83382L20.5371 4.76318ZM20.0713 4.29639L20.1424 4.22604C19.6479 3.72651 19.0585 3.33096 18.4094 3.06145L18.3711 3.15381L18.3327 3.24616C18.9574 3.50553 19.5245 3.88617 20.0002 4.36674L20.0713 4.29639ZM18.3711 3.15381L18.4094 3.06145C17.7604 2.79197 17.0638 2.65398 16.361 2.65635L16.3613 2.75635L16.3617 2.85635C17.0379 2.85406 17.7081 2.98684 18.3328 3.24617L18.3711 3.15381ZM16.3613 2.75635L16.3614 2.65635C15.3034 2.65604 14.2687 2.96954 13.3888 3.55697L13.4443 3.64014L13.4999 3.7233C14.3468 3.15784 15.3429 2.85606 16.3613 2.85635L16.3613 2.75635ZM13.4443 3.64014L13.3888 3.55697C12.5089 4.1444 11.8227 4.98009 11.4174 5.95729L11.5098 5.99561L11.6021 6.03392C11.9923 5.09322 12.6529 4.28876 13.4999 3.7233L13.4443 3.64014ZM11.5098 5.99561L11.4174 5.9573C11.0122 6.93441 10.9061 8.00974 11.1119 9.04728L11.21 9.02783L11.3081 9.00838C11.11 8.00958 11.2121 6.97445 11.6021 6.03391L11.5098 5.99561ZM11.21 9.02783L11.1119 9.04728C11.3176 10.0849 11.8263 11.0384 12.5738 11.787L12.6445 11.7163L12.7153 11.6456C11.9957 10.9251 11.5061 10.0073 11.3081 9.00838L11.21 9.02783ZM12.6445 11.7163L12.5738 11.787L20.9303 20.1435L21.001 20.0728L21.0717 20.002L12.7152 11.6456L12.6445 11.7163ZM21.001 20.0728L21.0717 20.1435L29.4272 11.786L29.3564 11.7153L29.2857 11.6446L20.9303 20.0021L21.001 20.0728ZM29.3564 11.7153L29.4272 11.786C30.4289 10.7829 30.9916 9.42299 30.9916 8.00537L30.8916 8.00537L30.7916 8.00537C30.7916 9.37 30.25 10.6791 29.2857 11.6447L29.3564 11.7153ZM30.8916 8.00537H30.9916C30.9916 6.58773 30.429 5.22786 29.4272 4.22475L29.3564 4.29541L29.2857 4.36607C30.25 5.33168 30.7916 6.64072 30.7916 8.00537H30.8916ZM29.3564 4.29541L29.4272 4.22476C28.9309 3.72758 28.3416 3.33261 27.6926 3.06339L27.6543 3.15576L27.616 3.24813C28.2406 3.50723 28.8078 3.88741 29.2857 4.36606L29.3564 4.29541ZM27.6543 3.15576L27.6926 3.06339C27.0435 2.79418 26.3473 2.6554 25.6445 2.65537L25.6445 2.75537L25.6445 2.85537C26.3209 2.8554 26.9912 2.98899 27.616 3.24813L27.6543 3.15576ZM6.14062 10.6577L6.19742 10.5754C5.88219 10.3579 5.49656 10.2675 5.11749 10.3224L5.13184 10.4214L5.14619 10.5204C5.47528 10.4726 5.8101 10.5511 6.08383 10.74L6.14062 10.6577ZM5.13184 10.4214L5.11084 10.3236C4.79557 10.3913 4.51298 10.5649 4.31 10.8155L4.3877 10.8784L4.46539 10.9414C4.63965 10.7263 4.88223 10.5773 5.15284 10.5192L5.13184 10.4214ZM4.3877 10.8784L4.31 10.8155C4.10711 11.0659 3.99566 11.378 3.99473 11.7004L4.09473 11.7007L4.19473 11.701C4.19553 11.4243 4.29115 11.1564 4.46539 10.9414L4.3877 10.8784ZM4.09473 11.7007H3.99473V11.7144H4.09473H4.19473V11.7007H4.09473ZM4.09473 11.7144L4.09214 11.8143C4.66181 11.829 5.21155 12.0287 5.65748 12.3834L5.71973 12.3052L5.78198 12.2269C5.30199 11.8451 4.71034 11.6302 4.09731 11.6144L4.09473 11.7144ZM5.71973 12.3052L5.65747 12.3834C6.10327 12.7381 6.42184 13.2288 6.56431 13.7804L6.66113 13.7554L6.75796 13.7304C6.60462 13.1367 6.26177 12.6087 5.78199 12.2269L5.71973 12.3052ZM6.66113 13.7554L6.56599 13.7862L8.38337 19.4033L8.47852 19.3726L8.57366 19.3418L6.75628 13.7246L6.66113 13.7554ZM8.47852 19.3726L8.52137 19.4629C8.78832 19.3363 9.07459 19.2554 9.36839 19.2229L9.35742 19.1235L9.34645 19.0241C9.03066 19.059 8.72283 19.146 8.43566 19.2822L8.47852 19.3726ZM9.35742 19.1235L9.4519 19.0908L6.81421 11.4843L6.71973 11.5171L6.62525 11.5499L9.26294 19.1563L9.35742 19.1235ZM6.71973 11.5171L6.81735 11.4954C6.73425 11.1214 6.51266 10.7929 6.19742 10.5754L6.14062 10.6577L6.08383 10.74C6.35762 10.929 6.54998 11.2142 6.62211 11.5388L6.71973 11.5171ZM36.8613 10.4214L36.8767 10.3226C36.5071 10.2652 36.1295 10.3495 35.8192 10.5581L35.875 10.6411L35.9308 10.7241C36.1994 10.5435 36.5262 10.4706 36.846 10.5202L36.8613 10.4214ZM35.875 10.6411L35.8192 10.5581C35.509 10.7667 35.2889 11.0844 35.2025 11.4481L35.2998 11.4712L35.3971 11.4943C35.4719 11.1795 35.6623 10.9046 35.9308 10.7241L35.875 10.6411ZM35.2998 11.4712L35.2053 11.4384L32.5471 19.0907L32.6416 19.1235L32.7361 19.1563L35.3943 11.504L35.2998 11.4712ZM32.6416 19.1235L32.6306 19.2229C32.9244 19.2553 33.2107 19.3363 33.4777 19.4629L33.5205 19.3726L33.5634 19.2822C33.2762 19.146 32.9684 19.0589 32.6526 19.0241L32.6416 19.1235ZM33.5205 19.3726L33.6156 19.4034L35.4467 13.753L35.3516 13.7222L35.2564 13.6913L33.4254 19.3417L33.5205 19.3726ZM35.3516 13.7222L35.4483 13.7475C35.5914 13.2015 35.9092 12.7172 36.3528 12.3681L36.291 12.2896L36.2292 12.211C35.7513 12.5869 35.409 13.1086 35.2548 13.6968L35.3516 13.7222ZM36.291 12.2896L36.3528 12.3681C36.7964 12.0192 37.3419 11.8249 37.9062 11.8143L37.9043 11.7144L37.9024 11.6144C37.2946 11.6258 36.707 11.8351 36.2292 12.211L36.291 12.2896ZM37.9043 11.7144H38.0043V11.7007H37.9043H37.8043V11.7144H37.9043ZM37.9043 11.7007L38.0043 11.7003C38.003 11.377 37.8913 11.0639 37.6869 10.8133L37.6094 10.8765L37.5319 10.9397C37.7072 11.1547 37.8032 11.4235 37.8043 11.7011L37.9043 11.7007ZM37.6094 10.8765L37.6869 10.8133C37.4825 10.5626 37.1983 10.3898 36.8818 10.3235L36.8613 10.4214L36.8408 10.5193C37.1125 10.5762 37.3565 10.7245 37.5319 10.9397L37.6094 10.8765ZM22.3125 5.90674L22.3125 6.00674C22.4602 6.0068 22.6016 6.06488 22.7057 6.16887L22.7764 6.09814L22.8471 6.02742C22.7051 5.88553 22.5126 5.80682 22.3125 5.80674L22.3125 5.90674ZM22.7764 6.09814L22.7057 6.16886C22.8099 6.27313 22.8687 6.4154 22.8687 6.56299H22.9688H23.0688C23.0688 6.36248 22.9889 6.1693 22.8471 6.02743L22.7764 6.09814ZM22.9688 6.56299H22.8687V8.53174H22.9688H23.0688V6.56299H22.9688ZM22.9688 8.53174V8.63174H24.9375V8.53174V8.43174H22.9688V8.53174ZM24.9375 8.53174L24.9375 8.63174C25.0852 8.6318 25.2266 8.68988 25.3307 8.79387L25.4014 8.72314L25.4721 8.65242C25.3301 8.51053 25.1376 8.43182 24.9375 8.43174L24.9375 8.53174ZM25.4014 8.72314L25.3307 8.79386C25.4349 8.89813 25.4937 9.0404 25.4937 9.18799H25.5938H25.6938C25.6938 8.98748 25.6139 8.7943 25.4721 8.65243L25.4014 8.72314ZM25.5938 9.18799H25.4937V11.813H25.5938H25.6938V9.18799H25.5938ZM25.5938 11.813L25.4937 11.8129C25.4936 11.9603 25.4349 12.1019 25.3307 12.2061L25.4014 12.2769L25.4721 12.3476C25.6138 12.2059 25.6936 12.0134 25.6938 11.8131L25.5938 11.813ZM25.4014 12.2769L25.3307 12.2061C25.2264 12.3104 25.0848 12.3692 24.9375 12.3692L24.9375 12.4692L24.9375 12.5692C25.138 12.5692 25.3304 12.4892 25.4721 12.3476L25.4014 12.2769ZM24.9375 12.4692V12.3692H22.9688V12.4692V12.5692H24.9375V12.4692ZM22.9688 12.4692H22.8687V14.438H22.9688H23.0688V12.4692H22.9688ZM22.9688 14.438L22.8687 14.4379C22.8686 14.5853 22.8099 14.7269 22.7057 14.8311L22.7764 14.9019L22.8471 14.9726C22.9888 14.8309 23.0686 14.6384 23.0688 14.4381L22.9688 14.438ZM22.7764 14.9019L22.7057 14.8311C22.6014 14.9354 22.4598 14.9942 22.3125 14.9942L22.3125 15.0942L22.3125 15.1942C22.513 15.1942 22.7054 15.1142 22.8471 14.9726L22.7764 14.9019ZM22.3125 15.0942V14.9942H19.6875V15.0942V15.1942H22.3125V15.0942ZM19.6875 15.0942V14.9942C19.5403 14.9942 19.3987 14.9353 19.2943 14.8311L19.2236 14.9019L19.153 14.9726C19.2946 15.114 19.487 15.1942 19.6875 15.1942V15.0942ZM19.2236 14.9019L19.2943 14.8311C19.1901 14.7269 19.1314 14.5853 19.1313 14.4379L19.0312 14.438L18.9312 14.4381C18.9314 14.6384 19.0112 14.8309 19.1529 14.9726L19.2236 14.9019ZM19.0312 14.438H19.1313V12.4692H19.0312H18.9312V14.438H19.0312ZM19.0312 12.4692V12.3692H17.0625V12.4692V12.5692H19.0312V12.4692ZM17.0625 12.4692V12.3692C16.9153 12.3692 16.7737 12.3103 16.6693 12.2061L16.5986 12.2769L16.528 12.3476C16.6696 12.489 16.862 12.5692 17.0625 12.5692V12.4692ZM16.5986 12.2769L16.6693 12.2061C16.5651 12.1019 16.5064 11.9603 16.5063 11.8129L16.4062 11.813L16.3062 11.8131C16.3064 12.0134 16.3862 12.2059 16.5279 12.3476L16.5986 12.2769ZM16.4062 11.813H16.5063V9.18799H16.4062H16.3062V11.813H16.4062ZM16.4062 9.18799H16.5063C16.5063 9.0404 16.5651 8.89813 16.6693 8.79386L16.5986 8.72314L16.5279 8.65243C16.3861 8.7943 16.3062 8.98748 16.3062 9.18799H16.4062ZM16.5986 8.72314L16.6693 8.79391C16.7734 8.68994 16.9149 8.63174 17.0625 8.63174V8.53174V8.43174C16.8623 8.43174 16.6699 8.51069 16.528 8.65238L16.5986 8.72314ZM17.0625 8.53174V8.63174H19.0312V8.53174V8.43174H17.0625V8.53174ZM19.0312 8.53174H19.1313V6.56299H19.0312H18.9312V8.53174H19.0312ZM19.0312 6.56299H19.1313C19.1313 6.4154 19.1901 6.27313 19.2943 6.16886L19.2236 6.09814L19.1529 6.02743C19.0111 6.1693 18.9312 6.36248 18.9312 6.56299H19.0312ZM19.2236 6.09814L19.2943 6.16891C19.3984 6.06494 19.5399 6.00674 19.6875 6.00674V5.90674V5.80674C19.4873 5.80674 19.2949 5.88569 19.153 6.02738L19.2236 6.09814ZM19.6875 5.90674V6.00674H22.3125V5.90674V5.80674H19.6875V5.90674ZM20.3438 7.21924H20.2437V9.18799H20.3438H20.4438V7.21924H20.3438ZM20.3438 9.18799L20.2437 9.18791C20.2436 9.33528 20.1849 9.47691 20.0807 9.58114L20.1514 9.65186L20.2221 9.72257C20.3638 9.58089 20.4436 9.38845 20.4438 9.18806L20.3438 9.18799ZM20.1514 9.65186L20.0807 9.58113C19.9764 9.68539 19.8348 9.74418 19.6875 9.74424L19.6875 9.84424L19.6875 9.94424C19.888 9.94415 20.0804 9.8642 20.2221 9.72258L20.1514 9.65186ZM19.6875 9.84424V9.74424H17.7188V9.84424V9.94424H19.6875V9.84424ZM17.7188 9.84424H17.6187V11.1567H17.7188H17.8188V9.84424H17.7188ZM17.7188 11.1567V11.2567H19.6875V11.1567V11.0567H17.7188V11.1567ZM19.6875 11.1567L19.6875 11.2567C19.8352 11.2568 19.9766 11.3149 20.0807 11.4189L20.1514 11.3481L20.2221 11.2774C20.0801 11.1355 19.8876 11.0568 19.6875 11.0567L19.6875 11.1567ZM20.1514 11.3481L20.0807 11.4189C20.1849 11.5231 20.2437 11.6654 20.2437 11.813H20.3438H20.4438C20.4438 11.6125 20.3639 11.4193 20.2221 11.2774L20.1514 11.3481ZM20.3438 11.813H20.2437V13.7817H20.3438H20.4438V11.813H20.3438ZM20.3438 13.7817V13.8817H21.6562V13.7817V13.6817H20.3438V13.7817ZM21.6562 13.7817H21.7563V11.813H21.6562H21.5562V13.7817H21.6562ZM21.6562 11.813H21.7563C21.7563 11.6654 21.8151 11.5231 21.9193 11.4189L21.8486 11.3481L21.7779 11.2774C21.6361 11.4193 21.5562 11.6125 21.5562 11.813H21.6562ZM21.8486 11.3481L21.9193 11.4189C22.0234 11.3149 22.1649 11.2567 22.3125 11.2567V11.1567V11.0567C22.1123 11.0567 21.9199 11.1357 21.778 11.2774L21.8486 11.3481ZM22.3125 11.1567V11.2567H24.2812V11.1567V11.0567H22.3125V11.1567ZM24.2812 11.1567H24.3813V9.84424H24.2812H24.1812V11.1567H24.2812ZM24.2812 9.84424V9.74424H22.3125V9.84424V9.94424H24.2812V9.84424ZM22.3125 9.84424V9.74424C22.1653 9.74424 22.0237 9.68533 21.9193 9.58109L21.8486 9.65186L21.778 9.72262C21.9196 9.86405 22.112 9.94424 22.3125 9.94424V9.84424ZM21.8486 9.65186L21.9193 9.58114C21.8151 9.47691 21.7564 9.33528 21.7563 9.18791L21.6562 9.18799L21.5562 9.18806C21.5564 9.38845 21.6362 9.58089 21.7779 9.72257L21.8486 9.65186ZM21.6562 9.18799H21.7563V7.21924H21.6562H21.5562V9.18799H21.6562ZM21.6562 7.21924V7.11924H20.3438V7.21924V7.31924H21.6562V7.21924Z" fill="#0E140F" mask="url(#path-1-outside-1_7856_78)"/>
<defs>
<linearGradient id="paint0_linear_7856_78" x1="39.3633" y1="31.8578" x2="1.17032" y2="29.0211" gradientUnits="userSpaceOnUse">
<stop offset="0.135487" stop-color="#EA5D39"/>
<stop offset="0.548428" stop-color="#987077"/>
<stop offset="1" stop-color="#4682B4"/>
</linearGradient>
</defs>
</svg>
