<svg width="32" height="42" viewBox="0 0 32 42" fill="none" xmlns="http://www.w3.org/2000/svg">
<mask id="path-1-outside-1_8273_108" maskUnits="userSpaceOnUse" x="-0.24231" y="-0.414551" width="32" height="42" fill="black">
<rect fill="white" x="-0.24231" y="-0.414551" width="32" height="42"/>
<path d="M8.08404 0.890522C8.27015 0.59026 8.66067 0.494516 8.961 0.680561L26.1358 11.1913C28.0124 12.3396 29.4688 14.0117 30.3487 16.0292C31.2286 18.0441 31.4685 20.2506 31.0352 22.4091L27.3292 40.9052C27.2705 41.2054 27.0018 41.4149 26.7042 41.4149C26.6618 41.4149 26.6216 41.4102 26.5792 41.4022C26.2338 41.333 26.011 40.9977 26.0801 40.6522L29.7852 22.1561C30.556 18.3018 28.8228 14.333 25.4708 12.2782L8.294 1.76748C7.99362 1.58406 7.89797 1.1909 8.08404 0.890522ZM0.991269 11.1669C1.26507 10.9436 1.66712 10.9866 1.88775 11.2577C1.9079 11.2825 2.93466 12.518 5.19928 14.2509C7.30189 15.8591 10.928 18.2403 16.2735 20.4413C16.4489 20.5131 16.5822 20.66 16.6407 20.8407C16.6964 21.0214 16.672 21.2184 16.5684 21.3778C16.5312 21.4362 14.1223 25.2673 14.7608 28.5224C15.481 32.2083 13.2874 38.7905 13.1905 39.0731C13.1001 39.3389 12.8527 39.5066 12.587 39.5067C12.5205 39.5067 12.451 39.4955 12.3819 39.4716C12.0471 39.3598 11.869 38.9961 11.9805 38.664C12.0018 38.6002 14.1627 32.1222 13.5088 28.7675C13.1952 27.1699 13.4371 25.3219 14.2266 23.2724C14.5349 22.4699 14.8701 21.7979 15.1172 21.3407C12.9376 20.4131 10.8777 19.3894 8.98248 18.289C7.3078 17.3187 5.75734 16.2868 4.37506 15.2235C2.00148 13.4028 0.943955 12.1185 0.901425 12.0653C0.678209 11.7915 0.720157 11.3902 0.991269 11.1669ZM20.5772 21.7899C20.9547 21.8404 21.3083 21.9653 21.6299 22.162C21.9329 22.3454 22.2893 22.406 22.6348 22.329C23.0042 22.2466 23.3792 22.2439 23.754 22.3183C25.1362 22.5921 26.0934 23.9005 25.9366 25.2987C25.8568 25.9976 25.5192 26.6301 24.9825 27.0819C23.8899 28.0017 23.1538 29.3177 22.9092 30.7851L21.6114 38.4325C21.5609 38.7407 21.2929 38.9616 20.9874 38.9618C20.9529 38.9618 20.9154 38.9593 20.8809 38.954C20.5328 38.8955 20.2985 38.5658 20.3594 38.2177L21.6573 30.5722C21.9497 28.8072 22.8423 27.2198 24.1661 26.1034C24.4504 25.8642 24.6313 25.527 24.6739 25.1522C24.7589 24.4079 24.2481 23.7145 23.5118 23.5683C23.3126 23.5285 23.1136 23.5307 22.917 23.5731C22.2472 23.722 21.5582 23.6051 20.9708 23.2489C20.8007 23.1453 20.6122 23.0782 20.4102 23.0517C19.6686 22.9506 18.961 23.4456 18.7989 24.1767C18.7006 24.6258 18.8128 25.0853 19.1104 25.4335C19.9584 26.4303 20.3193 27.7624 20.0987 29.0888L18.6026 37.9306C18.544 38.2786 18.2144 38.5124 17.8663 38.454C17.5181 38.3955 17.2844 38.0659 17.3428 37.7177L18.836 28.8788C18.9955 27.9272 18.7382 26.973 18.1348 26.2606C17.5767 25.6042 17.364 24.7457 17.5499 23.9032C17.8529 22.529 19.1817 21.6014 20.5772 21.7899ZM26.0557 17.4647C26.5448 17.5312 26.9755 17.8315 27.2042 18.2675L27.9463 19.6815C28.2094 20.1838 28.1721 20.787 27.8506 21.2548C27.5663 21.6694 27.0957 21.9139 26.5987 21.914C26.5376 21.914 26.4762 21.9122 26.4151 21.9042L24.5626 21.6835C23.9884 21.6144 23.51 21.2365 23.3106 20.6942C23.1112 20.152 23.2336 19.5534 23.627 19.1308C23.999 18.7322 24.3972 18.3014 24.7374 17.9374C25.0749 17.576 25.5667 17.4011 26.0557 17.4647ZM6.57916 5.43837C6.76789 5.14085 7.1614 5.05063 7.45904 5.23915L18.6368 12.3026C19.2322 12.6774 19.9823 12.7276 20.6495 12.4325C21.5825 12.0206 22.6378 12.1266 23.4698 12.7167C24.0572 13.1313 24.4637 13.7509 24.6153 14.4579C24.7668 15.165 24.6474 15.8962 24.2833 16.5155C24.1078 16.8132 23.884 17.0736 23.6182 17.289C23.2356 17.5973 22.9754 18.0147 22.8585 18.4931C22.7787 18.8253 22.6404 19.1396 22.4463 19.4267C22.045 20.022 21.4358 20.4418 20.7315 20.6093C20.5083 20.6624 20.2848 20.6894 20.0616 20.6894C19.5752 20.6893 19.0966 20.5669 18.6661 20.3251C17.9005 19.8971 17.3799 19.1548 17.2364 18.2909C17.0582 17.2225 16.4496 16.2866 15.5645 15.7284L5.03717 9.07802C4.73969 8.88929 4.64947 8.49576 4.83795 8.19814C5.02668 7.90043 5.42011 7.81021 5.71783 7.99892L16.2442 14.6493C17.435 15.4015 18.2566 16.6536 18.4932 18.081C18.573 18.5621 18.8631 18.9745 19.2911 19.2138C20.0088 19.6151 20.9289 19.3969 21.3887 18.7138C21.4976 18.5543 21.5747 18.3785 21.6172 18.1952C21.7981 17.4431 22.2129 16.789 22.8135 16.3026C22.9596 16.1831 23.0844 16.0393 23.1827 15.872C23.5998 15.1649 23.4032 14.2374 22.7335 13.7616C22.2709 13.4347 21.6835 13.3738 21.1651 13.6024C20.1098 14.0676 18.9104 13.9851 17.9561 13.3817L6.77838 6.31826C6.48096 6.12943 6.39051 5.73597 6.57916 5.43837ZM25.8545 18.7245C25.804 18.7245 25.734 18.7381 25.6729 18.8046C25.3328 19.1713 24.9345 19.5994 24.5626 19.9979C24.4723 20.0962 24.4905 20.1996 24.5118 20.2528C24.5304 20.306 24.5839 20.399 24.7169 20.4149L26.5694 20.6356C26.6995 20.6515 26.7709 20.577 26.8028 20.5292C26.8347 20.484 26.8805 20.3883 26.8194 20.2714L26.0772 18.8573C26.024 18.7592 25.9366 18.7328 25.8887 18.7274C25.8782 18.7248 25.8677 18.7245 25.8545 18.7245Z"/>
</mask>
<path d="M8.08404 0.890522C8.27015 0.59026 8.66067 0.494516 8.961 0.680561L26.1358 11.1913C28.0124 12.3396 29.4688 14.0117 30.3487 16.0292C31.2286 18.0441 31.4685 20.2506 31.0352 22.4091L27.3292 40.9052C27.2705 41.2054 27.0018 41.4149 26.7042 41.4149C26.6618 41.4149 26.6216 41.4102 26.5792 41.4022C26.2338 41.333 26.011 40.9977 26.0801 40.6522L29.7852 22.1561C30.556 18.3018 28.8228 14.333 25.4708 12.2782L8.294 1.76748C7.99362 1.58406 7.89797 1.1909 8.08404 0.890522ZM0.991269 11.1669C1.26507 10.9436 1.66712 10.9866 1.88775 11.2577C1.9079 11.2825 2.93466 12.518 5.19928 14.2509C7.30189 15.8591 10.928 18.2403 16.2735 20.4413C16.4489 20.5131 16.5822 20.66 16.6407 20.8407C16.6964 21.0214 16.672 21.2184 16.5684 21.3778C16.5312 21.4362 14.1223 25.2673 14.7608 28.5224C15.481 32.2083 13.2874 38.7905 13.1905 39.0731C13.1001 39.3389 12.8527 39.5066 12.587 39.5067C12.5205 39.5067 12.451 39.4955 12.3819 39.4716C12.0471 39.3598 11.869 38.9961 11.9805 38.664C12.0018 38.6002 14.1627 32.1222 13.5088 28.7675C13.1952 27.1699 13.4371 25.3219 14.2266 23.2724C14.5349 22.4699 14.8701 21.7979 15.1172 21.3407C12.9376 20.4131 10.8777 19.3894 8.98248 18.289C7.3078 17.3187 5.75734 16.2868 4.37506 15.2235C2.00148 13.4028 0.943955 12.1185 0.901425 12.0653C0.678209 11.7915 0.720157 11.3902 0.991269 11.1669ZM20.5772 21.7899C20.9547 21.8404 21.3083 21.9653 21.6299 22.162C21.9329 22.3454 22.2893 22.406 22.6348 22.329C23.0042 22.2466 23.3792 22.2439 23.754 22.3183C25.1362 22.5921 26.0934 23.9005 25.9366 25.2987C25.8568 25.9976 25.5192 26.6301 24.9825 27.0819C23.8899 28.0017 23.1538 29.3177 22.9092 30.7851L21.6114 38.4325C21.5609 38.7407 21.2929 38.9616 20.9874 38.9618C20.9529 38.9618 20.9154 38.9593 20.8809 38.954C20.5328 38.8955 20.2985 38.5658 20.3594 38.2177L21.6573 30.5722C21.9497 28.8072 22.8423 27.2198 24.1661 26.1034C24.4504 25.8642 24.6313 25.527 24.6739 25.1522C24.7589 24.4079 24.2481 23.7145 23.5118 23.5683C23.3126 23.5285 23.1136 23.5307 22.917 23.5731C22.2472 23.722 21.5582 23.6051 20.9708 23.2489C20.8007 23.1453 20.6122 23.0782 20.4102 23.0517C19.6686 22.9506 18.961 23.4456 18.7989 24.1767C18.7006 24.6258 18.8128 25.0853 19.1104 25.4335C19.9584 26.4303 20.3193 27.7624 20.0987 29.0888L18.6026 37.9306C18.544 38.2786 18.2144 38.5124 17.8663 38.454C17.5181 38.3955 17.2844 38.0659 17.3428 37.7177L18.836 28.8788C18.9955 27.9272 18.7382 26.973 18.1348 26.2606C17.5767 25.6042 17.364 24.7457 17.5499 23.9032C17.8529 22.529 19.1817 21.6014 20.5772 21.7899ZM26.0557 17.4647C26.5448 17.5312 26.9755 17.8315 27.2042 18.2675L27.9463 19.6815C28.2094 20.1838 28.1721 20.787 27.8506 21.2548C27.5663 21.6694 27.0957 21.9139 26.5987 21.914C26.5376 21.914 26.4762 21.9122 26.4151 21.9042L24.5626 21.6835C23.9884 21.6144 23.51 21.2365 23.3106 20.6942C23.1112 20.152 23.2336 19.5534 23.627 19.1308C23.999 18.7322 24.3972 18.3014 24.7374 17.9374C25.0749 17.576 25.5667 17.4011 26.0557 17.4647ZM6.57916 5.43837C6.76789 5.14085 7.1614 5.05063 7.45904 5.23915L18.6368 12.3026C19.2322 12.6774 19.9823 12.7276 20.6495 12.4325C21.5825 12.0206 22.6378 12.1266 23.4698 12.7167C24.0572 13.1313 24.4637 13.7509 24.6153 14.4579C24.7668 15.165 24.6474 15.8962 24.2833 16.5155C24.1078 16.8132 23.884 17.0736 23.6182 17.289C23.2356 17.5973 22.9754 18.0147 22.8585 18.4931C22.7787 18.8253 22.6404 19.1396 22.4463 19.4267C22.045 20.022 21.4358 20.4418 20.7315 20.6093C20.5083 20.6624 20.2848 20.6894 20.0616 20.6894C19.5752 20.6893 19.0966 20.5669 18.6661 20.3251C17.9005 19.8971 17.3799 19.1548 17.2364 18.2909C17.0582 17.2225 16.4496 16.2866 15.5645 15.7284L5.03717 9.07802C4.73969 8.88929 4.64947 8.49576 4.83795 8.19814C5.02668 7.90043 5.42011 7.81021 5.71783 7.99892L16.2442 14.6493C17.435 15.4015 18.2566 16.6536 18.4932 18.081C18.573 18.5621 18.8631 18.9745 19.2911 19.2138C20.0088 19.6151 20.9289 19.3969 21.3887 18.7138C21.4976 18.5543 21.5747 18.3785 21.6172 18.1952C21.7981 17.4431 22.2129 16.789 22.8135 16.3026C22.9596 16.1831 23.0844 16.0393 23.1827 15.872C23.5998 15.1649 23.4032 14.2374 22.7335 13.7616C22.2709 13.4347 21.6835 13.3738 21.1651 13.6024C20.1098 14.0676 18.9104 13.9851 17.9561 13.3817L6.77838 6.31826C6.48096 6.12943 6.39051 5.73597 6.57916 5.43837ZM25.8545 18.7245C25.804 18.7245 25.734 18.7381 25.6729 18.8046C25.3328 19.1713 24.9345 19.5994 24.5626 19.9979C24.4723 20.0962 24.4905 20.1996 24.5118 20.2528C24.5304 20.306 24.5839 20.399 24.7169 20.4149L26.5694 20.6356C26.6995 20.6515 26.7709 20.577 26.8028 20.5292C26.8347 20.484 26.8805 20.3883 26.8194 20.2714L26.0772 18.8573C26.024 18.7592 25.9366 18.7328 25.8887 18.7274C25.8782 18.7248 25.8677 18.7245 25.8545 18.7245Z" fill="url(#paint0_linear_8273_108)"/>
<path d="M8.08404 0.890522L7.99905 0.837838L7.99903 0.837861L8.08404 0.890522ZM8.961 0.680561L8.90833 0.765573L8.9088 0.765856L8.961 0.680561ZM26.1358 11.1913L26.0836 11.2766L26.0836 11.2766L26.1358 11.1913ZM30.3487 16.0292L30.257 16.0692L30.257 16.0692L30.3487 16.0292ZM31.0352 22.4091L30.9372 22.3894L30.9372 22.3894L31.0352 22.4091ZM27.3292 40.9052L27.2311 40.8855L27.231 40.886L27.3292 40.9052ZM26.7042 41.4149L26.7041 41.5149H26.7042V41.4149ZM26.5792 41.4022L26.5595 41.5003L26.5607 41.5005L26.5792 41.4022ZM26.0801 40.6522L25.9821 40.6326L25.9821 40.6326L26.0801 40.6522ZM29.7852 22.1561L29.8833 22.1758L29.8833 22.1758L29.7852 22.1561ZM25.4708 12.2782L25.523 12.193L25.523 12.1929L25.4708 12.2782ZM8.294 1.76748L8.3462 1.68218L8.34612 1.68213L8.294 1.76748ZM0.991269 11.1669L0.928068 11.0894L0.927698 11.0897L0.991269 11.1669ZM1.88775 11.2577L1.81019 11.3208L1.8102 11.3208L1.88775 11.2577ZM5.19928 14.2509L5.13851 14.3303L5.13852 14.3303L5.19928 14.2509ZM16.2735 20.4413L16.2354 20.5338L16.2356 20.5339L16.2735 20.4413ZM16.6407 20.8407L16.7363 20.8112L16.7358 20.8099L16.6407 20.8407ZM16.5684 21.3778L16.4846 21.3233L16.4841 21.324L16.5684 21.3778ZM14.7608 28.5224L14.8589 28.5032L14.8589 28.5031L14.7608 28.5224ZM13.1905 39.0731L13.0959 39.0407L13.0958 39.041L13.1905 39.0731ZM12.587 39.5067V39.6067H12.587L12.587 39.5067ZM12.3819 39.4716L12.4146 39.3771L12.4136 39.3767L12.3819 39.4716ZM11.9805 38.664L12.0753 38.6958L12.0754 38.6956L11.9805 38.664ZM13.5088 28.7675L13.607 28.7483L13.607 28.7482L13.5088 28.7675ZM14.2266 23.2724L14.3199 23.3083L14.32 23.3082L14.2266 23.2724ZM15.1172 21.3407L15.2052 21.3883L15.2574 21.2917L15.1564 21.2487L15.1172 21.3407ZM8.98248 18.289L9.03269 18.2025L9.03261 18.2024L8.98248 18.289ZM4.37506 15.2235L4.43603 15.1443L4.43592 15.1442L4.37506 15.2235ZM0.901425 12.0653L0.979515 12.0029L0.978931 12.0021L0.901425 12.0653ZM20.5772 21.7899L20.5638 21.889L20.5639 21.8891L20.5772 21.7899ZM21.6299 22.162L21.5778 22.2473L21.5782 22.2476L21.6299 22.162ZM22.6348 22.329L22.6566 22.4266L22.6566 22.4266L22.6348 22.329ZM23.754 22.3183L23.7345 22.4163L23.7345 22.4164L23.754 22.3183ZM25.9366 25.2987L26.0359 25.3101L26.036 25.3099L25.9366 25.2987ZM24.9825 27.0819L24.9181 27.0054L24.9181 27.0054L24.9825 27.0819ZM22.9092 30.7851L23.0078 30.8018L23.0079 30.8015L22.9092 30.7851ZM21.6114 38.4325L21.5128 38.4158L21.5127 38.4164L21.6114 38.4325ZM20.9874 38.9618V39.0618H20.9874L20.9874 38.9618ZM20.8809 38.954L20.8644 39.0526L20.8658 39.0528L20.8809 38.954ZM20.3594 38.2177L20.4579 38.2349L20.458 38.2344L20.3594 38.2177ZM21.6573 30.5722L21.7559 30.5889L21.7559 30.5885L21.6573 30.5722ZM24.1661 26.1034L24.1017 26.0269L24.1016 26.027L24.1661 26.1034ZM24.6739 25.1522L24.5745 25.1409L24.5745 25.141L24.6739 25.1522ZM23.5118 23.5683L23.4922 23.6663L23.4923 23.6663L23.5118 23.5683ZM22.917 23.5731L22.8959 23.4754L22.8954 23.4755L22.917 23.5731ZM20.9708 23.2489L20.9187 23.3343L20.9189 23.3344L20.9708 23.2489ZM20.4102 23.0517L20.3967 23.1507L20.3972 23.1508L20.4102 23.0517ZM18.7989 24.1767L18.7013 24.155L18.7012 24.1553L18.7989 24.1767ZM19.1104 25.4335L19.1866 25.3687L19.1864 25.3685L19.1104 25.4335ZM20.0987 29.0888L20.1973 29.1054L20.1973 29.1052L20.0987 29.0888ZM18.6026 37.9306L18.504 37.9139L18.504 37.914L18.6026 37.9306ZM17.8663 38.454L17.8497 38.5526L17.8497 38.5526L17.8663 38.454ZM17.3428 37.7177L17.2442 37.701L17.2442 37.7011L17.3428 37.7177ZM18.836 28.8788L18.9346 28.8955L18.9346 28.8953L18.836 28.8788ZM18.1348 26.2606L18.2111 26.196L18.211 26.1959L18.1348 26.2606ZM17.5499 23.9032L17.6475 23.9248L17.6475 23.9247L17.5499 23.9032ZM26.0557 17.4647L26.0692 17.3657L26.0686 17.3656L26.0557 17.4647ZM27.2042 18.2675L27.1156 18.3139L27.1156 18.3139L27.2042 18.2675ZM27.9463 19.6815L28.0349 19.6351L28.0349 19.6351L27.9463 19.6815ZM27.8506 21.2548L27.7682 21.1981L27.7682 21.1982L27.8506 21.2548ZM26.5987 21.914V22.014H26.5987L26.5987 21.914ZM26.4151 21.9042L26.428 21.805L26.4269 21.8049L26.4151 21.9042ZM24.5626 21.6835L24.5506 21.7828L24.5507 21.7828L24.5626 21.6835ZM23.3106 20.6942L23.2167 20.7287L23.2167 20.7287L23.3106 20.6942ZM23.627 19.1308L23.5539 19.0625L23.5538 19.0626L23.627 19.1308ZM24.7374 17.9374L24.8104 18.0057L24.8104 18.0056L24.7374 17.9374ZM6.57916 5.43837L6.49472 5.38481L6.4947 5.38483L6.57916 5.43837ZM7.45904 5.23915L7.40553 5.32363L7.40562 5.32369L7.45904 5.23915ZM18.6368 12.3026L18.5834 12.3872L18.5835 12.3873L18.6368 12.3026ZM20.6495 12.4325L20.6091 12.341L20.609 12.3411L20.6495 12.4325ZM23.4698 12.7167L23.4119 12.7983L23.4121 12.7984L23.4698 12.7167ZM24.6153 14.4579L24.7131 14.437V14.4369L24.6153 14.4579ZM24.2833 16.5155L24.3694 16.5663L24.3695 16.5662L24.2833 16.5155ZM23.6182 17.289L23.681 17.3668L23.6812 17.3667L23.6182 17.289ZM22.8585 18.4931L22.7613 18.4693L22.7612 18.4697L22.8585 18.4931ZM22.4463 19.4267L22.3635 19.3707L22.3634 19.3708L22.4463 19.4267ZM20.7315 20.6093L20.7084 20.512L20.7083 20.512L20.7315 20.6093ZM20.0616 20.6894L20.0616 20.7894H20.0616V20.6894ZM18.6661 20.3251L18.715 20.2379L18.7149 20.2378L18.6661 20.3251ZM17.2364 18.2909L17.335 18.2745L17.335 18.2745L17.2364 18.2909ZM15.5645 15.7284L15.5111 15.813L15.5112 15.813L15.5645 15.7284ZM5.03717 9.07802L4.9836 9.16246L4.98376 9.16257L5.03717 9.07802ZM4.83795 8.19814L4.75349 8.1446L4.75346 8.14464L4.83795 8.19814ZM5.71783 7.99892L5.66429 8.08338L5.66442 8.08346L5.71783 7.99892ZM16.2442 14.6493L16.1908 14.7339L16.1908 14.7339L16.2442 14.6493ZM18.4932 18.081L18.5919 18.0646V18.0646L18.4932 18.081ZM19.2911 19.2138L19.3399 19.1265L19.3399 19.1265L19.2911 19.2138ZM21.3887 18.7138L21.3062 18.6574L21.3058 18.6579L21.3887 18.7138ZM21.6172 18.1952L21.52 18.1718L21.5198 18.1726L21.6172 18.1952ZM22.8135 16.3026L22.8765 16.3803L22.8769 16.38L22.8135 16.3026ZM23.1827 15.872L23.0965 15.8212L23.0964 15.8213L23.1827 15.872ZM22.7335 13.7616L22.7914 13.6801L22.7912 13.68L22.7335 13.7616ZM21.1651 13.6024L21.2054 13.6939L21.2055 13.6939L21.1651 13.6024ZM17.9561 13.3817L18.0096 13.2972L18.0095 13.2972L17.9561 13.3817ZM6.77838 6.31826L6.72478 6.40268L6.72496 6.40279L6.77838 6.31826ZM25.8545 18.7245L25.8546 18.6245H25.8545V18.7245ZM25.6729 18.8046L25.7462 18.8726L25.7465 18.8723L25.6729 18.8046ZM24.5626 19.9979L24.4895 19.9297L24.4889 19.9303L24.5626 19.9979ZM24.5118 20.2528L24.6063 20.2198L24.6047 20.2158L24.5118 20.2528ZM24.7169 20.4149L24.7049 20.5142L24.705 20.5142L24.7169 20.4149ZM26.5694 20.6356L26.5815 20.5364L26.5812 20.5363L26.5694 20.6356ZM26.8028 20.5292L26.7211 20.4715L26.7196 20.4737L26.8028 20.5292ZM26.8194 20.2714L26.908 20.2251L26.9079 20.2249L26.8194 20.2714ZM26.0772 18.8573L26.1658 18.8108L26.1651 18.8097L26.0772 18.8573ZM25.8887 18.7274L25.8643 18.8253L25.8777 18.8268L25.8887 18.7274ZM8.08404 0.890522L8.16904 0.943206C8.32666 0.68891 8.65591 0.609201 8.90833 0.765572L8.961 0.680561L9.01366 0.595551C8.66542 0.379831 8.21365 0.49161 7.99905 0.837838L8.08404 0.890522ZM8.961 0.680561L8.9088 0.765856L26.0836 11.2766L26.1358 11.1913L26.188 11.106L9.0132 0.595266L8.961 0.680561ZM26.1358 11.1913L26.0836 11.2766C27.9427 12.4142 29.3854 14.0704 30.257 16.0692L30.3487 16.0292L30.4404 15.9892C29.5523 13.9529 28.0821 12.265 26.188 11.106L26.1358 11.1913ZM30.3487 16.0292L30.257 16.0692C31.1288 18.0655 31.3664 20.2511 30.9372 22.3894L31.0352 22.4091L31.1333 22.4288C31.5706 20.2501 31.3284 18.0228 30.4403 15.9892L30.3487 16.0292ZM31.0352 22.4091L30.9372 22.3894L27.2311 40.8855L27.3292 40.9052L27.4272 40.9248L31.1333 22.4287L31.0352 22.4091ZM27.3292 40.9052L27.231 40.886C27.1819 41.1373 26.9559 41.3149 26.7042 41.3149V41.4149V41.5149C27.0476 41.5149 27.3591 41.2734 27.4273 40.9243L27.3292 40.9052ZM26.7042 41.4149L26.7042 41.3149C26.6695 41.3149 26.6356 41.3111 26.5976 41.304L26.5792 41.4022L26.5607 41.5005C26.6075 41.5093 26.6541 41.5149 26.7041 41.5149L26.7042 41.4149ZM26.5792 41.4022L26.5988 41.3042C26.3078 41.2458 26.1199 40.9633 26.1782 40.6719L26.0801 40.6522L25.9821 40.6326C25.9022 41.0321 26.1599 41.4201 26.5595 41.5003L26.5792 41.4022ZM26.0801 40.6522L26.1782 40.6719L29.8833 22.1758L29.7852 22.1561L29.6872 22.1365L25.9821 40.6326L26.0801 40.6522ZM29.7852 22.1561L29.8833 22.1758C30.6623 18.2803 28.9107 14.2696 25.523 12.193L25.4708 12.2782L25.4185 12.3635C28.7348 14.3964 30.4498 18.3233 29.6872 22.1365L29.7852 22.1561ZM25.4708 12.2782L25.523 12.1929L8.3462 1.68218L8.294 1.76748L8.24181 1.85277L25.4186 12.3635L25.4708 12.2782ZM8.294 1.76748L8.34612 1.68213C8.09274 1.52741 8.01241 1.19606 8.16905 0.943183L8.08404 0.890522L7.99903 0.837861C7.78353 1.18575 7.8945 1.6407 8.24189 1.85282L8.294 1.76748ZM0.991269 11.1669L1.05447 11.2444C1.28531 11.0561 1.62434 11.0924 1.81019 11.3208L1.88775 11.2577L1.96532 11.1946C1.7099 10.8807 1.24483 10.8311 0.928069 11.0894L0.991269 11.1669ZM1.88775 11.2577L1.8102 11.3208C1.8351 11.3514 2.86744 12.5925 5.13851 14.3303L5.19928 14.2509L5.26005 14.1715C4.13106 13.3076 3.31122 12.5681 2.77164 12.0421C2.50185 11.7792 2.30213 11.5696 2.16886 11.4245C2.10223 11.352 2.05221 11.2956 2.01836 11.2567C2.00144 11.2372 1.98856 11.2222 1.97967 11.2117C1.97523 11.2065 1.97179 11.2024 1.96935 11.1995C1.96813 11.198 1.96717 11.1968 1.96647 11.196C1.96612 11.1956 1.96584 11.1952 1.96563 11.195C1.96553 11.1949 1.96545 11.1948 1.96539 11.1947C1.96533 11.1946 1.9653 11.1946 1.9653 11.1946L1.88775 11.2577ZM5.19928 14.2509L5.13852 14.3303C7.24743 15.9433 10.8811 18.3292 16.2354 20.5338L16.2735 20.4413L16.3116 20.3488C10.9749 18.1515 7.35636 15.7748 5.26003 14.1714L5.19928 14.2509ZM16.2735 20.4413L16.2356 20.5339C16.383 20.5941 16.4958 20.7179 16.5455 20.8715L16.6407 20.8407L16.7358 20.8099C16.6686 20.602 16.5149 20.432 16.3114 20.3487L16.2735 20.4413ZM16.6407 20.8407L16.5451 20.8702C16.5924 21.0236 16.5714 21.1897 16.4846 21.3233L16.5684 21.3778L16.6523 21.4323C16.7727 21.2471 16.8004 21.0192 16.7362 20.8112L16.6407 20.8407ZM16.5684 21.3778L16.4841 21.324C16.4634 21.3565 15.8482 22.3351 15.3179 23.7155C14.7885 25.0934 14.338 26.8864 14.6627 28.5416L14.7608 28.5224L14.8589 28.5031C14.5451 26.9033 14.9798 25.1532 15.5046 23.7872C16.0284 22.4236 16.6362 21.4575 16.6527 21.4316L16.5684 21.3778ZM14.7608 28.5224L14.6627 28.5415C15.0184 30.3623 14.6547 32.9114 14.1844 35.0525C13.715 37.1892 13.1436 38.9016 13.0959 39.0407L13.1905 39.0731L13.2851 39.1056C13.3343 38.962 13.9081 37.242 14.3797 35.0954C14.8503 32.9533 15.2234 30.3683 14.8589 28.5032L14.7608 28.5224ZM13.1905 39.0731L13.0958 39.041C13.0196 39.2651 12.8109 39.4066 12.5869 39.4067L12.587 39.5067L12.587 39.6067C12.8945 39.6066 13.1807 39.4126 13.2852 39.1053L13.1905 39.0731ZM12.587 39.5067V39.4067C12.5317 39.4067 12.4733 39.3974 12.4146 39.3771L12.3819 39.4716L12.3492 39.5661C12.4287 39.5936 12.5093 39.6067 12.587 39.6067V39.5067ZM12.3819 39.4716L12.4136 39.3767C12.1318 39.2827 11.9812 38.9761 12.0753 38.6958L11.9805 38.664L11.8857 38.6321C11.7567 39.0162 11.9625 39.437 12.3502 39.5664L12.3819 39.4716ZM11.9805 38.664L12.0754 38.6956C12.0865 38.6623 12.6332 37.0233 13.0954 34.9718C13.5564 32.9256 13.9384 30.4486 13.607 28.7483L13.5088 28.7675L13.4107 28.7866C13.7332 30.4411 13.3616 32.8804 12.9003 34.9278C12.4402 36.9699 11.8958 38.6018 11.8857 38.6323L11.9805 38.664ZM13.5088 28.7675L13.607 28.7482C13.298 27.1745 13.5349 25.3462 14.3199 23.3083L14.2266 23.2724L14.1333 23.2364C13.3393 25.2975 13.0924 27.1652 13.4107 28.7867L13.5088 28.7675ZM14.2266 23.2724L14.32 23.3082C14.6263 22.5108 14.9595 21.8428 15.2052 21.3883L15.1172 21.3407L15.0293 21.2932C14.7807 21.753 14.4434 22.429 14.1333 23.2365L14.2266 23.2724ZM15.1172 21.3407L15.1564 21.2487C12.9803 20.3225 10.924 19.3006 9.03269 18.2025L8.98248 18.289L8.93227 18.3754C10.8313 19.4781 12.895 20.5036 15.0781 21.4327L15.1172 21.3407ZM8.98248 18.289L9.03261 18.2024C7.3613 17.2341 5.81452 16.2046 4.43603 15.1443L4.37506 15.2235L4.31409 15.3028C5.70016 16.369 7.25429 17.4033 8.93235 18.3755L8.98248 18.289ZM4.37506 15.2235L4.43592 15.1442C2.06878 13.3284 1.01703 12.0498 0.979512 12.0029L0.901425 12.0653L0.823338 12.1278C0.870881 12.1872 1.93418 13.4772 4.31419 15.3029L4.37506 15.2235ZM0.901425 12.0653L0.978931 12.0021C0.790741 11.7713 0.825905 11.4326 1.05484 11.2441L0.991269 11.1669L0.927698 11.0897C0.614408 11.3477 0.565677 11.8118 0.823919 12.1285L0.901425 12.0653ZM20.5772 21.7899L20.5639 21.8891C20.9278 21.9377 21.2682 22.058 21.5778 22.2473L21.6299 22.162L21.6821 22.0767C21.3485 21.8727 20.9815 21.7431 20.5905 21.6908L20.5772 21.7899ZM21.6299 22.162L21.5782 22.2476C21.9028 22.444 22.2855 22.5093 22.6566 22.4266L22.6348 22.329L22.6131 22.2314C22.2932 22.3027 21.9631 22.2467 21.6817 22.0765L21.6299 22.162ZM22.6348 22.329L22.6566 22.4266C23.0121 22.3473 23.373 22.3446 23.7345 22.4163L23.754 22.3183L23.7734 22.2202C23.3854 22.1432 22.9964 22.1459 22.6131 22.2314L22.6348 22.329ZM23.754 22.3183L23.7345 22.4164C25.0658 22.6801 25.9882 23.941 25.8372 25.2876L25.9366 25.2987L26.036 25.3099C26.1986 23.86 25.2066 22.5041 23.7734 22.2202L23.754 22.3183ZM25.9366 25.2987L25.8372 25.2874C25.7603 25.9611 25.4351 26.5702 24.9181 27.0054L24.9825 27.0819L25.0469 27.1584C25.6033 26.69 25.9532 26.0341 26.0359 25.3101L25.9366 25.2987ZM24.9825 27.0819L24.9181 27.0054C23.8065 27.9412 23.0589 29.2789 22.8106 30.7686L22.9092 30.7851L23.0079 30.8015C23.2487 29.3565 23.9734 28.0622 25.0469 27.1584L24.9825 27.0819ZM22.9092 30.7851L22.8106 30.7683L21.5128 38.4158L21.6114 38.4325L21.71 38.4492L23.0078 30.8018L22.9092 30.7851ZM21.6114 38.4325L21.5127 38.4164C21.4703 38.6753 21.2448 38.8616 20.9873 38.8618L20.9874 38.9618L20.9874 39.0618C21.341 39.0616 21.6515 38.8061 21.7101 38.4487L21.6114 38.4325ZM20.9874 38.9618V38.8618C20.9574 38.8618 20.925 38.8596 20.8961 38.8552L20.8809 38.954L20.8658 39.0528C20.9058 39.059 20.9484 39.0618 20.9874 39.0618V38.9618ZM20.8809 38.954L20.8975 38.8554C20.6039 38.8061 20.4066 38.5281 20.4579 38.2349L20.3594 38.2177L20.2609 38.2004C20.1904 38.6034 20.4617 38.985 20.8644 39.0526L20.8809 38.954ZM20.3594 38.2177L20.458 38.2344L21.7559 30.5889L21.6573 30.5722L21.5587 30.5554L20.2608 38.2009L20.3594 38.2177ZM21.6573 30.5722L21.7559 30.5885C22.0446 28.8462 22.9256 27.2805 24.2305 26.1799L24.1661 26.1034L24.1016 26.027C22.7591 27.1592 21.8548 28.7681 21.5586 30.5558L21.6573 30.5722ZM24.1661 26.1034L24.2305 26.1799C24.5345 25.9241 24.7278 25.5635 24.7732 25.1635L24.6739 25.1522L24.5745 25.141C24.5348 25.4904 24.3663 25.8043 24.1017 26.0269L24.1661 26.1034ZM24.6739 25.1522L24.7732 25.1636C24.8643 24.367 24.3181 23.6264 23.5313 23.4702L23.5118 23.5683L23.4923 23.6663C24.1781 23.8025 24.6536 24.4488 24.5745 25.1409L24.6739 25.1522ZM23.5118 23.5683L23.5314 23.4702C23.3186 23.4277 23.1057 23.4301 22.8959 23.4754L22.917 23.5731L22.9382 23.6709C23.1214 23.6313 23.3066 23.6293 23.4922 23.6663L23.5118 23.5683ZM22.917 23.5731L22.8954 23.4755C22.251 23.6187 21.5884 23.5064 21.0226 23.1634L20.9708 23.2489L20.9189 23.3344C21.5281 23.7038 22.2433 23.8253 22.9387 23.6708L22.917 23.5731ZM20.9708 23.2489L21.0228 23.1635C20.8408 23.0527 20.6391 22.9809 20.4233 22.9525L20.4102 23.0517L20.3972 23.1508C20.5853 23.1756 20.7605 23.2379 20.9187 23.3343L20.9708 23.2489ZM20.4102 23.0517L20.4237 22.9526C19.6303 22.8445 18.8746 23.3734 18.7013 24.155L18.7989 24.1767L18.8965 24.1983C19.0474 23.5179 19.7068 23.0568 20.3967 23.1507L20.4102 23.0517ZM18.7989 24.1767L18.7012 24.1553C18.5963 24.6344 18.7161 25.1261 19.0344 25.4985L19.1104 25.4335L19.1864 25.3685C18.9096 25.0446 18.8049 24.6171 18.8966 24.198L18.7989 24.1767ZM19.1104 25.4335L19.0342 25.4983C19.8625 26.472 20.2159 27.7742 20 29.0724L20.0987 29.0888L20.1973 29.1052C20.4226 27.7506 20.0542 26.3886 19.1866 25.3687L19.1104 25.4335ZM20.0987 29.0888L20.0001 29.0721L18.504 37.9139L18.6026 37.9306L18.7012 37.9472L20.1973 29.1054L20.0987 29.0888ZM18.6026 37.9306L18.504 37.914C18.4546 38.2073 18.1767 38.4047 17.8828 38.3554L17.8663 38.454L17.8497 38.5526C18.252 38.6201 18.6334 38.3498 18.7012 37.9472L18.6026 37.9306ZM17.8663 38.454L17.8828 38.3554C17.5894 38.3061 17.3921 38.0282 17.4415 37.7342L17.3428 37.7177L17.2442 37.7011C17.1767 38.1035 17.4468 38.4849 17.8497 38.5526L17.8663 38.454ZM17.3428 37.7177L17.4414 37.7343L18.9346 28.8955L18.836 28.8788L18.7374 28.8621L17.2442 37.701L17.3428 37.7177ZM18.836 28.8788L18.9346 28.8953C19.0988 27.9156 18.8341 26.9315 18.2111 26.196L18.1348 26.2606L18.0585 26.3253C18.6423 27.0145 18.8921 27.9388 18.7374 28.8623L18.836 28.8788ZM18.1348 26.2606L18.211 26.1959C17.6732 25.5633 17.4683 24.7368 17.6475 23.9248L17.5499 23.9032L17.4522 23.8817C17.2596 24.7547 17.4802 25.645 18.0586 26.3254L18.1348 26.2606ZM17.5499 23.9032L17.6475 23.9247C17.9393 22.6014 19.2199 21.7074 20.5638 21.889L20.5772 21.7899L20.5906 21.6908C19.1436 21.4953 17.7664 22.4566 17.4522 23.8817L17.5499 23.9032ZM26.0557 17.4647L26.0423 17.5638C26.4995 17.626 26.9021 17.9069 27.1156 18.3139L27.2042 18.2675L27.2927 18.221C27.049 17.7562 26.5901 17.4364 26.0692 17.3657L26.0557 17.4647ZM27.2042 18.2675L27.1156 18.3139L27.8578 19.728L27.9463 19.6815L28.0349 19.6351L27.2927 18.221L27.2042 18.2675ZM27.9463 19.6815L27.8578 19.7279C28.1035 20.1972 28.0688 20.7608 27.7682 21.1981L27.8506 21.2548L27.9331 21.3114C28.2754 20.8133 28.3153 20.1704 28.0349 19.6351L27.9463 19.6815ZM27.8506 21.2548L27.7682 21.1982C27.5026 21.5854 27.063 21.8139 26.5987 21.814L26.5987 21.914L26.5987 22.014C27.1284 22.0139 27.6299 21.7534 27.9331 21.3113L27.8506 21.2548ZM26.5987 21.914V21.814C26.5392 21.814 26.4828 21.8122 26.428 21.805L26.4151 21.9042L26.4022 22.0034C26.4696 22.0121 26.5359 22.014 26.5987 22.014V21.914ZM26.4151 21.9042L26.4269 21.8049L24.5744 21.5842L24.5626 21.6835L24.5507 21.7828L26.4033 22.0035L26.4151 21.9042ZM24.5626 21.6835L24.5745 21.5842C24.0376 21.5196 23.5909 21.1666 23.4045 20.6597L23.3106 20.6942L23.2167 20.7287C23.4291 21.3063 23.9392 21.7092 24.5506 21.7828L24.5626 21.6835ZM23.3106 20.6942L23.4045 20.6597C23.2182 20.1531 23.3323 19.5941 23.7002 19.1989L23.627 19.1308L23.5538 19.0626C23.1349 19.5127 23.0043 20.1509 23.2167 20.7287L23.3106 20.6942ZM23.627 19.1308L23.7001 19.199C24.0736 18.7988 24.4694 18.3707 24.8104 18.0057L24.7374 17.9374L24.6643 17.8691C24.3251 18.2321 23.9245 18.6655 23.5539 19.0625L23.627 19.1308ZM24.7374 17.9374L24.8104 18.0056C25.1258 17.668 25.5856 17.5044 26.0428 17.5639L26.0557 17.4647L26.0686 17.3656C25.5479 17.2978 25.0239 17.484 24.6643 17.8691L24.7374 17.9374ZM6.57916 5.43837L6.6636 5.49194C6.82307 5.24054 7.15501 5.16495 7.40553 5.32363L7.45904 5.23915L7.51255 5.15468C7.16779 4.93631 6.71271 5.04115 6.49472 5.38481L6.57916 5.43837ZM7.45904 5.23915L7.40562 5.32369L18.5834 12.3872L18.6368 12.3026L18.6902 12.2181L7.51246 5.15462L7.45904 5.23915ZM18.6368 12.3026L18.5835 12.3873C19.2081 12.7804 19.9933 12.832 20.6899 12.524L20.6495 12.4325L20.609 12.3411C19.9712 12.6231 19.2564 12.5745 18.69 12.218L18.6368 12.3026ZM20.6495 12.4325L20.6899 12.524C21.5907 12.1262 22.6087 12.2286 23.4119 12.7983L23.4698 12.7167L23.5276 12.6351C22.6669 12.0247 21.5742 11.9149 20.6091 12.341L20.6495 12.4325ZM23.4698 12.7167L23.4121 12.7984C23.9788 13.1984 24.3712 13.7961 24.5175 14.4789L24.6153 14.4579L24.7131 14.4369C24.5563 13.7057 24.1356 13.0643 23.5275 12.635L23.4698 12.7167ZM24.6153 14.4579L24.5175 14.4789C24.6638 15.1614 24.5485 15.867 24.1971 16.4648L24.2833 16.5155L24.3695 16.5662C24.7463 15.9253 24.8698 15.1685 24.7131 14.437L24.6153 14.4579ZM24.2833 16.5155L24.1971 16.4648C24.0277 16.7523 23.8117 17.0036 23.5553 17.2113L23.6182 17.289L23.6812 17.3667C23.9564 17.1437 24.188 16.8742 24.3694 16.5663L24.2833 16.5155ZM23.6182 17.289L23.5555 17.2111C23.1552 17.5336 22.8833 17.9703 22.7613 18.4693L22.8585 18.4931L22.9556 18.5168C23.0675 18.0592 23.3159 17.6609 23.681 17.3668L23.6182 17.289ZM22.8585 18.4931L22.7612 18.4697C22.6843 18.7903 22.5509 19.0935 22.3635 19.3707L22.4463 19.4267L22.5292 19.4827C22.7299 19.1857 22.8731 18.8604 22.9557 18.5164L22.8585 18.4931ZM22.4463 19.4267L22.3634 19.3708C21.9762 19.9451 21.3886 20.3503 20.7084 20.512L20.7315 20.6093L20.7546 20.7066C21.4831 20.5334 22.1137 20.0989 22.5293 19.4826L22.4463 19.4267ZM20.7315 20.6093L20.7083 20.512C20.4924 20.5634 20.2767 20.5893 20.0616 20.5893V20.6894V20.7894C20.2929 20.7894 20.5242 20.7614 20.7547 20.7066L20.7315 20.6093ZM20.0616 20.6894L20.0616 20.5893C19.5921 20.5893 19.1304 20.4712 18.715 20.2379L18.6661 20.3251L18.6171 20.4123C19.0628 20.6627 19.5583 20.7893 20.0616 20.7894L20.0616 20.6894ZM18.6661 20.3251L18.7149 20.2378C17.9759 19.8247 17.4736 19.1085 17.335 18.2745L17.2364 18.2909L17.1377 18.3073C17.2862 19.2011 17.8251 19.9695 18.6173 20.4124L18.6661 20.3251ZM17.2364 18.2909L17.335 18.2745C17.1524 17.1792 16.5281 16.2179 15.6179 15.6438L15.5645 15.7284L15.5112 15.813C16.371 16.3553 16.9641 17.2657 17.1377 18.3074L17.2364 18.2909ZM15.5645 15.7284L15.6179 15.6439L5.09058 8.99348L5.03717 9.07802L4.98376 9.16257L15.5111 15.813L15.5645 15.7284ZM5.03717 9.07802L5.09074 8.99358C4.83938 8.83411 4.76379 8.50215 4.92243 8.25164L4.83795 8.19814L4.75346 8.14464C4.53514 8.48938 4.63999 8.94447 4.9836 9.16246L5.03717 9.07802ZM4.83795 8.19814L4.92241 8.25168C5.08188 8.00012 5.41371 7.92455 5.66429 8.08338L5.71783 7.99892L5.77137 7.91446C5.42651 7.69587 4.97148 7.80073 4.75349 8.1446L4.83795 8.19814ZM5.71783 7.99892L5.66442 8.08346L16.1908 14.7339L16.2442 14.6493L16.2976 14.5648L5.77124 7.91438L5.71783 7.99892ZM16.2442 14.6493L16.1908 14.7339C17.3568 15.4704 18.1624 16.6973 18.3946 18.0973L18.4932 18.081L18.5919 18.0646C18.3507 16.6099 17.5132 15.3327 16.2976 14.5648L16.2442 14.6493ZM18.4932 18.081L18.3946 18.0973C18.4793 18.6086 18.7879 19.047 19.2423 19.3011L19.2911 19.2138L19.3399 19.1265C18.9383 18.902 18.6666 18.5156 18.5919 18.0646L18.4932 18.081ZM19.2911 19.2138L19.2423 19.301C20.0053 19.7277 20.9827 19.496 21.4717 18.7696L21.3887 18.7138L21.3058 18.6579C20.875 19.2978 20.0123 19.5024 19.3399 19.1265L19.2911 19.2138ZM21.3887 18.7138L21.4713 18.7702C21.5871 18.6006 21.6693 18.4133 21.7147 18.2178L21.6172 18.1952L21.5198 18.1726C21.4802 18.3437 21.4081 18.5081 21.3062 18.6574L21.3887 18.7138ZM21.6172 18.1952L21.7145 18.2186C21.8901 17.488 22.2928 16.853 22.8765 16.3803L22.8135 16.3026L22.7506 16.2249C22.133 16.725 21.706 17.3982 21.52 18.1718L21.6172 18.1952ZM22.8135 16.3026L22.8769 16.38C23.0318 16.2532 23.1645 16.1004 23.2689 15.9226L23.1827 15.872L23.0964 15.8213C23.0043 15.9782 22.8873 16.113 22.7502 16.2253L22.8135 16.3026ZM23.1827 15.872L23.2688 15.9228C23.7123 15.1711 23.5036 14.186 22.7914 13.6801L22.7335 13.7616L22.6755 13.8431C23.3029 14.2888 23.4874 15.1588 23.0965 15.8212L23.1827 15.872ZM22.7335 13.7616L22.7912 13.68C22.3002 13.3329 21.6755 13.268 21.1247 13.5109L21.1651 13.6024L21.2055 13.6939C21.6914 13.4796 22.2417 13.5364 22.6757 13.8433L22.7335 13.7616ZM21.1651 13.6024L21.1248 13.5109C20.0991 13.963 18.935 13.8824 18.0096 13.2972L17.9561 13.3817L17.9027 13.4663C18.8858 14.0879 20.1204 14.1722 21.2054 13.6939L21.1651 13.6024ZM17.9561 13.3817L18.0095 13.2972L6.8318 6.23372L6.77838 6.31826L6.72496 6.40279L17.9027 13.4663L17.9561 13.3817ZM6.77838 6.31826L6.83198 6.23383C6.58059 6.07423 6.50489 5.74231 6.66362 5.49191L6.57916 5.43837L6.4947 5.38483C6.27613 5.72962 6.38134 6.18463 6.72478 6.40268L6.77838 6.31826ZM25.8545 18.7245V18.6245C25.7849 18.6245 25.6846 18.6441 25.5993 18.7369L25.6729 18.8046L25.7465 18.8723C25.7834 18.8321 25.8232 18.8245 25.8545 18.8245V18.7245ZM25.6729 18.8046L25.5996 18.7366C25.2595 19.1032 24.8614 19.5312 24.4895 19.9297L24.5626 19.9979L24.6357 20.0662C25.0077 19.6675 25.406 19.2394 25.7462 18.8726L25.6729 18.8046ZM24.5626 19.9979L24.4889 19.9303C24.3636 20.0666 24.3891 20.2153 24.4189 20.2899L24.5118 20.2528L24.6047 20.2158C24.592 20.184 24.5809 20.1258 24.6362 20.0656L24.5626 19.9979ZM24.5118 20.2528L24.4174 20.2859C24.4429 20.3587 24.5196 20.492 24.7049 20.5142L24.7169 20.4149L24.7288 20.3156C24.6483 20.306 24.6179 20.2532 24.6062 20.2198L24.5118 20.2528ZM24.7169 20.4149L24.705 20.5142L26.5576 20.7349L26.5694 20.6356L26.5812 20.5363L24.7287 20.3156L24.7169 20.4149ZM26.5694 20.6356L26.5573 20.7349C26.7398 20.7572 26.843 20.6491 26.886 20.5847L26.8028 20.5292L26.7196 20.4737C26.6988 20.505 26.6593 20.5459 26.5815 20.5364L26.5694 20.6356ZM26.8028 20.5292L26.8845 20.5869C26.9274 20.5261 26.9936 20.3889 26.908 20.2251L26.8194 20.2714L26.7308 20.3177C26.7674 20.3878 26.742 20.4419 26.7211 20.4715L26.8028 20.5292ZM26.8194 20.2714L26.9079 20.2249L26.1658 18.8108L26.0772 18.8573L25.9887 18.9038L26.7308 20.3179L26.8194 20.2714ZM26.0772 18.8573L26.1651 18.8097C26.0913 18.6733 25.9678 18.6356 25.8998 18.628L25.8887 18.7274L25.8777 18.8268C25.9054 18.8299 25.9568 18.8451 25.9893 18.9049L26.0772 18.8573ZM25.8887 18.7274L25.913 18.6304C25.8893 18.6245 25.8677 18.6245 25.8546 18.6245L25.8545 18.7245L25.8545 18.8245C25.8607 18.8245 25.8636 18.8246 25.8654 18.8247C25.8668 18.8248 25.8661 18.8249 25.8645 18.8244L25.8887 18.7274Z" fill="url(#paint1_linear_8273_108)" mask="url(#path-1-outside-1_8273_108)"/>
<defs>
<linearGradient id="paint0_linear_8273_108" x1="30.3354" y1="32.2283" x2="0.452323" y2="30.5631" gradientUnits="userSpaceOnUse">
<stop offset="0.135487" stop-color="#EA5D39"/>
<stop offset="0.548428" stop-color="#987077"/>
<stop offset="1" stop-color="#4682B4"/>
</linearGradient>
<linearGradient id="paint1_linear_8273_108" x1="30.3354" y1="32.2283" x2="0.452323" y2="30.5631" gradientUnits="userSpaceOnUse">
<stop offset="0.135487" stop-color="#EA5D39"/>
<stop offset="0.548428" stop-color="#987077"/>
<stop offset="1" stop-color="#4682B4"/>
</linearGradient>
</defs>
</svg>
