<svg width="38" height="42" viewBox="0 0 38 42" fill="none" xmlns="http://www.w3.org/2000/svg">
<mask id="path-1-outside-1_8273_2" maskUnits="userSpaceOnUse" x="-0.822266" y="-1" width="39" height="44" fill="black">
<rect fill="white" x="-0.822266" y="-1" width="39" height="44"/>
<path d="M21.9033 0C24.0497 0.000140685 26.8468 1.21408 29.4043 3.25098C30.9394 3.91082 32.0176 5.43785 32.0176 7.21191C32.0183 7.76081 31.914 8.30488 31.71 8.81445C34.3624 9.32894 36.3721 11.6682 36.3721 14.4688C36.3723 15.0484 36.2835 15.6245 36.1104 16.1777C36.6532 16.7127 37.085 17.3505 37.3789 18.0537C37.6729 18.757 37.8239 19.5122 37.8232 20.2744C37.8232 21.4852 37.4464 22.6098 36.8057 23.5381C37.4715 24.5007 37.8232 25.6234 37.8232 26.8057C37.8232 28.9 36.6808 30.8193 34.8731 31.8311C34.9041 32.0897 34.9199 32.3507 34.9199 32.6113C34.9199 35.4364 33.077 37.9338 30.4033 38.7852C29.2403 40.7756 27.122 42 24.8057 42C22.2663 42 20.0642 40.5324 19 38.4014C17.9358 40.5323 15.7337 42 13.1943 42C10.8781 41.9999 8.75968 40.7755 7.59668 38.7852C4.92298 37.9339 3.08012 35.4364 3.08008 32.6113C3.08011 32.3506 3.09583 32.09 3.12696 31.8311C1.31916 30.8193 0.177754 28.9 0.177736 26.8057C0.177736 25.6234 0.528552 24.5007 1.19434 23.5381C0.553564 22.6098 0.177761 21.4852 0.177736 20.2744C0.177095 19.5122 0.328113 18.757 0.622072 18.0537C0.916027 17.3506 1.34689 16.7126 1.88965 16.1777C1.71645 15.6237 1.62892 15.0508 1.62891 14.4688C1.62891 11.6681 3.6384 9.32879 6.29102 8.81445C6.08832 8.30919 5.98246 7.76769 5.98242 7.21191C5.98242 5.43791 7.06066 3.91086 8.59571 3.25098C11.1534 1.21393 13.9512 0 16.0977 0C17.2907 0.000106217 18.3485 0.586906 19 1.48633C19.6516 0.586821 20.7102 0 21.9033 0ZM16.0977 1.36035C14.7328 1.36035 13.0226 1.96196 11.2861 3.02148C12.5249 3.31946 13.6015 4.16069 14.1699 5.33105C14.2089 5.41129 14.231 5.49885 14.2363 5.58789C14.2416 5.67707 14.2294 5.76714 14.2002 5.85156C14.171 5.93578 14.1256 6.01341 14.0664 6.08008C14.0071 6.14688 13.9349 6.20122 13.8545 6.24023C13.7742 6.27925 13.6868 6.3023 13.5977 6.30762C13.5086 6.31289 13.4193 6.30068 13.335 6.27148C13.2506 6.24225 13.1723 6.19701 13.1055 6.1377C13.0387 6.07839 12.9843 6.00612 12.9453 5.92578C12.4474 4.90053 11.4309 4.26377 10.292 4.26367C9.93507 4.26349 9.58066 4.32812 9.24707 4.45508C9.20925 4.47468 9.16975 4.49082 9.12891 4.50293C8.08009 4.95504 7.34375 5.99918 7.34375 7.21191C7.3438 7.74893 7.48651 8.26655 7.75879 8.72168C10.7631 8.91327 13.1494 11.417 13.1494 14.4688C13.1494 14.8445 12.8445 15.1494 12.4688 15.1494C12.0931 15.1494 11.7881 14.8445 11.7881 14.4688C11.7881 12.0428 9.8146 10.0693 7.38867 10.0693C4.96285 10.0695 2.98926 12.0429 2.98926 14.4688C2.98921 15.035 3.09969 15.5958 3.31348 16.1201C3.36757 16.2536 3.37765 16.4013 3.34278 16.541C3.30788 16.6805 3.2294 16.8052 3.11914 16.8975C2.11441 17.7372 1.53809 18.9685 1.53809 20.2744C1.53815 22.7003 3.51161 24.6738 5.9375 24.6738C6.31323 24.6738 6.61817 24.9787 6.61817 25.3545C6.61801 25.7302 6.31314 26.0342 5.9375 26.0342C4.4803 26.0342 3.14843 25.4892 2.13281 24.5938C1.7423 25.2618 1.53809 26.0166 1.53809 26.8057C1.53811 28.5406 2.56512 30.1187 4.1543 30.8252C4.29567 30.8882 4.41153 30.9972 4.48242 31.1348C4.55337 31.2725 4.57483 31.4302 4.54395 31.582C4.47528 31.9193 4.44043 32.2657 4.44043 32.6113C4.44048 34.9208 5.9999 36.9537 8.23242 37.5547C8.32292 37.5791 8.40827 37.6211 8.48145 37.6797C8.55458 37.7382 8.61459 37.8116 8.65821 37.8945C9.54879 39.5874 11.2868 40.6396 13.1943 40.6396C16.0204 40.6396 18.3193 38.3397 18.3193 35.5137C18.3192 33.2031 16.7593 31.1705 14.5254 30.5703C14.4387 30.5476 14.3575 30.5074 14.2861 30.4531C14.2148 30.3988 14.1544 30.3314 14.1094 30.2539C14.0644 30.1763 14.0352 30.0899 14.0234 30.001C14.0117 29.9122 14.0178 29.8218 14.041 29.7354C14.0643 29.6489 14.1046 29.568 14.1592 29.4971C14.2139 29.426 14.2825 29.3658 14.3604 29.3213C14.4381 29.2768 14.5244 29.2485 14.6133 29.2373C14.7021 29.2261 14.7926 29.2321 14.8789 29.2559C16.2815 29.6328 17.4735 30.4567 18.3193 31.5479V15.1943C18.3193 13.9689 17.3229 12.9719 16.0977 12.9717C15.7221 12.9717 15.4172 12.6676 15.417 12.292C15.417 11.9162 15.7219 11.6113 16.0977 11.6113C16.9365 11.6114 17.7082 11.902 18.3193 12.3867V3.58301C18.3193 2.35765 17.3229 1.36053 16.0977 1.36035ZM21.9033 1.36035C20.6779 1.36035 19.6807 2.35755 19.6807 3.58301V9.48438C20.292 8.99942 21.0642 8.70801 21.9033 8.70801C22.2789 8.70821 22.583 9.01302 22.583 9.38867C22.583 9.76437 22.2789 10.0691 21.9033 10.0693C20.6779 10.0693 19.6807 11.0665 19.6807 12.292V34.7627C19.6805 34.8244 19.672 34.8859 19.6553 34.9453C19.6719 35.133 19.6807 35.3225 19.6807 35.5137C19.6807 38.3397 21.9796 40.6396 24.8057 40.6396C26.7133 40.6396 28.4512 39.5873 29.3418 37.8945C29.3854 37.8116 29.4464 37.7392 29.5195 37.6807C29.5927 37.6221 29.6771 37.579 29.7676 37.5547C32.0003 36.9538 33.5596 34.9209 33.5596 32.6113C33.5596 32.2657 33.5249 31.9207 33.4561 31.582C33.4252 31.4303 33.4467 31.2724 33.5176 31.1348C33.5885 30.997 33.7051 30.8881 33.8467 30.8252C35.4357 30.1186 36.4619 28.5405 36.4619 26.8057C36.4619 26.0166 36.2578 25.2618 35.8672 24.5938C34.8516 25.4892 33.5197 26.0342 32.0625 26.0342C31.687 26.034 31.383 25.7301 31.3828 25.3545C31.3828 24.9788 31.6869 24.674 32.0625 24.6738C34.4884 24.6738 36.4619 22.7003 36.4619 20.2744C36.4619 18.9685 35.8865 17.7372 34.8818 16.8975C34.7714 16.8051 34.6921 16.6807 34.6572 16.541C34.6223 16.4012 34.6333 16.2536 34.6875 16.1201C34.9022 15.5907 35.0107 15.0351 35.0107 14.4688C35.0107 12.0428 33.0373 10.0693 30.6113 10.0693C28.1854 10.0694 26.2119 12.0428 26.2119 14.4688C26.2119 14.8445 25.907 15.1494 25.5313 15.1494C25.1556 15.1493 24.8516 14.8445 24.8516 14.4688C24.8516 11.417 27.237 8.91334 30.2412 8.72168C30.5135 8.26655 30.6562 7.74893 30.6563 7.21191C30.6563 5.99908 29.9201 4.95504 28.8711 4.50293C28.8308 4.49088 28.7911 4.47498 28.7529 4.45508C28.4283 4.33161 28.0764 4.26372 27.709 4.26367C26.5699 4.26367 25.5526 4.90038 25.0547 5.92578C25.0157 6.00616 24.9613 6.07837 24.8945 6.1377C24.8277 6.197 24.7495 6.24226 24.665 6.27148C24.5807 6.30066 24.4915 6.31292 24.4023 6.30762C24.3132 6.30231 24.2259 6.27928 24.1455 6.24023C24.0652 6.20122 23.9929 6.14686 23.9336 6.08008C23.8745 6.01341 23.829 5.93576 23.7998 5.85156C23.7706 5.76714 23.7584 5.67707 23.7637 5.58789C23.769 5.49884 23.7921 5.4113 23.8311 5.33105C24.3995 4.16083 25.4752 3.31934 26.7139 3.02148C24.9776 1.96206 23.2681 1.36046 21.9033 1.36035ZM13.9209 25.3994C14.1012 25.3995 14.2739 25.4712 14.4014 25.5986C14.529 25.7262 14.6006 25.8996 14.6006 26.0801C14.6005 26.2604 14.5289 26.4331 14.4014 26.5605C14.2738 26.688 14.1012 26.7597 13.9209 26.7598C11.4951 26.7598 9.5217 28.7334 9.52149 31.1592C9.52153 31.3147 9.52969 31.4704 9.5459 31.625C11.6564 32.4805 13.1493 34.5511 13.1494 36.9648C13.1494 37.3405 12.8452 37.6452 12.4697 37.6455C12.094 37.6455 11.7891 37.3407 11.7891 36.9648C11.7889 34.5392 9.81532 32.5656 7.38965 32.5654C7.01407 32.5654 6.70924 32.2614 6.70899 31.8857C6.70899 31.5099 7.01392 31.2051 7.38965 31.2051C7.64802 31.2056 7.90613 31.2228 8.16211 31.2578C8.16156 31.225 8.16016 31.1919 8.16016 31.1592C8.16037 27.9831 10.7448 25.3994 13.9209 25.3994ZM21.9023 23.9482C25.0783 23.9484 27.6619 26.5321 27.6621 29.708C27.6621 29.7407 27.6607 29.7739 27.6602 29.8066C27.9132 29.7725 28.1714 29.7539 28.4336 29.7539C28.8092 29.754 29.1133 30.0588 29.1133 30.4346C29.113 30.8101 28.8091 31.1141 28.4336 31.1143C26.0078 31.1143 24.0344 33.0879 24.0342 35.5137C24.0342 35.8895 23.7292 36.1943 23.3535 36.1943C22.9778 36.1943 22.6729 35.8895 22.6729 35.5137C22.673 33.0999 24.1667 31.0292 26.2773 30.1738C26.2935 30.0192 26.3017 29.8635 26.3018 29.708C26.3015 27.2824 24.328 25.3088 21.9023 25.3086C21.5268 25.3086 21.2219 25.0045 21.2217 24.6289C21.2217 24.2531 21.5266 23.9482 21.9023 23.9482ZM7.38965 13.7881C7.76524 13.7883 8.06934 14.093 8.06934 14.4688C8.06951 16.8945 10.0439 18.8682 12.4697 18.8682C13.6618 18.868 14.778 18.3986 15.6123 17.5469C15.7391 17.421 15.9103 17.3503 16.0889 17.3496C16.2677 17.349 16.4396 17.4189 16.5674 17.5439C16.6952 17.6691 16.7694 17.8397 16.7725 18.0186C16.7754 18.1972 16.7073 18.3697 16.584 18.499C15.6405 19.462 14.4218 20.0505 13.1016 20.1934C12.7892 22.2642 10.9974 23.8574 8.84082 23.8574C8.46509 23.8574 8.16016 23.5526 8.16016 23.1768C8.16021 22.801 8.46512 22.4961 8.84082 22.4961C10.25 22.4961 11.4312 21.5024 11.7207 20.1787C8.89728 19.8102 6.70915 17.3909 6.70899 14.4688C6.70899 14.0929 7.01392 13.7881 7.38965 13.7881ZM32.0615 13.0625C32.4373 13.0625 32.7422 13.3673 32.7422 13.7432C32.7421 16.6654 30.5539 19.0847 27.7305 19.4531C28.02 20.7768 29.2011 21.7714 30.6104 21.7715C30.986 21.7715 31.2909 22.0754 31.291 22.4512C31.291 22.827 30.9861 23.1318 30.6104 23.1318C28.4538 23.1318 26.662 21.5386 26.3496 19.4678C25.0295 19.3249 23.8106 18.7372 22.8672 17.7744C22.7409 17.6456 22.671 17.4714 22.6729 17.291C22.6747 17.1106 22.7481 16.9378 22.877 16.8115C23.0058 16.6853 23.18 16.6153 23.3604 16.6172C23.5405 16.6191 23.7127 16.6927 23.8389 16.8213C24.6733 17.6731 25.7902 18.1426 26.9824 18.1426C29.4081 18.1423 31.3817 16.1688 31.3818 13.7432C31.3818 13.3674 31.6859 13.0627 32.0615 13.0625Z"/>
</mask>
<path d="M21.9033 0C24.0497 0.000140685 26.8468 1.21408 29.4043 3.25098C30.9394 3.91082 32.0176 5.43785 32.0176 7.21191C32.0183 7.76081 31.914 8.30488 31.71 8.81445C34.3624 9.32894 36.3721 11.6682 36.3721 14.4688C36.3723 15.0484 36.2835 15.6245 36.1104 16.1777C36.6532 16.7127 37.085 17.3505 37.3789 18.0537C37.6729 18.757 37.8239 19.5122 37.8232 20.2744C37.8232 21.4852 37.4464 22.6098 36.8057 23.5381C37.4715 24.5007 37.8232 25.6234 37.8232 26.8057C37.8232 28.9 36.6808 30.8193 34.8731 31.8311C34.9041 32.0897 34.9199 32.3507 34.9199 32.6113C34.9199 35.4364 33.077 37.9338 30.4033 38.7852C29.2403 40.7756 27.122 42 24.8057 42C22.2663 42 20.0642 40.5324 19 38.4014C17.9358 40.5323 15.7337 42 13.1943 42C10.8781 41.9999 8.75968 40.7755 7.59668 38.7852C4.92298 37.9339 3.08012 35.4364 3.08008 32.6113C3.08011 32.3506 3.09583 32.09 3.12696 31.8311C1.31916 30.8193 0.177754 28.9 0.177736 26.8057C0.177736 25.6234 0.528552 24.5007 1.19434 23.5381C0.553564 22.6098 0.177761 21.4852 0.177736 20.2744C0.177095 19.5122 0.328113 18.757 0.622072 18.0537C0.916027 17.3506 1.34689 16.7126 1.88965 16.1777C1.71645 15.6237 1.62892 15.0508 1.62891 14.4688C1.62891 11.6681 3.6384 9.32879 6.29102 8.81445C6.08832 8.30919 5.98246 7.76769 5.98242 7.21191C5.98242 5.43791 7.06066 3.91086 8.59571 3.25098C11.1534 1.21393 13.9512 0 16.0977 0C17.2907 0.000106217 18.3485 0.586906 19 1.48633C19.6516 0.586821 20.7102 0 21.9033 0ZM16.0977 1.36035C14.7328 1.36035 13.0226 1.96196 11.2861 3.02148C12.5249 3.31946 13.6015 4.16069 14.1699 5.33105C14.2089 5.41129 14.231 5.49885 14.2363 5.58789C14.2416 5.67707 14.2294 5.76714 14.2002 5.85156C14.171 5.93578 14.1256 6.01341 14.0664 6.08008C14.0071 6.14688 13.9349 6.20122 13.8545 6.24023C13.7742 6.27925 13.6868 6.3023 13.5977 6.30762C13.5086 6.31289 13.4193 6.30068 13.335 6.27148C13.2506 6.24225 13.1723 6.19701 13.1055 6.1377C13.0387 6.07839 12.9843 6.00612 12.9453 5.92578C12.4474 4.90053 11.4309 4.26377 10.292 4.26367C9.93507 4.26349 9.58066 4.32812 9.24707 4.45508C9.20925 4.47468 9.16975 4.49082 9.12891 4.50293C8.08009 4.95504 7.34375 5.99918 7.34375 7.21191C7.3438 7.74893 7.48651 8.26655 7.75879 8.72168C10.7631 8.91327 13.1494 11.417 13.1494 14.4688C13.1494 14.8445 12.8445 15.1494 12.4688 15.1494C12.0931 15.1494 11.7881 14.8445 11.7881 14.4688C11.7881 12.0428 9.8146 10.0693 7.38867 10.0693C4.96285 10.0695 2.98926 12.0429 2.98926 14.4688C2.98921 15.035 3.09969 15.5958 3.31348 16.1201C3.36757 16.2536 3.37765 16.4013 3.34278 16.541C3.30788 16.6805 3.2294 16.8052 3.11914 16.8975C2.11441 17.7372 1.53809 18.9685 1.53809 20.2744C1.53815 22.7003 3.51161 24.6738 5.9375 24.6738C6.31323 24.6738 6.61817 24.9787 6.61817 25.3545C6.61801 25.7302 6.31314 26.0342 5.9375 26.0342C4.4803 26.0342 3.14843 25.4892 2.13281 24.5938C1.7423 25.2618 1.53809 26.0166 1.53809 26.8057C1.53811 28.5406 2.56512 30.1187 4.1543 30.8252C4.29567 30.8882 4.41153 30.9972 4.48242 31.1348C4.55337 31.2725 4.57483 31.4302 4.54395 31.582C4.47528 31.9193 4.44043 32.2657 4.44043 32.6113C4.44048 34.9208 5.9999 36.9537 8.23242 37.5547C8.32292 37.5791 8.40827 37.6211 8.48145 37.6797C8.55458 37.7382 8.61459 37.8116 8.65821 37.8945C9.54879 39.5874 11.2868 40.6396 13.1943 40.6396C16.0204 40.6396 18.3193 38.3397 18.3193 35.5137C18.3192 33.2031 16.7593 31.1705 14.5254 30.5703C14.4387 30.5476 14.3575 30.5074 14.2861 30.4531C14.2148 30.3988 14.1544 30.3314 14.1094 30.2539C14.0644 30.1763 14.0352 30.0899 14.0234 30.001C14.0117 29.9122 14.0178 29.8218 14.041 29.7354C14.0643 29.6489 14.1046 29.568 14.1592 29.4971C14.2139 29.426 14.2825 29.3658 14.3604 29.3213C14.4381 29.2768 14.5244 29.2485 14.6133 29.2373C14.7021 29.2261 14.7926 29.2321 14.8789 29.2559C16.2815 29.6328 17.4735 30.4567 18.3193 31.5479V15.1943C18.3193 13.9689 17.3229 12.9719 16.0977 12.9717C15.7221 12.9717 15.4172 12.6676 15.417 12.292C15.417 11.9162 15.7219 11.6113 16.0977 11.6113C16.9365 11.6114 17.7082 11.902 18.3193 12.3867V3.58301C18.3193 2.35765 17.3229 1.36053 16.0977 1.36035ZM21.9033 1.36035C20.6779 1.36035 19.6807 2.35755 19.6807 3.58301V9.48438C20.292 8.99942 21.0642 8.70801 21.9033 8.70801C22.2789 8.70821 22.583 9.01302 22.583 9.38867C22.583 9.76437 22.2789 10.0691 21.9033 10.0693C20.6779 10.0693 19.6807 11.0665 19.6807 12.292V34.7627C19.6805 34.8244 19.672 34.8859 19.6553 34.9453C19.6719 35.133 19.6807 35.3225 19.6807 35.5137C19.6807 38.3397 21.9796 40.6396 24.8057 40.6396C26.7133 40.6396 28.4512 39.5873 29.3418 37.8945C29.3854 37.8116 29.4464 37.7392 29.5195 37.6807C29.5927 37.6221 29.6771 37.579 29.7676 37.5547C32.0003 36.9538 33.5596 34.9209 33.5596 32.6113C33.5596 32.2657 33.5249 31.9207 33.4561 31.582C33.4252 31.4303 33.4467 31.2724 33.5176 31.1348C33.5885 30.997 33.7051 30.8881 33.8467 30.8252C35.4357 30.1186 36.4619 28.5405 36.4619 26.8057C36.4619 26.0166 36.2578 25.2618 35.8672 24.5938C34.8516 25.4892 33.5197 26.0342 32.0625 26.0342C31.687 26.034 31.383 25.7301 31.3828 25.3545C31.3828 24.9788 31.6869 24.674 32.0625 24.6738C34.4884 24.6738 36.4619 22.7003 36.4619 20.2744C36.4619 18.9685 35.8865 17.7372 34.8818 16.8975C34.7714 16.8051 34.6921 16.6807 34.6572 16.541C34.6223 16.4012 34.6333 16.2536 34.6875 16.1201C34.9022 15.5907 35.0107 15.0351 35.0107 14.4688C35.0107 12.0428 33.0373 10.0693 30.6113 10.0693C28.1854 10.0694 26.2119 12.0428 26.2119 14.4688C26.2119 14.8445 25.907 15.1494 25.5313 15.1494C25.1556 15.1493 24.8516 14.8445 24.8516 14.4688C24.8516 11.417 27.237 8.91334 30.2412 8.72168C30.5135 8.26655 30.6562 7.74893 30.6563 7.21191C30.6563 5.99908 29.9201 4.95504 28.8711 4.50293C28.8308 4.49088 28.7911 4.47498 28.7529 4.45508C28.4283 4.33161 28.0764 4.26372 27.709 4.26367C26.5699 4.26367 25.5526 4.90038 25.0547 5.92578C25.0157 6.00616 24.9613 6.07837 24.8945 6.1377C24.8277 6.197 24.7495 6.24226 24.665 6.27148C24.5807 6.30066 24.4915 6.31292 24.4023 6.30762C24.3132 6.30231 24.2259 6.27928 24.1455 6.24023C24.0652 6.20122 23.9929 6.14686 23.9336 6.08008C23.8745 6.01341 23.829 5.93576 23.7998 5.85156C23.7706 5.76714 23.7584 5.67707 23.7637 5.58789C23.769 5.49884 23.7921 5.4113 23.8311 5.33105C24.3995 4.16083 25.4752 3.31934 26.7139 3.02148C24.9776 1.96206 23.2681 1.36046 21.9033 1.36035ZM13.9209 25.3994C14.1012 25.3995 14.2739 25.4712 14.4014 25.5986C14.529 25.7262 14.6006 25.8996 14.6006 26.0801C14.6005 26.2604 14.5289 26.4331 14.4014 26.5605C14.2738 26.688 14.1012 26.7597 13.9209 26.7598C11.4951 26.7598 9.5217 28.7334 9.52149 31.1592C9.52153 31.3147 9.52969 31.4704 9.5459 31.625C11.6564 32.4805 13.1493 34.5511 13.1494 36.9648C13.1494 37.3405 12.8452 37.6452 12.4697 37.6455C12.094 37.6455 11.7891 37.3407 11.7891 36.9648C11.7889 34.5392 9.81532 32.5656 7.38965 32.5654C7.01407 32.5654 6.70924 32.2614 6.70899 31.8857C6.70899 31.5099 7.01392 31.2051 7.38965 31.2051C7.64802 31.2056 7.90613 31.2228 8.16211 31.2578C8.16156 31.225 8.16016 31.1919 8.16016 31.1592C8.16037 27.9831 10.7448 25.3994 13.9209 25.3994ZM21.9023 23.9482C25.0783 23.9484 27.6619 26.5321 27.6621 29.708C27.6621 29.7407 27.6607 29.7739 27.6602 29.8066C27.9132 29.7725 28.1714 29.7539 28.4336 29.7539C28.8092 29.754 29.1133 30.0588 29.1133 30.4346C29.113 30.8101 28.8091 31.1141 28.4336 31.1143C26.0078 31.1143 24.0344 33.0879 24.0342 35.5137C24.0342 35.8895 23.7292 36.1943 23.3535 36.1943C22.9778 36.1943 22.6729 35.8895 22.6729 35.5137C22.673 33.0999 24.1667 31.0292 26.2773 30.1738C26.2935 30.0192 26.3017 29.8635 26.3018 29.708C26.3015 27.2824 24.328 25.3088 21.9023 25.3086C21.5268 25.3086 21.2219 25.0045 21.2217 24.6289C21.2217 24.2531 21.5266 23.9482 21.9023 23.9482ZM7.38965 13.7881C7.76524 13.7883 8.06934 14.093 8.06934 14.4688C8.06951 16.8945 10.0439 18.8682 12.4697 18.8682C13.6618 18.868 14.778 18.3986 15.6123 17.5469C15.7391 17.421 15.9103 17.3503 16.0889 17.3496C16.2677 17.349 16.4396 17.4189 16.5674 17.5439C16.6952 17.6691 16.7694 17.8397 16.7725 18.0186C16.7754 18.1972 16.7073 18.3697 16.584 18.499C15.6405 19.462 14.4218 20.0505 13.1016 20.1934C12.7892 22.2642 10.9974 23.8574 8.84082 23.8574C8.46509 23.8574 8.16016 23.5526 8.16016 23.1768C8.16021 22.801 8.46512 22.4961 8.84082 22.4961C10.25 22.4961 11.4312 21.5024 11.7207 20.1787C8.89728 19.8102 6.70915 17.3909 6.70899 14.4688C6.70899 14.0929 7.01392 13.7881 7.38965 13.7881ZM32.0615 13.0625C32.4373 13.0625 32.7422 13.3673 32.7422 13.7432C32.7421 16.6654 30.5539 19.0847 27.7305 19.4531C28.02 20.7768 29.2011 21.7714 30.6104 21.7715C30.986 21.7715 31.2909 22.0754 31.291 22.4512C31.291 22.827 30.9861 23.1318 30.6104 23.1318C28.4538 23.1318 26.662 21.5386 26.3496 19.4678C25.0295 19.3249 23.8106 18.7372 22.8672 17.7744C22.7409 17.6456 22.671 17.4714 22.6729 17.291C22.6747 17.1106 22.7481 16.9378 22.877 16.8115C23.0058 16.6853 23.18 16.6153 23.3604 16.6172C23.5405 16.6191 23.7127 16.6927 23.8389 16.8213C24.6733 17.6731 25.7902 18.1426 26.9824 18.1426C29.4081 18.1423 31.3817 16.1688 31.3818 13.7432C31.3818 13.3674 31.6859 13.0627 32.0615 13.0625Z" fill="url(#paint0_linear_8273_2)"/>
<path d="M21.9033 0L21.9033 -0.1H21.9033V0ZM29.4043 3.25098L29.342 3.3292L29.3525 3.33755L29.3648 3.34285L29.4043 3.25098ZM32.0176 7.21191H31.9176V7.21205L32.0176 7.21191ZM31.71 8.81445L31.6171 8.77728L31.5722 8.88959L31.6909 8.91262L31.71 8.81445ZM36.3721 14.4688H36.2721V14.4688L36.3721 14.4688ZM36.1104 16.1777L36.0149 16.1479L35.9967 16.2061L36.0402 16.249L36.1104 16.1777ZM37.3789 18.0537L37.4712 18.0151V18.0151L37.3789 18.0537ZM37.8232 20.2744L37.7232 20.2743V20.2744L37.8232 20.2744ZM36.8057 23.5381L36.7234 23.4813L36.6841 23.5381L36.7234 23.595L36.8057 23.5381ZM37.8232 26.8057H37.9232H37.8232ZM34.8731 31.8311L34.8242 31.7438L34.7658 31.7765L34.7738 31.843L34.8731 31.8311ZM34.9199 32.6113H35.0199H34.9199ZM30.4033 38.7852L30.373 38.6899L30.3364 38.7015L30.317 38.7347L30.4033 38.7852ZM24.8057 42L24.8057 42.1H24.8057V42ZM19 38.4014L19.0895 38.3567L19 38.1775L18.9105 38.3567L19 38.4014ZM13.1943 42L13.1943 42.1H13.1943V42ZM7.59668 38.7852L7.68302 38.7347L7.66364 38.7015L7.62702 38.6899L7.59668 38.7852ZM3.08008 32.6113L2.98008 32.6113V32.6113H3.08008ZM3.12696 31.8311L3.22624 31.843L3.23423 31.7765L3.17579 31.7438L3.12696 31.8311ZM0.177736 26.8057H0.0777364H0.177736ZM1.19434 23.5381L1.27658 23.595L1.31589 23.5381L1.27664 23.4813L1.19434 23.5381ZM0.177736 20.2744L0.277736 20.2744L0.277736 20.2743L0.177736 20.2744ZM0.622072 18.0537L0.529812 18.0151L0.529808 18.0151L0.622072 18.0537ZM1.88965 16.1777L1.95984 16.249L2.0033 16.2061L1.9851 16.1479L1.88965 16.1777ZM1.62891 14.4688H1.52891V14.4688L1.62891 14.4688ZM6.29102 8.81445L6.31005 8.91262L6.4289 8.88958L6.38383 8.77722L6.29102 8.81445ZM5.98242 7.21191H5.88242V7.21192L5.98242 7.21191ZM8.59571 3.25098L8.6352 3.34285L8.64752 3.33755L8.65801 3.3292L8.59571 3.25098ZM16.0977 0L16.0977 -0.1H16.0977V0ZM19 1.48633L18.919 1.54499L19 1.65679L19.081 1.54499L19 1.48633ZM16.0977 1.36035L16.0977 1.26035H16.0977V1.36035ZM11.2861 3.02148L11.234 2.93612L11.0275 3.06213L11.2627 3.11871L11.2861 3.02148ZM14.1699 5.33105L14.08 5.37474L14.08 5.37475L14.1699 5.33105ZM14.2363 5.58789L14.3362 5.58195L14.3362 5.58189L14.2363 5.58789ZM14.2002 5.85156L14.2947 5.88434L14.2947 5.88428L14.2002 5.85156ZM14.0664 6.08008L14.1412 6.14647L14.1412 6.14646L14.0664 6.08008ZM13.8545 6.24023L13.8108 6.15027L13.8108 6.15028L13.8545 6.24023ZM13.5977 6.30762L13.6036 6.40744L13.6036 6.40744L13.5977 6.30762ZM13.335 6.27148L13.3022 6.36598L13.3022 6.36598L13.335 6.27148ZM13.1055 6.1377L13.0391 6.21246L13.0391 6.21247L13.1055 6.1377ZM12.9453 5.92578L13.0353 5.88212L13.0353 5.8821L12.9453 5.92578ZM10.292 4.26367L10.2919 4.36367H10.292L10.292 4.26367ZM9.24707 4.45508L9.21127 4.361L9.20105 4.3663L9.24707 4.45508ZM9.12891 4.50293L9.10028 4.40637L9.08932 4.4111L9.12891 4.50293ZM7.34375 7.21191H7.24375V7.21192L7.34375 7.21191ZM7.75879 8.72168L7.67298 8.77302L7.69996 8.81813L7.75243 8.82148L7.75879 8.72168ZM13.1494 14.4688L13.2494 14.4688V14.4688H13.1494ZM12.4688 15.1494L12.4687 15.2494H12.4688V15.1494ZM11.7881 14.4688H11.6881V14.4688L11.7881 14.4688ZM7.38867 10.0693V9.96934H7.38867L7.38867 10.0693ZM2.98926 14.4688L3.08926 14.4688V14.4688H2.98926ZM3.31348 16.1201L3.40615 16.0826L3.40608 16.0824L3.31348 16.1201ZM3.34278 16.541L3.43979 16.5653L3.4398 16.5652L3.34278 16.541ZM3.11914 16.8975L3.18327 16.9742L3.18333 16.9741L3.11914 16.8975ZM1.53809 20.2744H1.43809V20.2744L1.53809 20.2744ZM5.9375 24.6738V24.7738V24.6738ZM6.61817 25.3545L6.71817 25.3545V25.3545H6.61817ZM5.9375 26.0342V26.1342V26.0342ZM2.13281 24.5938L2.19895 24.5187L2.1078 24.4384L2.04648 24.5433L2.13281 24.5938ZM1.53809 26.8057H1.43809V26.8057L1.53809 26.8057ZM4.1543 30.8252L4.195 30.7339L4.19492 30.7338L4.1543 30.8252ZM4.48242 31.1348L4.57132 31.089L4.57132 31.089L4.48242 31.1348ZM4.54395 31.582L4.64194 31.602L4.64194 31.602L4.54395 31.582ZM4.44043 32.6113H4.34043H4.44043ZM8.23242 37.5547L8.25842 37.4581H8.25842L8.23242 37.5547ZM8.48145 37.6797L8.54393 37.6016L8.54392 37.6016L8.48145 37.6797ZM8.65821 37.8945L8.74671 37.848L8.65821 37.8945ZM13.1943 40.6396L13.1943 40.7396H13.1943V40.6396ZM18.3193 35.5137H18.4193V35.5137L18.3193 35.5137ZM14.5254 30.5703L14.5513 30.4737L14.5508 30.4736L14.5254 30.5703ZM14.2861 30.4531L14.2256 30.5327L14.2256 30.5327L14.2861 30.4531ZM14.1094 30.2539L14.0229 30.3041L14.0229 30.3041L14.1094 30.2539ZM14.0234 30.001L13.9243 30.014L13.9243 30.0141L14.0234 30.001ZM14.041 29.7354L13.9444 29.7094L13.9444 29.7094L14.041 29.7354ZM14.1592 29.4971L14.08 29.436L14.0799 29.4361L14.1592 29.4971ZM14.3604 29.3213L14.3107 29.2345L14.3107 29.2345L14.3604 29.3213ZM14.6133 29.2373L14.6008 29.1381L14.6007 29.1381L14.6133 29.2373ZM14.8789 29.2559L14.8524 29.3523L14.853 29.3524L14.8789 29.2559ZM18.3193 31.5479L18.2403 31.6091L18.4193 31.8401V31.5479H18.3193ZM18.3193 15.1943H18.4193V15.1943L18.3193 15.1943ZM16.0977 12.9717L16.0977 12.8717H16.0977V12.9717ZM15.417 12.292H15.317V12.2921L15.417 12.292ZM16.0977 11.6113L16.0977 11.5113H16.0977V11.6113ZM18.3193 12.3867L18.2572 12.4651L18.4193 12.5937V12.3867H18.3193ZM18.3193 3.58301H18.4193V3.583L18.3193 3.58301ZM21.9033 1.36035L21.9033 1.26035H21.9033V1.36035ZM19.6807 3.58301L19.5807 3.583V3.58301H19.6807ZM19.6807 9.48438H19.5807V9.69135L19.7428 9.56272L19.6807 9.48438ZM21.9033 8.70801L21.9034 8.60801H21.9033V8.70801ZM22.583 9.38867H22.683V9.38866L22.583 9.38867ZM21.9033 10.0693V10.1693H21.9034L21.9033 10.0693ZM19.6807 34.7627L19.7807 34.763V34.7627H19.6807ZM19.6553 34.9453L19.559 34.9182L19.5541 34.9358L19.5557 34.9541L19.6553 34.9453ZM19.6807 35.5137H19.7807V35.5137L19.6807 35.5137ZM24.8057 40.6396L24.8057 40.7396H24.8057V40.6396ZM29.3418 37.8945L29.4303 37.9411L29.4303 37.9411L29.3418 37.8945ZM29.5195 37.6807L29.4571 37.6026L29.457 37.6026L29.5195 37.6807ZM29.7676 37.5547L29.7936 37.6513H29.7936L29.7676 37.5547ZM33.5596 32.6113H33.6596V32.6113L33.5596 32.6113ZM33.4561 31.582L33.5541 31.5621L33.5541 31.5621L33.4561 31.582ZM33.5176 31.1348L33.4287 31.089V31.089L33.5176 31.1348ZM33.8467 30.8252L33.8873 30.9166L33.8873 30.9166L33.8467 30.8252ZM36.4619 26.8057L36.5619 26.8057V26.8057H36.4619ZM35.8672 24.5938L35.9535 24.5433L35.8922 24.4384L35.8011 24.5187L35.8672 24.5938ZM32.0625 26.0342L32.0625 26.1342H32.0625V26.0342ZM31.3828 25.3545H31.2828V25.3545L31.3828 25.3545ZM32.0625 24.6738V24.5738H32.0625L32.0625 24.6738ZM36.4619 20.2744L36.5619 20.2744V20.2744H36.4619ZM34.8818 16.8975L34.946 16.8207L34.8818 16.8975ZM34.6572 16.541L34.5602 16.5652L34.5602 16.5653L34.6572 16.541ZM34.6875 16.1201L34.7802 16.1577L34.7802 16.1577L34.6875 16.1201ZM35.0107 14.4688L35.1107 14.4688V14.4688H35.0107ZM30.6113 10.0693V9.96934V10.0693ZM26.2119 14.4688L26.3119 14.4688V14.4688H26.2119ZM25.5313 15.1494L25.5312 15.2494H25.5313V15.1494ZM24.8516 14.4688H24.7516V14.4688L24.8516 14.4688ZM30.2412 8.72168L30.2476 8.82148L30.3 8.81813L30.327 8.77302L30.2412 8.72168ZM30.6563 7.21191L30.7563 7.21192V7.21191H30.6563ZM28.8711 4.50293L28.9109 4.41047L28.8998 4.40713L28.8711 4.50293ZM28.7529 4.45508L28.7995 4.36579L28.7885 4.36161L28.7529 4.45508ZM27.709 4.26367L27.709 4.16367H27.709V4.26367ZM25.0547 5.92578L24.9647 5.8821L24.9647 5.88211L25.0547 5.92578ZM24.8945 6.1377L24.9609 6.21248L24.9609 6.21248L24.8945 6.1377ZM24.665 6.27148L24.6977 6.36599L24.6978 6.36598L24.665 6.27148ZM24.4023 6.30762L24.3964 6.40744L24.3964 6.40744L24.4023 6.30762ZM24.1455 6.24023L24.1892 6.15029L24.1892 6.15028L24.1455 6.24023ZM23.9336 6.08008L23.8588 6.14644L23.8588 6.14647L23.9336 6.08008ZM23.7998 5.85156L23.7053 5.88428L23.7053 5.88433L23.7998 5.85156ZM23.7637 5.58789L23.6639 5.58189L23.6639 5.58195L23.7637 5.58789ZM23.8311 5.33105L23.921 5.37475L23.921 5.37475L23.8311 5.33105ZM26.7139 3.02148L26.7372 3.11871L26.9725 3.06215L26.766 2.93612L26.7139 3.02148ZM13.9209 25.3994L13.9209 25.2994H13.9209V25.3994ZM14.4014 25.5986L14.4721 25.5279L14.4721 25.5279L14.4014 25.5986ZM14.6006 26.0801L14.7006 26.0801V26.0801H14.6006ZM14.4014 26.5605L14.4721 26.6313L14.4721 26.6313L14.4014 26.5605ZM13.9209 26.7598V26.8598H13.9209L13.9209 26.7598ZM9.52149 31.1592L9.42149 31.1592V31.1592L9.52149 31.1592ZM9.5459 31.625L9.44645 31.6354L9.4527 31.6951L9.50834 31.7177L9.5459 31.625ZM13.1494 36.9648H13.2494V36.9648L13.1494 36.9648ZM12.4697 37.6455V37.7455H12.4698L12.4697 37.6455ZM11.7891 36.9648H11.8891V36.9648L11.7891 36.9648ZM7.38965 32.5654L7.38966 32.4654H7.38965V32.5654ZM6.70899 31.8857H6.60899V31.8858L6.70899 31.8857ZM7.38965 31.2051L7.38984 31.1051H7.38965V31.2051ZM8.16211 31.2578L8.14855 31.3569L8.26404 31.3727L8.2621 31.2561L8.16211 31.2578ZM8.16016 31.1592L8.06016 31.1592V31.1592H8.16016ZM21.9023 23.9482L21.9024 23.8482H21.9023V23.9482ZM27.6621 29.708H27.7621V29.708L27.6621 29.708ZM27.6602 29.8066L27.5602 29.805L27.5582 29.9213L27.6735 29.9057L27.6602 29.8066ZM28.4336 29.7539L28.4336 29.6539H28.4336V29.7539ZM29.1133 30.4346L29.2133 30.4346V30.4346H29.1133ZM28.4336 31.1143V31.2143H28.4336L28.4336 31.1143ZM24.0342 35.5137L23.9342 35.5137V35.5137H24.0342ZM23.3535 36.1943V36.2943H23.3535L23.3535 36.1943ZM22.6729 35.5137L22.5729 35.5137V35.5137H22.6729ZM26.2773 30.1738L26.3149 30.2665L26.3705 30.244L26.3768 30.1842L26.2773 30.1738ZM26.3018 29.708L26.4018 29.708V29.708L26.3018 29.708ZM21.9023 25.3086L21.9024 25.2086H21.9023V25.3086ZM21.2217 24.6289H21.1217V24.629L21.2217 24.6289ZM7.38965 13.7881L7.3897 13.6881H7.38965V13.7881ZM8.06934 14.4688H7.96934V14.4688L8.06934 14.4688ZM12.4697 18.8682V18.9682H12.4697L12.4697 18.8682ZM15.6123 17.5469L15.5419 17.4759L15.5409 17.4769L15.6123 17.5469ZM16.0889 17.3496L16.0885 17.2496H16.0885L16.0889 17.3496ZM16.5674 17.5439L16.6374 17.4725L16.6373 17.4725L16.5674 17.5439ZM16.7725 18.0186L16.8724 18.0169L16.8724 18.0169L16.7725 18.0186ZM16.584 18.499L16.6554 18.569L16.6564 18.568L16.584 18.499ZM13.1016 20.1934L13.0908 20.0939L13.0142 20.1022L13.0027 20.1784L13.1016 20.1934ZM8.84082 23.8574V23.9574H8.84082L8.84082 23.8574ZM8.16016 23.1768L8.06016 23.1767V23.1768H8.16016ZM8.84082 22.4961V22.5961H8.84083L8.84082 22.4961ZM11.7207 20.1787L11.8184 20.2001L11.8417 20.0937L11.7336 20.0796L11.7207 20.1787ZM6.70899 14.4688H6.60899V14.4688L6.70899 14.4688ZM32.0615 13.0625V12.9625H32.0615L32.0615 13.0625ZM32.7422 13.7432L32.8422 13.7432V13.7432H32.7422ZM27.7305 19.4531L27.7175 19.354L27.6095 19.3681L27.6328 19.4745L27.7305 19.4531ZM30.6104 21.7715L30.6103 21.8715H30.6104V21.7715ZM31.291 22.4512H31.391V22.4511L31.291 22.4512ZM30.6104 23.1318L30.6104 23.2318H30.6104V23.1318ZM26.3496 19.4678L26.4485 19.4529L26.437 19.3766L26.3604 19.3684L26.3496 19.4678ZM22.8672 17.7744L22.7958 17.8444L22.7958 17.8444L22.8672 17.7744ZM22.6729 17.291L22.5729 17.29V17.29L22.6729 17.291ZM22.877 16.8115L22.807 16.7401L22.807 16.7401L22.877 16.8115ZM23.3604 16.6172L23.3614 16.5172H23.3614L23.3604 16.6172ZM23.8389 16.8213L23.9103 16.7513L23.9103 16.7513L23.8389 16.8213ZM26.9824 18.1426V18.2426H26.9824L26.9824 18.1426ZM31.3818 13.7432L31.4818 13.7432V13.7432H31.3818ZM21.9033 0L21.9033 0.1C24.0179 0.100139 26.7934 1.29934 29.342 3.3292L29.4043 3.25098L29.4666 3.17275C26.9003 1.12883 24.0815 -0.0998572 21.9033 -0.1L21.9033 0ZM29.4043 3.25098L29.3648 3.34285C30.8647 3.98753 31.9176 5.47935 31.9176 7.21191H32.0176H32.1176C32.1176 5.39634 31.0142 3.83411 29.4438 3.1591L29.4043 3.25098ZM32.0176 7.21191L31.9176 7.21205C31.9183 7.74819 31.8164 8.27959 31.6171 8.77728L31.71 8.81445L31.8028 8.85162C32.0116 8.33017 32.1183 7.77344 32.1176 7.21178L32.0176 7.21191ZM31.71 8.81445L31.6909 8.91262C34.2974 9.41819 36.2721 11.7171 36.2721 14.4688H36.3721H36.4721C36.4721 11.6193 34.4274 9.23969 31.729 8.71628L31.71 8.81445ZM36.3721 14.4688L36.2721 14.4688C36.2723 15.0382 36.185 15.6042 36.0149 16.1479L36.1104 16.1777L36.2058 16.2076C36.3819 15.6448 36.4724 15.0586 36.4721 14.4687L36.3721 14.4688ZM36.1104 16.1777L36.0402 16.249C36.5736 16.7747 36.9978 17.4014 37.2866 18.0923L37.3789 18.0537L37.4712 18.0151C37.1721 17.2997 36.7328 16.6508 36.1805 16.1065L36.1104 16.1777ZM37.3789 18.0537L37.2866 18.0923C37.5755 18.7833 37.7239 19.5254 37.7232 20.2743L37.8232 20.2744L37.9232 20.2745C37.9239 19.499 37.7703 18.7307 37.4712 18.0151L37.3789 18.0537ZM37.8232 20.2744L37.7232 20.2744C37.7232 21.4641 37.3531 22.569 36.7234 23.4813L36.8057 23.5381L36.888 23.5949C37.5398 22.6505 37.9232 21.5063 37.9232 20.2744L37.8232 20.2744ZM36.8057 23.5381L36.7234 23.595C37.3777 24.5408 37.7232 25.6437 37.7232 26.8057H37.8232H37.9232C37.9232 25.6031 37.5653 24.4605 36.8879 23.4812L36.8057 23.5381ZM37.8232 26.8057H37.7232C37.7232 28.8635 36.6007 30.7495 34.8242 31.7438L34.8731 31.8311L34.9219 31.9183C36.761 30.889 37.9232 28.9366 37.9232 26.8057H37.8232ZM34.8731 31.8311L34.7738 31.843C34.8044 32.0977 34.8199 32.3547 34.8199 32.6113H34.9199H35.0199C35.0199 32.3467 35.0039 32.0817 34.9723 31.8191L34.8731 31.8311ZM34.9199 32.6113H34.8199C34.8199 35.3926 33.0055 37.8517 30.373 38.6899L30.4033 38.7852L30.4337 38.8804C33.1486 38.016 35.0199 35.4801 35.0199 32.6113H34.9199ZM30.4033 38.7852L30.317 38.7347C29.1718 40.6946 27.0863 41.9 24.8057 41.9V42V42.1C27.1577 42.1 29.3088 40.8566 30.4897 38.8356L30.4033 38.7852ZM24.8057 42L24.8057 41.9C22.3058 41.9 20.1374 40.4552 19.0895 38.3567L19 38.4014L18.9105 38.446C19.9909 40.6095 22.2268 42.1 24.8057 42.1L24.8057 42ZM19 38.4014L18.9105 38.3567C17.8625 40.4552 15.6942 41.9 13.1943 41.9V42V42.1C15.7732 42.1 18.0091 40.6094 19.0895 38.446L19 38.4014ZM13.1943 42L13.1943 41.9C10.9138 41.8999 8.82817 40.6945 7.68302 38.7347L7.59668 38.7852L7.51034 38.8356C8.69118 40.8565 10.8424 42.0999 13.1943 42.1L13.1943 42ZM7.59668 38.7852L7.62702 38.6899C4.99457 37.8518 3.18012 35.3926 3.18008 32.6113H3.08008H2.98008C2.98012 35.4802 4.85139 38.0161 7.56634 38.8804L7.59668 38.7852ZM3.08008 32.6113L3.18008 32.6113C3.18011 32.3546 3.19559 32.098 3.22624 31.843L3.12696 31.8311L3.02767 31.8191C2.99607 32.082 2.98011 32.3465 2.98008 32.6113L3.08008 32.6113ZM3.12696 31.8311L3.17579 31.7438C1.39931 30.7495 0.277754 28.8635 0.277736 26.8057H0.177736H0.0777364C0.0777546 28.9365 1.239 30.889 3.07812 31.9183L3.12696 31.8311ZM0.177736 26.8057H0.277736C0.277736 25.6437 0.622407 24.5408 1.27658 23.595L1.19434 23.5381L1.11209 23.4812C0.434696 24.4606 0.0777364 25.6032 0.0777364 26.8057H0.177736ZM1.19434 23.5381L1.27664 23.4813C0.646976 22.5691 0.27776 21.4642 0.277736 20.2744L0.177736 20.2744L0.0777364 20.2744C0.077761 21.5062 0.460152 22.6505 1.11204 23.5949L1.19434 23.5381ZM0.177736 20.2744L0.277736 20.2743C0.277106 19.5254 0.4255 18.7833 0.714336 18.0923L0.622072 18.0537L0.529808 18.0151C0.230727 18.7307 0.0770839 19.499 0.0777364 20.2745L0.177736 20.2744ZM0.622072 18.0537L0.714333 18.0923C1.00318 17.4014 1.42655 16.7745 1.95984 16.249L1.88965 16.1777L1.81946 16.1065C1.26723 16.6507 0.828873 17.2999 0.529812 18.0151L0.622072 18.0537ZM1.88965 16.1777L1.9851 16.1479C1.81491 15.6035 1.72891 15.0407 1.72891 14.4687L1.62891 14.4688L1.52891 14.4688C1.52892 15.0609 1.61798 15.6438 1.79421 16.2076L1.88965 16.1777ZM1.62891 14.4688H1.72891C1.72891 11.717 3.70345 9.41804 6.31005 8.91262L6.29102 8.81445L6.27198 8.71628C3.57334 9.23954 1.52891 11.6192 1.52891 14.4688H1.62891ZM6.29102 8.81445L6.38383 8.77722C6.18587 8.28377 6.08245 7.7549 6.08242 7.21191L5.98242 7.21191L5.88242 7.21192C5.88246 7.78047 5.99077 8.33461 6.19821 8.85169L6.29102 8.81445ZM5.98242 7.21191H6.08242C6.08242 5.47941 7.13543 3.98757 8.6352 3.34285L8.59571 3.25098L8.55621 3.15911C6.98589 3.83415 5.88242 5.3964 5.88242 7.21191H5.98242ZM8.59571 3.25098L8.65801 3.3292C11.2068 1.29919 13.983 0.1 16.0977 0.1V0V-0.1C13.9194 -0.1 11.0999 1.12867 8.53341 3.17275L8.59571 3.25098ZM16.0977 0L16.0976 0.1C17.2571 0.100103 18.2854 0.670273 18.919 1.54499L19 1.48633L19.081 1.42766C18.4116 0.503539 17.3243 -0.0998908 16.0977 -0.1L16.0977 0ZM19 1.48633L19.081 1.54499C19.7147 0.670207 20.7437 0.1 21.9033 0.1V0V-0.1C20.6766 -0.1 19.5885 0.503435 18.919 1.42766L19 1.48633ZM16.0977 1.36035V1.26035C14.707 1.26035 12.9783 1.87181 11.234 2.93612L11.2861 3.02148L11.3382 3.10685C13.0668 2.05211 14.7586 1.46035 16.0977 1.46035V1.36035ZM11.2861 3.02148L11.2627 3.11871C12.4732 3.40988 13.5249 4.23198 14.08 5.37474L14.1699 5.33105L14.2599 5.28737C13.678 4.0894 12.5766 3.22904 11.3095 2.92426L11.2861 3.02148ZM14.1699 5.33105L14.08 5.37475C14.113 5.44263 14.1319 5.5173 14.1365 5.59389L14.2363 5.58789L14.3362 5.58189C14.33 5.4804 14.3049 5.37996 14.2599 5.28735L14.1699 5.33105ZM14.2363 5.58789L14.1365 5.59383C14.141 5.67005 14.1306 5.74697 14.1057 5.81884L14.2002 5.85156L14.2947 5.88428C14.3283 5.7873 14.3422 5.68409 14.3362 5.58195L14.2363 5.58789ZM14.2002 5.85156L14.1057 5.81878C14.0808 5.89067 14.0421 5.95687 13.9916 6.0137L14.0664 6.08008L14.1412 6.14646C14.2091 6.06994 14.2612 5.98089 14.2947 5.88434L14.2002 5.85156ZM14.0664 6.08008L13.9916 6.01368C13.9412 6.0705 13.8796 6.1169 13.8108 6.15027L13.8545 6.24023L13.8982 6.3302C13.9901 6.28555 14.073 6.22327 14.1412 6.14647L14.0664 6.08008ZM13.8545 6.24023L13.8108 6.15028C13.7422 6.18363 13.6676 6.20327 13.5917 6.20779L13.5977 6.30762L13.6036 6.40744C13.706 6.40134 13.8062 6.37488 13.8982 6.33018L13.8545 6.24023ZM13.5977 6.30762L13.5918 6.20779C13.5157 6.21229 13.4395 6.20186 13.3677 6.17699L13.335 6.27148L13.3022 6.36598C13.3991 6.3995 13.5015 6.41348 13.6036 6.40744L13.5977 6.30762ZM13.335 6.27148L13.3677 6.17699C13.2953 6.15193 13.2286 6.11325 13.1719 6.06292L13.1055 6.1377L13.0391 6.21247C13.116 6.28076 13.2058 6.33258 13.3022 6.36598L13.335 6.27148ZM13.1055 6.1377L13.1719 6.06293C13.1151 6.01248 13.0686 5.95082 13.0353 5.88212L12.9453 5.92578L12.8553 5.96944C12.9 6.06142 12.9623 6.1443 13.0391 6.21246L13.1055 6.1377ZM12.9453 5.92578L13.0353 5.8821C12.5206 4.82243 11.4692 4.16378 10.292 4.16367L10.292 4.26367L10.292 4.36367C11.3926 4.36377 12.3742 4.97862 12.8554 5.96947L12.9453 5.92578ZM10.292 4.26367L10.292 4.16367C9.92303 4.16349 9.55654 4.2303 9.2115 4.36162L9.24707 4.45508L9.28264 4.54854C9.60477 4.42594 9.94711 4.3635 10.2919 4.36367L10.292 4.26367ZM9.24707 4.45508L9.20105 4.3663C9.16858 4.38313 9.13495 4.39684 9.10048 4.40705L9.12891 4.50293L9.15733 4.5988C9.20455 4.58481 9.24992 4.56623 9.29309 4.54386L9.24707 4.45508ZM9.12891 4.50293L9.08932 4.4111C8.00527 4.8784 7.24375 5.95772 7.24375 7.21191H7.34375H7.44375C7.44375 6.04063 8.15491 5.03168 9.16849 4.59476L9.12891 4.50293ZM7.34375 7.21191L7.24375 7.21192C7.2438 7.76686 7.39134 8.30225 7.67298 8.77302L7.75879 8.72168L7.84461 8.67034C7.58169 8.23086 7.4438 7.73101 7.44375 7.21191L7.34375 7.21191ZM7.75879 8.72168L7.75243 8.82148C10.7045 9.00973 13.0494 11.4702 13.0494 14.4688H13.1494H13.2494C13.2494 11.3638 10.8217 8.8168 7.76516 8.62188L7.75879 8.72168ZM13.1494 14.4688L13.0494 14.4687C13.0494 14.7893 12.7892 15.0494 12.4688 15.0494V15.1494V15.2494C12.8997 15.2494 13.2494 14.8998 13.2494 14.4688L13.1494 14.4688ZM12.4688 15.1494L12.4688 15.0494C12.1483 15.0494 11.8881 14.7893 11.8881 14.4687L11.7881 14.4688L11.6881 14.4688C11.6881 14.8998 12.0379 15.2494 12.4687 15.2494L12.4688 15.1494ZM11.7881 14.4688H11.8881C11.8881 11.9876 9.86983 9.96934 7.38867 9.96934V10.0693V10.1693C9.75938 10.1693 11.6881 12.098 11.6881 14.4688H11.7881ZM7.38867 10.0693L7.38867 9.96934C4.90763 9.96947 2.88926 11.9877 2.88926 14.4688H2.98926H3.08926C3.08926 12.0981 5.01808 10.1695 7.38868 10.1693L7.38867 10.0693ZM2.98926 14.4688L2.88926 14.4687C2.88921 15.048 3.00223 15.6216 3.22088 16.1579L3.31348 16.1201L3.40608 16.0824C3.19715 15.57 3.08922 15.022 3.08926 14.4688L2.98926 14.4688ZM3.31348 16.1201L3.2208 16.1577C3.26689 16.2714 3.27554 16.3975 3.24575 16.5168L3.34278 16.541L3.4398 16.5652C3.47976 16.4051 3.46826 16.2358 3.40615 16.0826L3.31348 16.1201ZM3.34278 16.541L3.24576 16.5167C3.21604 16.6356 3.14914 16.7419 3.05496 16.8208L3.11914 16.8975L3.18333 16.9741C3.30966 16.8684 3.39973 16.7254 3.43979 16.5653L3.34278 16.541ZM3.11914 16.8975L3.05501 16.8207C2.02761 17.6794 1.43809 18.9388 1.43809 20.2744H1.53809H1.63809C1.63809 18.9982 2.20121 17.795 3.18327 16.9742L3.11914 16.8975ZM1.53809 20.2744L1.43809 20.2744C1.43815 22.7555 3.45638 24.7738 5.9375 24.7738V24.6738L5.9375 24.5738C3.56684 24.5738 1.63815 22.6451 1.63809 20.2744L1.53809 20.2744ZM5.9375 24.6738V24.7738C6.25801 24.7738 6.51817 25.0339 6.51817 25.3545H6.61817H6.71817C6.71817 24.9234 6.36845 24.5738 5.9375 24.5738V24.6738ZM6.61817 25.3545L6.51817 25.3545C6.51804 25.6748 6.25807 25.9342 5.9375 25.9342V26.0342V26.1342C6.36821 26.1342 6.71799 25.7856 6.71817 25.3545L6.61817 25.3545ZM5.9375 26.0342L5.9375 25.9342C4.50571 25.9342 3.19711 25.3988 2.19895 24.5187L2.13281 24.5938L2.06668 24.6688C3.09975 25.5796 4.45488 26.1342 5.9375 26.1342V26.0342ZM2.13281 24.5938L2.04648 24.5433C1.64691 25.2269 1.43809 25.999 1.43809 26.8057H1.53809H1.63809C1.63809 26.0341 1.83768 25.2968 2.21915 24.6442L2.13281 24.5938ZM1.53809 26.8057L1.43809 26.8057C1.43811 28.5802 2.48849 30.1941 4.11368 30.9166L4.1543 30.8252L4.19492 30.7338C2.64174 30.0434 1.63811 28.501 1.63809 26.8057L1.53809 26.8057ZM4.1543 30.8252L4.1136 30.9165C4.23434 30.9703 4.33313 31.0633 4.39353 31.1806L4.48242 31.1348L4.57132 31.089C4.48993 30.931 4.35699 30.806 4.195 30.7339L4.1543 30.8252ZM4.48242 31.1348L4.39353 31.1806C4.45397 31.2979 4.47233 31.4324 4.44595 31.5621L4.54395 31.582L4.64194 31.602C4.67732 31.428 4.65277 31.2471 4.57132 31.089L4.48242 31.1348ZM4.54395 31.582L4.44596 31.5621C4.37595 31.9059 4.34043 32.259 4.34043 32.6113H4.44043H4.54043C4.54043 32.2724 4.57461 31.9327 4.64194 31.602L4.54395 31.582ZM4.44043 32.6113H4.34043C4.34048 34.9661 5.93032 37.0385 8.20643 37.6512L8.23242 37.5547L8.25842 37.4581C6.06949 36.8689 4.54047 34.8755 4.54043 32.6113H4.44043ZM8.23242 37.5547L8.20642 37.6512C8.28436 37.6722 8.35713 37.7083 8.41897 37.7578L8.48145 37.6797L8.54392 37.6016C8.45941 37.534 8.36149 37.4859 8.25842 37.4581L8.23242 37.5547ZM8.48145 37.6797L8.41896 37.7578C8.48109 37.8075 8.53235 37.8701 8.56971 37.9411L8.65821 37.8945L8.74671 37.848C8.69684 37.7532 8.62807 37.6689 8.54393 37.6016L8.48145 37.6797ZM8.65821 37.8945L8.56971 37.9411C9.47751 39.6666 11.2495 40.7396 13.1943 40.7396L13.1943 40.6396L13.1943 40.5396C11.3241 40.5396 9.62008 39.5081 8.74671 37.848L8.65821 37.8945ZM13.1943 40.6396V40.7396C16.0757 40.7396 18.4193 38.3949 18.4193 35.5137H18.3193H18.2193C18.2193 38.2845 15.9651 40.5396 13.1943 40.5396V40.6396ZM18.3193 35.5137L18.4193 35.5137C18.4192 33.1578 16.8288 31.0857 14.5513 30.4737L14.5254 30.5703L14.4994 30.6669C16.6897 31.2554 18.2192 33.2484 18.2193 35.5137L18.3193 35.5137ZM14.5254 30.5703L14.5508 30.4736C14.4772 30.4543 14.4079 30.4201 14.3467 30.3736L14.2861 30.4531L14.2256 30.5327C14.3071 30.5948 14.4002 30.6408 14.5 30.667L14.5254 30.5703ZM14.2861 30.4531L14.3467 30.3736C14.2855 30.3269 14.234 30.2693 14.1959 30.2037L14.1094 30.2539L14.0229 30.3041C14.0748 30.3935 14.1442 30.4707 14.2256 30.5327L14.2861 30.4531ZM14.1094 30.2539L14.1959 30.2037C14.1576 30.1378 14.1327 30.0639 14.1226 29.9878L14.0234 30.001L13.9243 30.0141C13.9378 30.1158 13.9711 30.2149 14.0229 30.3041L14.1094 30.2539ZM14.0234 30.001L14.1226 29.9879C14.1126 29.9123 14.1178 29.8351 14.1376 29.7613L14.041 29.7354L13.9444 29.7094C13.9178 29.8085 13.9109 29.9121 13.9243 30.014L14.0234 30.001ZM14.041 29.7354L14.1376 29.7613C14.1574 29.6878 14.1917 29.6187 14.2384 29.5581L14.1592 29.4971L14.0799 29.4361C14.0174 29.5173 13.9712 29.61 13.9444 29.7094L14.041 29.7354ZM14.1592 29.4971L14.2384 29.5581C14.2852 29.4973 14.3438 29.446 14.41 29.4081L14.3604 29.3213L14.3107 29.2345C14.2212 29.2857 14.1426 29.3547 14.08 29.436L14.1592 29.4971ZM14.3604 29.3213L14.41 29.4081C14.476 29.3704 14.5496 29.3461 14.6258 29.3365L14.6133 29.2373L14.6007 29.1381C14.4992 29.1509 14.4003 29.1833 14.3107 29.2345L14.3604 29.3213ZM14.6133 29.2373L14.6258 29.3365C14.7019 29.3269 14.7791 29.3321 14.8524 29.3523L14.8789 29.2559L14.9054 29.1594C14.806 29.1321 14.7023 29.1253 14.6008 29.1381L14.6133 29.2373ZM14.8789 29.2559L14.853 29.3524C16.2337 29.7235 17.4074 30.5346 18.2403 31.6091L18.3193 31.5479L18.3984 31.4866C17.5396 30.3788 16.3292 29.542 14.9049 29.1593L14.8789 29.2559ZM18.3193 31.5479H18.4193V15.1943H18.3193H18.2193V31.5479H18.3193ZM18.3193 15.1943L18.4193 15.1943C18.4193 13.9138 17.3782 12.8719 16.0977 12.8717L16.0977 12.9717L16.0976 13.0717C17.2677 13.0718 18.2193 14.0241 18.2193 15.1943L18.3193 15.1943ZM16.0977 12.9717V12.8717C15.7772 12.8717 15.5172 12.6122 15.517 12.2919L15.417 12.292L15.317 12.2921C15.3173 12.723 15.667 13.0717 16.0977 13.0717V12.9717ZM15.417 12.292H15.517C15.517 11.9714 15.7771 11.7113 16.0977 11.7113V11.6113V11.5113C15.6667 11.5113 15.317 11.8609 15.317 12.292H15.417ZM16.0977 11.6113L16.0976 11.7113C16.9129 11.7114 17.6629 11.9938 18.2572 12.4651L18.3193 12.3867L18.3815 12.3084C17.7534 11.8102 16.96 11.5114 16.0977 11.5113L16.0977 11.6113ZM18.3193 12.3867H18.4193V3.58301H18.3193H18.2193V12.3867H18.3193ZM18.3193 3.58301L18.4193 3.583C18.4193 2.30247 17.3782 1.26054 16.0977 1.26035L16.0977 1.36035L16.0976 1.46035C17.2676 1.46052 18.2193 2.41284 18.2193 3.58301L18.3193 3.58301ZM21.9033 1.36035V1.26035C20.6227 1.26035 19.5807 2.30232 19.5807 3.583L19.6807 3.58301L19.7807 3.58301C19.7807 2.41277 20.7332 1.46035 21.9033 1.46035V1.36035ZM19.6807 3.58301H19.5807V9.48438H19.6807H19.7807V3.58301H19.6807ZM19.6807 9.48438L19.7428 9.56272C20.3372 9.09116 21.0878 8.80801 21.9033 8.80801V8.70801V8.60801C21.0407 8.60801 20.2467 8.90769 19.6185 9.40603L19.6807 9.48438ZM21.9033 8.70801L21.9033 8.80801C22.2235 8.80818 22.483 9.06811 22.483 9.38869L22.583 9.38867L22.683 9.38866C22.6829 8.95792 22.3342 8.60824 21.9034 8.60801L21.9033 8.70801ZM22.583 9.38867H22.483C22.483 9.70927 22.2235 9.96916 21.9033 9.96934L21.9033 10.0693L21.9034 10.1693C22.3342 10.1691 22.683 9.81947 22.683 9.38867H22.583ZM21.9033 10.0693V9.96934C20.6227 9.96934 19.5807 11.0112 19.5807 12.292H19.6807H19.7807C19.7807 11.1217 20.7331 10.1693 21.9033 10.1693V10.0693ZM19.6807 12.292H19.5807V34.7627H19.6807H19.7807V12.292H19.6807ZM19.6807 34.7627L19.5807 34.7624C19.5805 34.8152 19.5733 34.8677 19.559 34.9182L19.6553 34.9453L19.7515 34.9724C19.7708 34.9042 19.7805 34.8336 19.7807 34.763L19.6807 34.7627ZM19.6553 34.9453L19.5557 34.9541C19.572 35.139 19.5807 35.3256 19.5807 35.5137L19.6807 35.5137L19.7807 35.5137C19.7807 35.3195 19.7717 35.127 19.7549 34.9365L19.6553 34.9453ZM19.6807 35.5137H19.5807C19.5807 38.3949 21.9244 40.7396 24.8057 40.7396L24.8057 40.6396L24.8057 40.5396C22.0349 40.5396 19.7807 38.2845 19.7807 35.5137H19.6807ZM24.8057 40.6396V40.7396C26.7506 40.7396 28.5225 39.6666 29.4303 37.9411L29.3418 37.8945L29.2533 37.848C28.3799 39.508 26.676 40.5396 24.8057 40.5396V40.6396ZM29.3418 37.8945L29.4303 37.9411C29.4672 37.871 29.5191 37.8091 29.582 37.7587L29.5195 37.6807L29.457 37.6026C29.3737 37.6693 29.3036 37.7523 29.2533 37.848L29.3418 37.8945ZM29.5195 37.6807L29.582 37.7587C29.6446 37.7087 29.7166 37.672 29.7936 37.6513L29.7676 37.5547L29.7416 37.4581C29.6376 37.4861 29.5408 37.5356 29.4571 37.6026L29.5195 37.6807ZM29.7676 37.5547L29.7936 37.6513C32.0698 37.0386 33.6596 34.9662 33.6596 32.6113H33.5596H33.4596C33.4596 34.8757 31.9307 36.869 29.7416 37.4581L29.7676 37.5547ZM33.5596 32.6113L33.6596 32.6113C33.6596 32.259 33.6242 31.9074 33.5541 31.5621L33.4561 31.582L33.3581 31.6019C33.4255 31.9341 33.4596 32.2724 33.4596 32.6113L33.5596 32.6113ZM33.4561 31.582L33.5541 31.5621C33.5277 31.4325 33.5461 31.2978 33.6065 31.1806L33.5176 31.1348L33.4287 31.089C33.3473 31.247 33.3227 31.4281 33.3581 31.602L33.4561 31.582ZM33.5176 31.1348L33.6065 31.1806C33.6668 31.0634 33.7662 30.9704 33.8873 30.9166L33.8467 30.8252L33.8061 30.7338C33.644 30.8059 33.5103 30.9306 33.4287 31.089L33.5176 31.1348ZM33.8467 30.8252L33.8873 30.9166C35.5124 30.194 36.5619 28.5801 36.5619 26.8057L36.4619 26.8057L36.3619 26.8057C36.3619 28.5009 35.3591 30.0432 33.8061 30.7338L33.8467 30.8252ZM36.4619 26.8057H36.5619C36.5619 25.999 36.3532 25.2269 35.9535 24.5433L35.8672 24.5938L35.7809 24.6442C36.1624 25.2968 36.3619 26.0341 36.3619 26.8057H36.4619ZM35.8672 24.5938L35.8011 24.5187C34.8029 25.3988 33.4943 25.9342 32.0625 25.9342V26.0342V26.1342C33.5451 26.1342 34.9003 25.5796 35.9333 24.6688L35.8672 24.5938ZM32.0625 26.0342L32.0625 25.9342C31.7422 25.9341 31.4829 25.6748 31.4828 25.3545L31.3828 25.3545L31.2828 25.3545C31.283 25.7853 31.6318 26.134 32.0625 26.1342L32.0625 26.0342ZM31.3828 25.3545H31.4828C31.4828 25.0338 31.7423 24.774 32.0625 24.7738L32.0625 24.6738L32.0625 24.5738C31.6315 24.574 31.2828 24.9237 31.2828 25.3545H31.3828ZM32.0625 24.6738V24.7738C34.5436 24.7738 36.5619 22.7555 36.5619 20.2744L36.4619 20.2744L36.3619 20.2744C36.3619 22.6451 34.4332 24.5738 32.0625 24.5738V24.6738ZM36.4619 20.2744H36.5619C36.5619 18.9389 35.9733 17.6794 34.946 16.8207L34.8818 16.8975L34.8177 16.9742C35.7996 17.7949 36.3619 18.9982 36.3619 20.2744H36.4619ZM34.8818 16.8975L34.946 16.8207C34.8513 16.7416 34.7839 16.6354 34.7542 16.5168L34.6572 16.541L34.5602 16.5653C34.6004 16.726 34.6914 16.8686 34.8177 16.9742L34.8818 16.8975ZM34.6572 16.541L34.7543 16.5168C34.7246 16.3979 34.7339 16.2719 34.7802 16.1577L34.6875 16.1201L34.5948 16.0825C34.5328 16.2354 34.5201 16.4046 34.5602 16.5652L34.6572 16.541ZM34.6875 16.1201L34.7802 16.1577C34.9997 15.6165 35.1107 15.0481 35.1107 14.4688L35.0107 14.4688L34.9107 14.4687C34.9107 15.0222 34.8047 15.565 34.5948 16.0825L34.6875 16.1201ZM35.0107 14.4688H35.1107C35.1107 11.9876 33.0925 9.96934 30.6113 9.96934V10.0693V10.1693C32.982 10.1693 34.9107 12.098 34.9107 14.4688H35.0107ZM30.6113 10.0693V9.96934C28.1302 9.96936 26.1119 11.9876 26.1119 14.4688H26.2119H26.3119C26.3119 12.0981 28.2406 10.1694 30.6113 10.1693L30.6113 10.0693ZM26.2119 14.4688L26.1119 14.4687C26.1119 14.7893 25.8517 15.0494 25.5313 15.0494V15.1494V15.2494C25.9622 15.2494 26.3119 14.8998 26.3119 14.4688L26.2119 14.4688ZM25.5313 15.1494L25.5313 15.0494C25.211 15.0493 24.9516 14.7894 24.9516 14.4687L24.8516 14.4688L24.7516 14.4688C24.7516 14.8995 25.1002 15.2493 25.5312 15.2494L25.5313 15.1494ZM24.8516 14.4688H24.9516C24.9516 11.4702 27.2956 9.0098 30.2476 8.82148L30.2412 8.72168L30.2348 8.62188C27.1783 8.81687 24.7516 11.3639 24.7516 14.4688H24.8516ZM30.2412 8.72168L30.327 8.77302C30.6087 8.30225 30.7562 7.76686 30.7563 7.21192L30.6563 7.21191L30.5563 7.21191C30.5562 7.73101 30.4183 8.23086 30.1554 8.67034L30.2412 8.72168ZM30.6563 7.21191H30.7563C30.7563 5.95763 29.9949 4.8784 28.9107 4.4111L28.8711 4.50293L28.8315 4.59476C29.8453 5.03168 30.5563 6.04054 30.5563 7.21191H30.6563ZM28.8711 4.50293L28.8998 4.40713C28.8653 4.39682 28.8315 4.38326 28.7992 4.3664L28.7529 4.45508L28.7067 4.54375C28.7507 4.56671 28.7964 4.58494 28.8424 4.59873L28.8711 4.50293ZM28.7529 4.45508L28.7885 4.36161C28.4527 4.23392 28.0889 4.16373 27.709 4.16367L27.709 4.26367L27.709 4.36367C28.064 4.36372 28.4038 4.4293 28.7174 4.54855L28.7529 4.45508ZM27.709 4.26367V4.16367C26.5316 4.16367 25.4794 4.82226 24.9647 5.8821L25.0547 5.92578L25.1446 5.96946C25.6258 4.97851 26.6082 4.36367 27.709 4.36367V4.26367ZM25.0547 5.92578L24.9647 5.88211C24.9313 5.95088 24.885 6.01247 24.8281 6.06292L24.8945 6.1377L24.9609 6.21248C25.0377 6.14428 25.1 6.06143 25.1446 5.96946L25.0547 5.92578ZM24.8945 6.1377L24.8281 6.06291C24.7714 6.11325 24.7047 6.15194 24.6323 6.17699L24.665 6.27148L24.6978 6.36598C24.7942 6.33258 24.884 6.28074 24.9609 6.21248L24.8945 6.1377ZM24.665 6.27148L24.6324 6.17698C24.5604 6.20186 24.4843 6.21232 24.4083 6.20779L24.4023 6.30762L24.3964 6.40744C24.4986 6.41352 24.6009 6.39947 24.6977 6.36599L24.665 6.27148ZM24.4023 6.30762L24.4083 6.20779C24.3324 6.20327 24.2579 6.18366 24.1892 6.15029L24.1455 6.24023L24.1018 6.33018C24.1939 6.3749 24.294 6.40134 24.3964 6.40744L24.4023 6.30762ZM24.1455 6.24023L24.1892 6.15028C24.1204 6.1169 24.0588 6.07046 24.0084 6.01368L23.9336 6.08008L23.8588 6.14647C23.927 6.22325 24.0099 6.28555 24.1018 6.33019L24.1455 6.24023ZM23.9336 6.08008L24.0084 6.01372C23.958 5.95686 23.9192 5.89062 23.8943 5.8188L23.7998 5.85156L23.7053 5.88433C23.7388 5.98089 23.791 6.06996 23.8588 6.14644L23.9336 6.08008ZM23.7998 5.85156L23.8943 5.81884C23.8694 5.74697 23.859 5.67005 23.8635 5.59383L23.7637 5.58789L23.6639 5.58195C23.6578 5.68409 23.6717 5.7873 23.7053 5.88428L23.7998 5.85156ZM23.7637 5.58789L23.8635 5.59389C23.8681 5.51802 23.8877 5.44328 23.921 5.37475L23.8311 5.33105L23.7411 5.28735C23.6964 5.37932 23.67 5.47966 23.6639 5.58189L23.7637 5.58789ZM23.8311 5.33105L23.921 5.37475C24.4761 4.23209 25.5269 3.40975 26.7372 3.11871L26.7139 3.02148L26.6905 2.92426C25.4234 3.22894 24.323 4.08958 23.7411 5.28736L23.8311 5.33105ZM26.7139 3.02148L26.766 2.93612C25.0219 1.87191 23.2939 1.26046 21.9033 1.26035L21.9033 1.36035L21.9033 1.46035C23.2423 1.46046 24.9333 2.0522 26.6618 3.10685L26.7139 3.02148ZM13.9209 25.3994L13.9209 25.4994C14.0746 25.4995 14.2219 25.5606 14.3307 25.6694L14.4014 25.5986L14.4721 25.5279C14.3258 25.3818 14.1278 25.2995 13.9209 25.2994L13.9209 25.3994ZM14.4014 25.5986L14.3307 25.6693C14.4394 25.7781 14.5006 25.9261 14.5006 26.0801H14.6006H14.7006C14.7006 25.8732 14.6185 25.6743 14.4721 25.5279L14.4014 25.5986ZM14.6006 26.0801L14.5006 26.08C14.5005 26.2338 14.4394 26.3811 14.3307 26.4898L14.4014 26.5605L14.4721 26.6313C14.6183 26.485 14.7005 26.2869 14.7006 26.0801L14.6006 26.0801ZM14.4014 26.5605L14.3307 26.4898C14.2219 26.5986 14.0746 26.6597 13.9209 26.6598L13.9209 26.7598L13.9209 26.8598C14.1278 26.8597 14.3258 26.7774 14.4721 26.6313L14.4014 26.5605ZM13.9209 26.7598V26.6598C11.4399 26.6598 9.42171 28.6782 9.42149 31.1592L9.52149 31.1592L9.62149 31.1592C9.6217 28.7887 11.5503 26.8598 13.9209 26.8598V26.7598ZM9.52149 31.1592L9.42149 31.1592C9.42153 31.3182 9.42988 31.4773 9.44645 31.6354L9.5459 31.625L9.64536 31.6146C9.62951 31.4634 9.62152 31.3112 9.62149 31.1592L9.52149 31.1592ZM9.5459 31.625L9.50834 31.7177C11.5826 32.5584 13.0493 34.5934 13.0494 36.9649L13.1494 36.9648L13.2494 36.9648C13.2493 34.5089 11.7303 32.4025 9.58346 31.5323L9.5459 31.625ZM13.1494 36.9648H13.0494C13.0494 37.2854 12.7899 37.5453 12.4697 37.5455L12.4697 37.6455L12.4698 37.7455C12.9006 37.7452 13.2494 37.3956 13.2494 36.9648H13.1494ZM12.4697 37.6455V37.5455C12.1492 37.5455 11.8891 37.2854 11.8891 36.9648H11.7891H11.6891C11.6891 37.3959 12.0388 37.7455 12.4697 37.7455V37.6455ZM11.7891 36.9648L11.8891 36.9648C11.8889 34.4839 9.87055 32.4656 7.38966 32.4654L7.38965 32.5654L7.38964 32.6654C9.76009 32.6656 11.6889 34.5944 11.6891 36.9649L11.7891 36.9648ZM7.38965 32.5654V32.4654C7.06917 32.4654 6.8092 32.206 6.80899 31.8857L6.70899 31.8857L6.60899 31.8858C6.60928 32.3167 6.95897 32.6654 7.38965 32.6654V32.5654ZM6.70899 31.8857H6.80899C6.80899 31.5652 7.06914 31.3051 7.38965 31.3051V31.2051V31.1051C6.9587 31.1051 6.60899 31.4547 6.60899 31.8857H6.70899ZM7.38965 31.2051L7.38946 31.3051C7.64352 31.3056 7.89715 31.3225 8.14855 31.3569L8.16211 31.2578L8.17567 31.1587C7.9151 31.1231 7.65252 31.1056 7.38984 31.1051L7.38965 31.2051ZM8.16211 31.2578L8.2621 31.2561C8.26148 31.2193 8.26016 31.1914 8.26016 31.1592H8.16016H8.06016C8.06016 31.1924 8.06165 31.2308 8.06213 31.2595L8.16211 31.2578ZM8.16016 31.1592L8.26016 31.1592C8.26037 28.0384 10.8 25.4994 13.9209 25.4994V25.3994V25.2994C10.6896 25.2994 8.06038 27.9279 8.06016 31.1592L8.16016 31.1592ZM21.9023 23.9482L21.9023 24.0482C25.0231 24.0484 27.5619 26.5873 27.5621 29.708L27.6621 29.708L27.7621 29.708C27.7619 26.4769 25.1335 23.8484 21.9024 23.8482L21.9023 23.9482ZM27.6621 29.708H27.5621C27.5621 29.7402 27.5608 29.7681 27.5602 29.805L27.6602 29.8066L27.7601 29.8083C27.7606 29.7796 27.7621 29.7412 27.7621 29.708H27.6621ZM27.6602 29.8066L27.6735 29.9057C27.9224 29.8722 28.1762 29.8539 28.4336 29.8539V29.7539V29.6539C28.1667 29.6539 27.9039 29.6729 27.6468 29.7075L27.6602 29.8066ZM28.4336 29.7539L28.4336 29.8539C28.7538 29.854 29.0133 30.1139 29.0133 30.4346H29.1133H29.2133C29.2133 30.0037 28.8646 29.6541 28.4336 29.6539L28.4336 29.7539ZM29.1133 30.4346L29.0133 30.4345C29.0131 30.7549 28.7538 31.0141 28.4336 31.0143L28.4336 31.1143L28.4336 31.2143C28.8643 31.2141 29.213 30.8653 29.2133 30.4346L29.1133 30.4346ZM28.4336 31.1143V31.0143C25.9525 31.0143 23.9344 33.0327 23.9342 35.5137L24.0342 35.5137L24.1342 35.5137C24.1344 33.1431 26.063 31.2143 28.4336 31.2143V31.1143ZM24.0342 35.5137H23.9342C23.9342 35.8342 23.674 36.0943 23.3535 36.0943L23.3535 36.1943L23.3535 36.2943C23.7844 36.2943 24.1342 35.9447 24.1342 35.5137H24.0342ZM23.3535 36.1943V36.0943C23.033 36.0943 22.7729 35.8343 22.7729 35.5137H22.6729H22.5729C22.5729 35.9447 22.9226 36.2943 23.3535 36.2943V36.1943ZM22.6729 35.5137L22.7729 35.5137C22.773 33.1421 24.2405 31.1072 26.3149 30.2665L26.2773 30.1738L26.2398 30.0812C24.0928 30.9512 22.573 33.0576 22.5729 35.5137L22.6729 35.5137ZM26.2773 30.1738L26.3768 30.1842C26.3934 30.0262 26.4017 29.867 26.4018 29.708L26.3018 29.708L26.2018 29.708C26.2017 29.86 26.1937 30.0122 26.1779 30.1634L26.2773 30.1738ZM26.3018 29.708L26.4018 29.708C26.4015 27.2271 24.3832 25.2088 21.9024 25.2086L21.9023 25.3086L21.9023 25.4086C24.2728 25.4088 26.2015 27.3376 26.2018 29.708L26.3018 29.708ZM21.9023 25.3086V25.2086C21.5818 25.2086 21.3219 24.9492 21.3217 24.6288L21.2217 24.6289L21.1217 24.629C21.1219 25.0599 21.4717 25.4086 21.9023 25.4086V25.3086ZM21.2217 24.6289H21.3217C21.3217 24.3083 21.5818 24.0482 21.9023 24.0482V23.9482V23.8482C21.4714 23.8482 21.1217 24.1978 21.1217 24.6289H21.2217ZM7.38965 13.7881L7.3896 13.8881C7.70987 13.8882 7.96934 14.1481 7.96934 14.4688H8.06934H8.16934C8.16934 14.0379 7.82061 13.6883 7.3897 13.6881L7.38965 13.7881ZM8.06934 14.4688L7.96934 14.4688C7.96951 16.9498 9.9887 18.9682 12.4697 18.9682V18.8682V18.7682C10.0991 18.7682 8.16951 16.8393 8.16934 14.4687L8.06934 14.4688ZM12.4697 18.8682L12.4697 18.9682C13.6887 18.968 14.8306 18.4877 15.6837 17.6169L15.6123 17.5469L15.5409 17.4769C14.7253 18.3094 13.6349 18.768 12.4697 18.7682L12.4697 18.8682ZM15.6123 17.5469L15.6828 17.6178C15.7908 17.5106 15.9368 17.4502 16.0893 17.4496L16.0889 17.3496L16.0885 17.2496C15.8837 17.2505 15.6873 17.3315 15.5419 17.4759L15.6123 17.5469ZM16.0889 17.3496L16.0892 17.4496C16.2417 17.4491 16.3884 17.5087 16.4974 17.6154L16.5674 17.5439L16.6373 17.4725C16.4908 17.329 16.2936 17.2489 16.0885 17.2496L16.0889 17.3496ZM16.5674 17.5439L16.4974 17.6154C16.6066 17.7224 16.6699 17.868 16.6725 18.0203L16.7725 18.0186L16.8724 18.0169C16.869 17.8114 16.7837 17.6159 16.6374 17.4725L16.5674 17.5439ZM16.7725 18.0186L16.6725 18.0202C16.675 18.1723 16.617 18.3195 16.5116 18.43L16.584 18.499L16.6564 18.568C16.7976 18.4199 16.8758 18.2221 16.8724 18.0169L16.7725 18.0186ZM16.584 18.499L16.5126 18.429C15.5852 19.3755 14.388 19.9536 13.0908 20.0939L13.1016 20.1934L13.1123 20.2928C14.4556 20.1474 15.6958 19.5485 16.6554 18.569L16.584 18.499ZM13.1016 20.1934L13.0027 20.1784C12.6975 22.2012 10.9471 23.7574 8.84082 23.7574L8.84082 23.8574L8.84082 23.9574C11.0477 23.9574 12.8808 22.3272 13.2004 20.2083L13.1016 20.1934ZM8.84082 23.8574V23.7574C8.52031 23.7574 8.26016 23.4973 8.26016 23.1768H8.16016H8.06016C8.06016 23.6078 8.40987 23.9574 8.84082 23.9574V23.8574ZM8.16016 23.1768L8.26016 23.1768C8.2602 22.8562 8.52036 22.5961 8.84082 22.5961V22.4961V22.3961C8.40989 22.3961 8.06022 22.7458 8.06016 23.1767L8.16016 23.1768ZM8.84082 22.4961L8.84083 22.5961C10.2981 22.5961 11.519 21.5686 11.8184 20.2001L11.7207 20.1787L11.623 20.1573C11.3433 21.4361 10.202 22.3961 8.84082 22.3961L8.84082 22.4961ZM11.7207 20.1787L11.7336 20.0796C8.95927 19.7175 6.80914 17.3399 6.80899 14.4687L6.70899 14.4688L6.60899 14.4688C6.60915 17.4419 8.8353 19.903 11.7078 20.2779L11.7207 20.1787ZM6.70899 14.4688H6.80899C6.80899 14.1482 7.06914 13.8881 7.38965 13.8881V13.7881V13.6881C6.9587 13.6881 6.60899 14.0377 6.60899 14.4688H6.70899ZM32.0615 13.0625V13.1625C32.382 13.1625 32.6422 13.4226 32.6422 13.7432H32.7422H32.8422C32.8422 13.3121 32.4925 12.9625 32.0615 12.9625V13.0625ZM32.7422 13.7432L32.6422 13.7432C32.6421 16.6144 30.4919 18.9919 27.7175 19.354L27.7305 19.4531L27.7434 19.5523C30.6159 19.1774 32.8421 16.7164 32.8422 13.7432L32.7422 13.7432ZM27.7305 19.4531L27.6328 19.4745C27.9321 20.843 29.153 21.8714 30.6103 21.8715L30.6104 21.7715L30.6104 21.6715C29.2492 21.6714 28.1079 20.7106 27.8282 19.4318L27.7305 19.4531ZM30.6104 21.7715V21.8715C30.9309 21.8715 31.1909 22.1308 31.191 22.4512L31.291 22.4512L31.391 22.4511C31.3909 22.0201 31.0411 21.6715 30.6104 21.6715V21.7715ZM31.291 22.4512H31.191C31.191 22.7718 30.9309 23.0318 30.6104 23.0318V23.1318V23.2318C31.0413 23.2318 31.391 22.8822 31.391 22.4512H31.291ZM30.6104 23.1318L30.6104 23.0318C28.5041 23.0318 26.7536 21.4756 26.4485 19.4529L26.3496 19.4678L26.2507 19.4827C26.5704 21.6016 28.4035 23.2318 30.6104 23.2318L30.6104 23.1318ZM26.3496 19.4678L26.3604 19.3684C25.0633 19.228 23.8659 18.6507 22.9386 17.7044L22.8672 17.7744L22.7958 17.8444C23.7554 18.8238 24.9957 19.4218 26.3389 19.5672L26.3496 19.4678ZM22.8672 17.7744L22.9386 17.7044C22.831 17.5946 22.7713 17.446 22.7728 17.292L22.6729 17.291L22.5729 17.29C22.5708 17.4968 22.6509 17.6966 22.7958 17.8444L22.8672 17.7744ZM22.6729 17.291L22.7728 17.292C22.7744 17.138 22.8371 16.9906 22.9469 16.883L22.877 16.8115L22.807 16.7401C22.6591 16.885 22.575 17.0831 22.5729 17.29L22.6729 17.291ZM22.877 16.8115L22.9469 16.883C23.0568 16.7753 23.2055 16.7156 23.3593 16.7172L23.3604 16.6172L23.3614 16.5172C23.1545 16.5151 22.9548 16.5953 22.807 16.7401L22.877 16.8115ZM23.3604 16.6172L23.3593 16.7172C23.5129 16.7188 23.6598 16.7815 23.7675 16.8913L23.8389 16.8213L23.9103 16.7513C23.7656 16.6038 23.5682 16.5194 23.3614 16.5172L23.3604 16.6172ZM23.8389 16.8213L23.7674 16.8913C24.6207 17.7623 25.7633 18.2426 26.9824 18.2426V18.1426V18.0426C25.8171 18.0426 24.726 17.5839 23.9103 16.7513L23.8389 16.8213ZM26.9824 18.1426L26.9824 18.2426C29.4633 18.2423 31.4817 16.2241 31.4818 13.7432L31.3818 13.7432L31.2818 13.7432C31.2817 16.1136 29.3528 18.0423 26.9824 18.0426L26.9824 18.1426ZM31.3818 13.7432H31.4818C31.4818 13.4225 31.7413 13.1627 32.0616 13.1625L32.0615 13.0625L32.0615 12.9625C31.6306 12.9627 31.2818 13.3124 31.2818 13.7432H31.3818Z" fill="url(#paint1_linear_8273_2)" mask="url(#path-1-outside-1_8273_2)"/>
<defs>
<linearGradient id="paint0_linear_8273_2" x1="36.6995" y1="32.55" x2="-0.149036" y2="30.0852" gradientUnits="userSpaceOnUse">
<stop offset="0.135487" stop-color="#EA5D39"/>
<stop offset="0.548428" stop-color="#987077"/>
<stop offset="1" stop-color="#4682B4"/>
</linearGradient>
<linearGradient id="paint1_linear_8273_2" x1="36.6995" y1="32.55" x2="-0.149036" y2="30.0852" gradientUnits="userSpaceOnUse">
<stop offset="0.135487" stop-color="#EA5D39"/>
<stop offset="0.548428" stop-color="#987077"/>
<stop offset="1" stop-color="#4682B4"/>
</linearGradient>
</defs>
</svg>
