<svg width="48" height="34" viewBox="0 0 48 34" fill="none" xmlns="http://www.w3.org/2000/svg">
<path d="M37.6798 12.0177C36.0111 3.90814 28.0841 -1.31318 19.9745 0.35555C13.0304 1.78451 8.03673 7.88255 8.00487 14.972C8.00487 15.3098 8.01884 15.6556 8.04882 16.0214C3.10868 16.5443 -0.472212 20.973 0.0507075 25.9131C0.535399 30.4921 4.39972 33.9657 9.00424 33.9612H10.0536C10.0297 33.6294 10.0037 33.2996 10.0037 32.9617C10.0037 25.7861 15.8207 19.9691 22.9963 19.9691C30.1719 19.9691 35.9888 25.7861 35.9888 32.9617C35.9888 33.2995 35.9628 33.6293 35.9389 33.9612H36.9883C43.0532 33.9777 47.9833 29.0745 47.9999 23.0095C48.0159 17.1899 43.489 12.3684 37.6798 12.0177Z" fill="#4682B4"/>
</svg>
